<?xml version="1.0" encoding="utf-8"?>
<!-- Generator: Adobe Illustrator 25.2.3, SVG Export Plug-In . SVG Version: 6.00 Build 0)  -->
<svg version="1.1" id="Layer_1" xmlns="http://www.w3.org/2000/svg" xmlns:xlink="http://www.w3.org/1999/xlink" x="0px" y="0px"
	 viewBox="0 0 1204 592" style="enable-background:new 0 0 1204 592;" xml:space="preserve">
<style type="text/css">
	.st0{opacity:0.29;}
	.st1{fill:#323232;}
	.st2{fill:#5F5F5F;}
	.st3{fill:#00FFFF;}
	.st4{fill:url(#SVGID_1_);}
	.st5{fill:url(#SVGID_2_);}
	.st6{fill:#00D8D8;}
	.st7{fill:#393939;}
	.st8{fill:#959595;}
	.st9{fill:#6D6D6D;}
	.st10{opacity:0.69;}
</style>
<path d="M0,0h1204v592H0V0z"/>
<g class="st0">
	<path class="st1" d="M1064.2,299.8v0.5c0,7.4-7.8,15.2-15.2,15.2h-0.5v1.1h0.5c7.4,0,15.2,7.8,15.2,15.2v0.5h1.1v-0.5
		c0-7.4,7.8-15.2,15.2-15.2h0.5v-1.1h-0.5c-7.4,0-15.2-7.8-15.2-15.2v-0.5H1064.2z"/>
	<g>
		<path class="st1" d="M858.6,46v0.5c0,7.4-7.8,15.2-15.2,15.2H843v1.1h0.5c7.4,0,15.2,7.8,15.2,15.2v0.5h1.1v-0.5
			c0-7.4,7.8-15.2,15.2-15.2h0.5v-1.1h-0.5c-7.4,0-15.2-7.8-15.2-15.2V46H858.6z"/>
	</g>
	<path class="st1" d="M690,279.8v0.5c0,7.4-7.8,15.2-15.2,15.2h-0.5v1.1h0.5c7.4,0,15.2,7.8,15.2,15.2v0.5h1.1v-0.5
		c0-7.4,7.8-15.2,15.2-15.2h0.5v-1.1h-0.5c-7.4,0-15.2-7.8-15.2-15.2v-0.5H690z"/>
	<path class="st1" d="M245.6,359v0.5c0,7.4-7.8,15.2-15.2,15.2H230v1.1h0.5c7.4,0,15.2,7.8,15.2,15.2v0.5h1.1v-0.5
		c0-7.4,7.8-15.2,15.2-15.2h0.5v-1.1h-0.5c-7.4,0-15.2-7.8-15.2-15.2V359H245.6z"/>
	<path class="st1" d="M141.6,104v0.5c0,7.4-7.8,15.2-15.2,15.2H126v1.1h0.5c7.4,0,15.2,7.8,15.2,15.2v0.5h1.1v-0.5
		c0-7.4,7.8-15.2,15.2-15.2h0.5v-1.1h-0.5c-7.4,0-15.2-7.8-15.2-15.2V104H141.6z"/>
	<path class="st1" d="M141.4,255.8v0.5c0,7.4-7.8,15.2-15.2,15.2h-0.5v1.1h0.5c7.4,0,15.2,7.8,15.2,15.2v0.5h1.1v-0.5
		c0-7.4,7.8-15.2,15.2-15.2h0.5v-1.1h-0.5c-7.4,0-15.2-7.8-15.2-15.2v-0.5H141.4z"/>
	<path class="st1" d="M683.6,432v0.5c0,7.4-7.8,15.2-15.2,15.2H668v1.1h0.5c7.4,0,15.2,7.8,15.2,15.2v0.5h1.1v-0.5
		c0-7.4,7.8-15.2,15.2-15.2h0.5v-1.1h-0.5c-7.4,0-15.2-7.8-15.2-15.2V432H683.6z"/>
	<path class="st1" d="M540.4,347v0.5c0,7.4-7.8,15.2-15.2,15.2h-0.5v1.1h0.5c7.4,0,15.2,7.8,15.2,15.2v0.5h1.1v-0.5
		c0-7.4,7.8-15.2,15.2-15.2h0.5v-1.1h-0.5c-7.4,0-15.2-7.8-15.2-15.2V347H540.4z"/>
	<g>
		<path class="st2" d="M157.6,512v0.5c0,7.4-7.8,15.2-15.2,15.2H142v1.1h0.5c7.4,0,15.2,7.8,15.2,15.2v0.5h1.1v-0.5
			c0-7.4,7.8-15.2,15.2-15.2h0.5v-1.1h-0.5c-7.4,0-15.2-7.8-15.2-15.2V512H157.6z"/>
	</g>
	<path class="st3" d="M1080.7,487v0.2c0,3.6-3.8,7.5-7.5,7.5h-0.2v0.6h0.2c3.6,0,7.5,3.9,7.5,7.5v0.2h0.6v-0.2
		c0-3.6,3.8-7.5,7.5-7.5h0.2v-0.6h-0.2c-3.6,0-7.5-3.9-7.5-7.5V487H1080.7z"/>
	
		<radialGradient id="SVGID_1_" cx="848.1331" cy="777.7566" r="1.0001" gradientTransform="matrix(1.381824e-15 -22.5669 -22.5669 -1.381824e-15 18219.5547 19467.7363)" gradientUnits="userSpaceOnUse">
		<stop  offset="0" style="stop-color:#00FFFF"/>
		<stop  offset="0.3641" style="stop-color:#00FFFF"/>
		<stop  offset="0.4" style="stop-color:#00FFFF"/>
		<stop  offset="0.4584" style="stop-color:#00FCFC;stop-opacity:0.8422"/>
		<stop  offset="0.5064" style="stop-color:#00F2F2;stop-opacity:0.7124"/>
		<stop  offset="0.5508" style="stop-color:#00E0E0;stop-opacity:0.5924"/>
		<stop  offset="0.593" style="stop-color:#00C8C8;stop-opacity:0.4783"/>
		<stop  offset="0.6337" style="stop-color:#00A9A9;stop-opacity:0.3684"/>
		<stop  offset="0.6732" style="stop-color:#008282;stop-opacity:0.2616"/>
		<stop  offset="0.7117" style="stop-color:#005555;stop-opacity:0.1574"/>
		<stop  offset="0.7486" style="stop-color:#002121;stop-opacity:5.780000e-02"/>
		<stop  offset="0.77" style="stop-color:#000000;stop-opacity:0"/>
	</radialGradient>
	<path class="st4" d="M645.4,328c0,12.5,10.1,22.6,22.6,22.6c12.5,0,22.6-10.1,22.6-22.6s-10.1-22.6-22.6-22.6
		C655.5,305.4,645.4,315.5,645.4,328z M668.5,312.2v0.5c0,7.2,7.7,14.9,14.9,14.9h0.5v1.1h-0.5c-7.2,0-14.9,7.7-14.9,14.9v0.5h-1.1
		v-0.5c0-7.2-7.7-14.9-14.9-14.9h-0.5v-1.1h0.5c7.2,0,14.9-7.7,14.9-14.9v-0.5H668.5z"/>
	
		<radialGradient id="SVGID_2_" cx="837.5867" cy="813.5712" r="1.0001" gradientTransform="matrix(1.381824e-15 -22.5669 -22.5669 -1.381824e-15 19241.5547 19044.7344)" gradientUnits="userSpaceOnUse">
		<stop  offset="0" style="stop-color:#00FFFF"/>
		<stop  offset="0.3641" style="stop-color:#00FFFF"/>
		<stop  offset="0.4" style="stop-color:#00FFFF"/>
		<stop  offset="0.4584" style="stop-color:#00FCFC;stop-opacity:0.8422"/>
		<stop  offset="0.5064" style="stop-color:#00F2F2;stop-opacity:0.7124"/>
		<stop  offset="0.5508" style="stop-color:#00E0E0;stop-opacity:0.5924"/>
		<stop  offset="0.593" style="stop-color:#00C8C8;stop-opacity:0.4783"/>
		<stop  offset="0.6337" style="stop-color:#00A9A9;stop-opacity:0.3684"/>
		<stop  offset="0.6732" style="stop-color:#008282;stop-opacity:0.2616"/>
		<stop  offset="0.7117" style="stop-color:#005555;stop-opacity:0.1574"/>
		<stop  offset="0.7486" style="stop-color:#002121;stop-opacity:5.780000e-02"/>
		<stop  offset="0.77" style="stop-color:#000000;stop-opacity:0"/>
	</radialGradient>
	<path class="st5" d="M859.2,143c0,12.5,10.1,22.6,22.6,22.6c12.5,0,22.6-10.1,22.6-22.6c0-12.5-10.1-22.6-22.6-22.6
		C869.3,120.4,859.2,130.5,859.2,143z M882.3,127.2v0.5c0,7.2,7.7,14.9,14.9,14.9h0.5v1.1h-0.5c-7.2,0-14.9,7.7-14.9,14.9v0.5h-1.1
		v-0.5c0-7.2-7.6-14.9-14.9-14.9h-0.5v-1.1h0.5c7.2,0,14.9-7.7,14.9-14.9v-0.5H882.3z"/>
	<path class="st3" d="M269.7,520v0.2c0,3.6-3.9,7.5-7.5,7.5H262v0.6h0.2c3.6,0,7.5,3.8,7.5,7.5v0.2h0.6v-0.2c0-3.6,3.9-7.5,7.5-7.5
		h0.2v-0.6h-0.2c-3.6,0-7.5-3.8-7.5-7.5V520H269.7z"/>
	<path class="st3" d="M345.6,17v0.4c0,5.7-6,11.7-11.7,11.7h-0.4v0.9h0.4c5.7,0,11.7,6,11.7,11.7V42h0.9v-0.4
		c0-5.7,6-11.7,11.7-11.7h0.4v-0.9h-0.4c-5.7,0-11.7-6-11.7-11.7V17H345.6z"/>
	<g>
		<path class="st3" d="M27.7,453.5v0.5c0,8-8.4,16.4-16.4,16.4h-0.5v1.2h0.5c8,0,16.4,8.4,16.4,16.4v0.5h1.2V488
			c0-8,8.4-16.4,16.4-16.4h0.5v-1.2h-0.5c-8,0-16.4-8.4-16.4-16.4v-0.5H27.7z"/>
	</g>
	<path class="st3" d="M399.8,471v0.2c0,3.6-3.8,7.5-7.5,7.5H392v0.6h0.2c3.6,0,7.5,3.9,7.5,7.5v0.2h0.6v-0.2c0-3.6,3.8-7.5,7.5-7.5
		h0.2v-0.6h-0.2c-3.6,0-7.5-3.9-7.5-7.5V471H399.8z"/>
	<path class="st3" d="M62.7,110v0.2c0,3.6-3.9,7.5-7.5,7.5H55v0.6h0.2c3.6,0,7.5,3.8,7.5,7.5v0.2h0.6v-0.2c0-3.6,3.8-7.5,7.5-7.5H71
		v-0.6h-0.2c-3.6,0-7.5-3.8-7.5-7.5V110H62.7z"/>
	<path class="st6" d="M67.7,50v0.2c0,3.6-3.9,7.5-7.5,7.5H60v0.6h0.2c3.6,0,7.5,3.8,7.5,7.5V66h0.6v-0.2c0-3.6,3.8-7.5,7.5-7.5H76
		v-0.6h-0.2c-3.6,0-7.5-3.9-7.5-7.5V50H67.7z"/>
	<g>
		<path class="st7" d="M735.6,201v0.3c0,5.5-5.8,11.2-11.2,11.2H724v0.8h0.3c5.5,0,11.2,5.8,11.2,11.2v0.3h0.8v-0.3
			c0-5.5,5.8-11.2,11.2-11.2h0.3v-0.8h-0.3c-5.5,0-11.2-5.8-11.2-11.2V201H735.6z"/>
	</g>
	<path class="st7" d="M933.4,467v0.3c0,5.5-5.8,11.2-11.2,11.2h-0.3v0.8h0.3c5.5,0,11.2,5.8,11.2,11.2v0.3h0.8v-0.3
		c0-5.5,5.8-11.2,11.2-11.2h0.3v-0.8h-0.3c-5.5,0-11.2-5.8-11.2-11.2V467H933.4z"/>
	<g>
		<path class="st7" d="M498.6,544v0.3c0,5.5-5.8,11.2-11.2,11.2H487v0.8h0.3c5.5,0,11.2,5.8,11.2,11.2v0.3h0.8v-0.3
			c0-5.5,5.8-11.2,11.2-11.2h0.3v-0.8h-0.3c-5.5,0-11.2-5.8-11.2-11.2V544H498.6z"/>
	</g>
	<path class="st7" d="M628.8,66.4v0.3c0,5.5-5.8,11.2-11.2,11.2h-0.4v0.8h0.4c5.5,0,11.2,5.8,11.2,11.2v0.3h0.8v-0.3
		c0-5.5,5.8-11.2,11.2-11.2h0.4V78h-0.4c-5.5,0-11.2-5.8-11.2-11.2v-0.3H628.8z"/>
	<path class="st7" d="M333.6,213v0.3c0,5.5-5.8,11.2-11.2,11.2H322v0.8h0.3c5.5,0,11.2,5.8,11.2,11.2v0.3h0.8v-0.3
		c0-5.5,5.8-11.2,11.2-11.2h0.3v-0.8h-0.3c-5.5,0-11.2-5.8-11.2-11.2V213H333.6z"/>
	<path class="st7" d="M431.8,363.2v0.3c0,5.5-5.8,11.2-11.2,11.2h-0.3v0.8h0.3c5.5,0,11.2,5.8,11.2,11.2v0.3h0.8v-0.3
		c0-5.5,5.8-11.2,11.2-11.2h0.3v-0.8h-0.3c-5.5,0-11.2-5.8-11.2-11.2v-0.3H431.8z"/>
	<path class="st7" d="M1003.6,98v0.3c0,5.5-5.8,11.2-11.2,11.2H992v0.8h0.3c5.5,0,11.2,5.8,11.2,11.2v0.3h0.8v-0.3
		c0-5.5,5.8-11.2,11.2-11.2h0.3v-0.8h-0.3c-5.5,0-11.2-5.8-11.2-11.2V98H1003.6z"/>
	<path class="st7" d="M474.6,131v0.3c0,5.5-5.8,11.2-11.2,11.2H463v0.8h0.3c5.5,0,11.2,5.8,11.2,11.2v0.3h0.8v-0.3
		c0-5.5,5.8-11.2,11.2-11.2h0.3v-0.8h-0.3c-5.5,0-11.2-5.8-11.2-11.2V131H474.6z"/>
	<path class="st8" d="M419.8,272v0.3c0,5.5-5.8,11.2-11.2,11.2h-0.3v0.8h0.3c5.5,0,11.2,5.8,11.2,11.2v0.3h0.8v-0.3
		c0-5.5,5.8-11.2,11.2-11.2h0.3v-0.8h-0.3c-5.5,0-11.2-5.8-11.2-11.2V272H419.8z"/>
	<path class="st8" d="M1114.6,119v0.3c0,5.5-5.8,11.2-11.2,11.2h-0.3v0.8h0.3c5.5,0,11.2,5.8,11.2,11.2v0.3h0.8v-0.3
		c0-5.5,5.8-11.2,11.2-11.2h0.3v-0.8h-0.3c-5.5,0-11.2-5.8-11.2-11.2V119H1114.6z"/>
	<path class="st8" d="M309.6,119v0.3c0,5.5-5.8,11.2-11.2,11.2H298v0.8h0.3c5.5,0,11.2,5.8,11.2,11.2v0.3h0.8v-0.3
		c0-5.5,5.8-11.2,11.2-11.2h0.3v-0.8h-0.3c-5.5,0-11.2-5.8-11.2-11.2V119H309.6z"/>
	<path class="st8" d="M897.2,243.8v0.3c0,5.5-5.8,11.2-11.2,11.2h-0.3v0.8h0.3c5.5,0,11.2,5.8,11.2,11.2v0.3h0.8v-0.3
		c0-5.5,5.8-11.2,11.2-11.2h0.3v-0.8h-0.3c-5.5,0-11.2-5.8-11.2-11.2v-0.3H897.2z"/>
	<path class="st8" d="M179.6,178v0.3c0,5.5-5.8,11.2-11.2,11.2H168v0.8h0.3c5.5,0,11.2,5.8,11.2,11.2v0.3h0.8v-0.3
		c0-5.5,5.8-11.2,11.2-11.2h0.3v-0.8h-0.3c-5.5,0-11.2-5.8-11.2-11.2V178H179.6z"/>
	<path class="st9" d="M723.6,95v0.3c0,5.5-5.8,11.2-11.2,11.2H712v0.8h0.3c5.5,0,11.2,5.8,11.2,11.2v0.3h0.8v-0.3
		c0-5.5,5.8-11.2,11.2-11.2h0.3v-0.8h-0.3c-5.5,0-11.2-5.8-11.2-11.2V95H723.6z"/>
	<g>
		<path class="st9" d="M783.1,316v0.3c0,5.5-5.8,11.2-11.2,11.2h-0.4v0.8h0.4c5.5,0,11.2,5.8,11.2,11.2v0.3h0.8v-0.3
			c0-5.5,5.8-11.2,11.2-11.2h0.4v-0.8h-0.4c-5.5,0-11.2-5.8-11.2-11.2V316H783.1z"/>
	</g>
	<g>
		<path class="st9" d="M783.1,473.2v0.3c0,5.5-5.8,11.2-11.2,11.2h-0.3v0.8h0.3c5.5,0,11.2,5.8,11.2,11.2v0.3h0.8v-0.3
			c0-5.5,5.8-11.2,11.2-11.2h0.3v-0.8h-0.3c-5.5,0-11.2-5.8-11.2-11.2v-0.3H783.1z"/>
	</g>
	<g>
		<path class="st9" d="M747.6,66.4v0.3c0,5.5-5.8,11.2-11.2,11.2H736v0.8h0.3c5.5,0,11.2,5.8,11.2,11.2v0.3h0.8v-0.3
			c0-5.5,5.8-11.2,11.2-11.2h0.3V78h-0.3c-5.5,0-11.2-5.8-11.2-11.2v-0.3H747.6z"/>
	</g>
	<g class="st10">
		<path class="st9" d="M83.6,316v0.3c0,5.5-5.8,11.2-11.2,11.2H72v0.8h0.3c5.5,0,11.2,5.8,11.2,11.2v0.3h0.8v-0.3
			c0-5.5,5.8-11.2,11.2-11.2H96v-0.8h-0.3c-5.5,0-11.2-5.8-11.2-11.2V316H83.6z"/>
	</g>
</g>
</svg>
