<svg width="2289" height="592" viewBox="0 0 2289 592" fill="none" xmlns="http://www.w3.org/2000/svg">
<path d="M0 -0.00012207H2289V592H0V-0.00012207Z" fill="black"/>
<g opacity="0.29">
<path d="M961.637 468.999L961.637 469.465C961.637 476.838 953.839 484.636 946.466 484.636L946 484.636L946 485.77L946.466 485.77C953.839 485.77 961.637 493.568 961.637 500.941L961.637 501.407L962.771 501.407L962.771 500.941C962.771 493.568 970.569 485.77 977.942 485.77L978.408 485.77L978.408 484.636L977.942 484.636C970.569 484.636 962.771 476.838 962.771 469.465L962.771 468.999L961.637 468.999Z" fill="#323232"/>
<g filter="url(#filter0_f)">
<path d="M858.637 45.9999L858.637 46.4654C858.637 53.8382 850.839 61.6368 843.466 61.6368L843 61.6368L843 62.7709L843.466 62.7709C850.839 62.7709 858.637 70.5688 858.637 77.9416L858.637 78.4077L859.771 78.4077L859.771 77.9416C859.771 70.5688 867.569 62.7709 874.942 62.7708L875.408 62.7708L875.408 61.6368L874.942 61.6368C867.569 61.6368 859.771 53.8382 859.771 46.4654L859.771 45.9999L858.637 45.9999Z" fill="#323232"/>
</g>
<path d="M2146.64 61.9998L2146.64 62.4653C2146.64 69.8381 2138.84 77.6367 2131.47 77.6367L2131 77.6367L2131 78.7707L2131.47 78.7707C2138.84 78.7707 2146.64 86.5687 2146.64 93.9414L2146.64 94.4076L2147.77 94.4076L2147.77 93.9414C2147.77 86.5687 2155.57 78.7707 2162.94 78.7707L2163.41 78.7707L2163.41 77.6367L2162.94 77.6367C2155.57 77.6367 2147.77 69.8381 2147.77 62.4653L2147.77 61.9998L2146.64 61.9998Z" fill="#323232"/>
<path d="M245.637 359L245.637 359.465C245.637 366.838 237.839 374.637 230.466 374.637L230 374.637L230 375.771L230.466 375.771C237.839 375.771 245.637 383.569 245.637 390.942L245.637 391.408L246.771 391.408L246.771 390.942C246.771 383.569 254.569 375.771 261.942 375.771L262.408 375.771L262.408 374.637L261.942 374.637C254.569 374.637 246.771 366.838 246.771 359.465L246.771 359L245.637 359Z" fill="#323232"/>
<path d="M141.637 104L141.637 104.465C141.637 111.838 133.839 119.637 126.466 119.637L126 119.637L126 120.771L126.466 120.771C133.839 120.771 141.637 128.569 141.637 135.941L141.637 136.408L142.771 136.408L142.771 135.941C142.771 128.569 150.569 120.771 157.942 120.771L158.408 120.771L158.408 119.637L157.942 119.637C150.569 119.637 142.771 111.838 142.771 104.465L142.771 104L141.637 104Z" fill="#323232"/>
<path d="M1238.64 49.9994L1238.64 50.4649C1238.64 57.8377 1230.84 65.6363 1223.47 65.6363L1223 65.6363L1223 66.7704L1223.47 66.7704C1230.84 66.7704 1238.64 74.5683 1238.64 81.9411L1238.64 82.4072L1239.77 82.4072L1239.77 81.9411C1239.77 74.5683 1247.57 66.7704 1254.94 66.7704L1255.41 66.7704L1255.41 65.6363L1254.94 65.6363C1247.57 65.6363 1239.77 57.8377 1239.77 50.4649L1239.77 49.9994L1238.64 49.9994Z" fill="#323232"/>
<path d="M683.637 431.999L683.637 432.465C683.637 439.838 675.839 447.636 668.466 447.636L668 447.636L668 448.77L668.466 448.77C675.839 448.77 683.637 456.568 683.637 463.941L683.637 464.407L684.771 464.407L684.771 463.941C684.771 456.568 692.569 448.77 699.942 448.77L700.408 448.77L700.408 447.636L699.942 447.636C692.569 447.636 684.771 439.838 684.771 432.465L684.771 431.999L683.637 431.999Z" fill="#323232"/>
<path d="M1773.64 33.9998L1773.64 34.4653C1773.64 41.8381 1765.84 49.6367 1758.47 49.6367L1758 49.6367L1758 50.7707L1758.47 50.7707C1765.84 50.7707 1773.64 58.5687 1773.64 65.9414L1773.64 66.4076L1774.77 66.4076L1774.77 65.9414C1774.77 58.5687 1782.57 50.7707 1789.94 50.7707L1790.41 50.7707L1790.41 49.6367L1789.94 49.6367C1782.57 49.6367 1774.77 41.8381 1774.77 34.4653L1774.77 33.9998L1773.64 33.9998Z" fill="#323232"/>
<g filter="url(#filter1_f)">
<path d="M157.637 512L157.637 512.465C157.637 519.838 149.839 527.637 142.466 527.637L142 527.637L142 528.771L142.466 528.771C149.839 528.771 157.637 536.569 157.637 543.941L157.637 544.408L158.771 544.408L158.771 543.941C158.771 536.569 166.569 528.771 173.942 528.771L174.408 528.771L174.408 527.637L173.942 527.637C166.569 527.637 158.771 519.838 158.771 512.465L158.771 512L157.637 512Z" fill="#5F5F5F"/>
</g>
<path d="M1080.72 486.999L1080.72 487.229C1080.72 490.869 1076.87 494.719 1073.23 494.719L1073 494.719L1073 495.279L1073.23 495.279C1076.87 495.279 1080.72 499.129 1080.72 502.769L1080.72 502.999L1081.28 502.999L1081.28 502.769C1081.28 499.129 1085.13 495.279 1088.77 495.279L1089 495.279L1089 494.719L1088.77 494.719C1085.13 494.719 1081.28 490.869 1081.28 487.229L1081.28 486.999L1080.72 486.999Z" fill="#00FFFF"/>
<path d="M1172 478.568C1172 491.033 1182.1 501.136 1194.57 501.136C1207.03 501.136 1217.14 491.033 1217.14 478.568C1217.14 466.103 1207.03 456 1194.57 456C1182.1 456.006 1172 466.109 1172 478.568ZM1195.11 462.73L1195.11 463.183C1195.11 470.422 1202.77 478.071 1210 478.071L1210.46 478.071L1210.46 479.182L1210 479.182C1202.76 479.182 1195.11 486.837 1195.11 494.07L1195.11 494.524L1194 494.524L1194 494.07C1194 486.831 1186.35 479.182 1179.12 479.182L1178.66 479.182L1178.66 478.071L1179.12 478.071C1186.35 478.071 1194 470.416 1194 463.183L1194 462.73L1195.11 462.73Z" fill="url(#paint0_radial)"/>
<path d="M2194 55.5681C2194 68.033 2204.1 78.1362 2216.57 78.1362C2229.03 78.1362 2239.14 68.033 2239.14 55.5681C2239.14 43.1032 2229.03 32.9999 2216.57 32.9999C2204.1 33.0061 2194 43.1093 2194 55.5681ZM2217.11 39.7294L2217.11 40.1833C2217.11 47.4218 2224.77 55.0713 2232 55.0713L2232.46 55.0713L2232.46 56.1815L2232 56.1815C2224.76 56.1815 2217.11 63.8371 2217.11 71.0695L2217.11 71.5234L2216 71.5234L2216 71.0695C2216 63.831 2208.35 56.1815 2201.12 56.1815L2200.66 56.1815L2200.66 55.0713L2201.12 55.0713C2208.35 55.0713 2216 47.4157 2216 40.1833L2216 39.7294L2217.11 39.7294Z" fill="url(#paint1_radial)"/>
<path d="M269.72 520L269.72 520.23C269.72 523.87 265.87 527.72 262.23 527.72L262 527.72L262 528.28L262.23 528.28C265.87 528.28 269.72 532.13 269.72 535.77L269.72 536L270.28 536L270.28 535.77C270.28 532.13 274.13 528.28 277.77 528.28L278 528.28L278 527.72L277.77 527.72C274.13 527.72 270.28 523.87 270.28 520.23L270.28 520L269.72 520Z" fill="#00FFFF"/>
<path d="M1939.06 41.9999L1939.06 42.359C1939.06 48.0465 1933.05 54.0625 1927.36 54.0625L1927 54.0625L1927 54.9373L1927.36 54.9373C1933.05 54.9373 1939.06 60.9528 1939.06 66.6403L1939.06 66.9999L1939.94 66.9999L1939.94 66.6403C1939.94 60.9528 1945.95 54.9373 1951.64 54.9373L1952 54.9373L1952 54.0625L1951.64 54.0625C1945.95 54.0625 1939.94 48.0465 1939.94 42.359L1939.94 41.9999L1939.06 41.9999Z" fill="#00FFFF"/>
<g filter="url(#filter2_f)">
<path d="M2210.89 225L2210.89 225.503C2210.89 233.465 2202.47 241.887 2194.5 241.887L2194 241.887L2194 243.112L2194.5 243.112C2202.47 243.112 2210.89 251.534 2210.89 259.496L2210.89 260L2212.11 260L2212.11 259.496C2212.11 251.534 2220.53 243.112 2228.5 243.112L2229 243.112L2229 241.887L2228.5 241.887C2220.53 241.887 2212.11 233.465 2212.11 225.503L2212.11 225L2210.89 225Z" fill="#00FFFF"/>
</g>
<path d="M1884.72 433.999L1884.72 434.229C1884.72 437.869 1880.87 441.719 1877.23 441.719L1877 441.719L1877 442.279L1877.23 442.279C1880.87 442.279 1884.72 446.129 1884.72 449.769L1884.72 449.999L1885.28 449.999L1885.28 449.769C1885.28 446.129 1889.13 442.279 1892.77 442.279L1893 442.279L1893 441.719L1892.77 441.719C1889.13 441.719 1885.28 437.869 1885.28 434.229L1885.28 433.999L1884.72 433.999Z" fill="#00FFFF"/>
<path d="M62.72 110L62.72 110.23C62.72 113.87 58.87 117.72 55.23 117.72L55 117.72L55 118.28L55.23 118.28C58.87 118.28 62.72 122.13 62.72 125.77L62.72 126L63.28 126L63.28 125.77C63.28 122.13 67.13 118.28 70.77 118.28L71 118.28L71 117.72L70.77 117.72C67.13 117.72 63.28 113.87 63.28 110.23L63.28 110L62.72 110Z" fill="#00FFFF"/>
<path d="M67.72 49.9994L67.72 50.2292C67.72 53.8692 63.87 57.7194 60.23 57.7194L60 57.7194L60 58.2793L60.23 58.2793C63.87 58.2793 67.72 62.1292 67.72 65.7692L67.72 65.9994L68.28 65.9994L68.28 65.7692C68.28 62.1292 72.13 58.2793 75.77 58.2793L76 58.2793L76 57.7194L75.77 57.7194C72.13 57.7194 68.28 53.8692 68.28 50.2292L68.28 49.9994L67.72 49.9994Z" fill="#00D8D8"/>
<g filter="url(#filter3_f)">
<path d="M1084.58 334L1084.58 334.344C1084.58 339.804 1078.81 345.58 1073.35 345.58L1073 345.58L1073 346.419L1073.35 346.419C1078.81 346.419 1084.58 352.194 1084.58 357.654L1084.58 358L1085.42 358L1085.42 357.654C1085.42 352.194 1091.19 346.419 1096.65 346.419L1097 346.419L1097 345.58L1096.65 345.58C1091.19 345.58 1085.42 339.804 1085.42 334.344L1085.42 334L1084.58 334Z" fill="#393939"/>
</g>
<path d="M854.58 397L854.58 397.344C854.58 402.804 848.805 408.58 843.345 408.58L843 408.58L843 409.42L843.345 409.42C848.805 409.42 854.58 415.195 854.58 420.655L854.58 421L855.42 421L855.42 420.655C855.42 415.195 861.195 409.42 866.655 409.42L867 409.42L867 408.58L866.655 408.58C861.195 408.58 855.42 402.804 855.42 397.344L855.42 397L854.58 397Z" fill="#393939"/>
<g filter="url(#filter4_f)">
<path d="M498.58 544L498.58 544.345C498.58 549.805 492.805 555.58 487.345 555.58L487 555.58L487 556.42L487.345 556.42C492.805 556.42 498.58 562.195 498.58 567.655L498.58 568L499.42 568L499.42 567.655C499.42 562.195 505.195 556.42 510.655 556.42L511 556.42L511 555.58L510.655 555.58C505.195 555.58 499.42 549.805 499.42 544.345L499.42 544L498.58 544Z" fill="#393939"/>
</g>
<path d="M2142.58 282L2142.58 282.344C2142.58 287.804 2136.81 293.58 2131.35 293.58L2131 293.58L2131 294.42L2131.35 294.42C2136.81 294.42 2142.58 300.195 2142.58 305.655L2142.58 306L2143.42 306L2143.42 305.655C2143.42 300.195 2149.19 294.42 2154.65 294.42L2155 294.42L2155 293.58L2154.65 293.58C2149.19 293.58 2143.42 287.804 2143.42 282.344L2143.42 282L2142.58 282Z" fill="#393939"/>
<path d="M333.58 213L333.58 213.345C333.58 218.805 327.805 224.58 322.345 224.58L322 224.58L322 225.42L322.345 225.42C327.805 225.42 333.58 231.195 333.58 236.655L333.58 237L334.42 237L334.42 236.655C334.42 231.195 340.195 225.42 345.655 225.42L346 225.42L346 224.58L345.655 224.58C340.195 224.58 334.42 218.805 334.42 213.345L334.42 213L333.58 213Z" fill="#393939"/>
<path d="M1287.58 477L1287.58 477.345C1287.58 482.805 1281.81 488.58 1276.35 488.58L1276 488.58L1276 489.42L1276.35 489.42C1281.81 489.42 1287.58 495.195 1287.58 500.655L1287.58 501L1288.42 501L1288.42 500.655C1288.42 495.195 1294.19 489.42 1299.65 489.42L1300 489.42L1300 488.58L1299.65 488.58C1294.19 488.58 1288.42 482.805 1288.42 477.345L1288.42 477L1287.58 477Z" fill="#393939"/>
<path d="M1003.58 97.9994L1003.58 98.3441C1003.58 103.804 997.805 109.579 992.345 109.579L992 109.579L992 110.419L992.345 110.419C997.805 110.419 1003.58 116.194 1003.58 121.654L1003.58 121.999L1004.42 121.999L1004.42 121.654C1004.42 116.194 1010.19 110.419 1015.65 110.419L1016 110.419L1016 109.579L1015.65 109.579C1010.19 109.579 1004.42 103.804 1004.42 98.3441L1004.42 97.9994L1003.58 97.9994Z" fill="#393939"/>
<path d="M2005.58 118.999L2005.58 119.344C2005.58 124.804 1999.81 130.579 1994.35 130.579L1994 130.579L1994 131.419L1994.35 131.419C1999.81 131.419 2005.58 137.194 2005.58 142.654L2005.58 142.999L2006.42 142.999L2006.42 142.654C2006.42 137.194 2012.19 131.419 2017.65 131.419L2018 131.419L2018 130.579L2017.65 130.579C2012.19 130.579 2006.42 124.804 2006.42 119.344L2006.42 118.999L2005.58 118.999Z" fill="#393939"/>
<path d="M2005.58 307L2005.58 307.345C2005.58 312.805 1999.81 318.58 1994.35 318.58L1994 318.58L1994 319.42L1994.35 319.42C1999.81 319.42 2005.58 325.195 2005.58 330.655L2005.58 331L2006.42 331L2006.42 330.655C2006.42 325.195 2012.19 319.42 2017.65 319.42L2018 319.42L2018 318.58L2017.65 318.58C2012.19 318.58 2006.42 312.805 2006.42 307.345L2006.42 307L2005.58 307Z" fill="#959595"/>
<path d="M1114.58 119L1114.58 119.345C1114.58 124.805 1108.81 130.58 1103.35 130.58L1103 130.58L1103 131.42L1103.35 131.42C1108.81 131.42 1114.58 137.195 1114.58 142.655L1114.58 143L1115.42 143L1115.42 142.655C1115.42 137.195 1121.19 131.42 1126.65 131.42L1127 131.42L1127 130.58L1126.65 130.58C1121.19 130.58 1115.42 124.805 1115.42 119.345L1115.42 119L1114.58 119Z" fill="#959595"/>
<path d="M1356.58 104L1356.58 104.345C1356.58 109.805 1350.81 115.58 1345.35 115.58L1345 115.58L1345 116.42L1345.35 116.42C1350.81 116.42 1356.58 122.195 1356.58 127.655L1356.58 128L1357.42 128L1357.42 127.655C1357.42 122.195 1363.19 116.42 1368.65 116.42L1369 116.42L1369 115.58L1368.65 115.58C1363.19 115.58 1357.42 109.805 1357.42 104.345L1357.42 104L1356.58 104Z" fill="#959595"/>
<path d="M1047.58 47.9999L1047.58 48.3446C1047.58 53.8046 1041.81 59.58 1036.35 59.58L1036 59.58L1036 60.4198L1036.35 60.4198C1041.81 60.4198 1047.58 66.1947 1047.58 71.6547L1047.58 71.9999L1048.42 71.9999L1048.42 71.6547C1048.42 66.1947 1054.19 60.4198 1059.65 60.4198L1060 60.4198L1060 59.58L1059.65 59.58C1054.19 59.58 1048.42 53.8046 1048.42 48.3446L1048.42 47.9999L1047.58 47.9999Z" fill="#959595"/>
<path d="M179.58 178L179.58 178.345C179.58 183.805 173.805 189.58 168.345 189.58L168 189.58L168 190.42L168.345 190.42C173.805 190.42 179.58 196.195 179.58 201.655L179.58 202L180.42 202L180.42 201.655C180.42 196.195 186.195 190.42 191.655 190.42L192 190.42L192 189.58L191.655 189.58C186.195 189.58 180.42 183.805 180.42 178.345L180.42 178L179.58 178Z" fill="#959595"/>
<path d="M723.58 94.9994L723.58 95.3441C723.58 100.804 717.805 106.579 712.345 106.579L712 106.579L712 107.419L712.345 107.419C717.805 107.419 723.58 113.194 723.58 118.654L723.58 118.999L724.42 118.999L724.42 118.654C724.42 113.194 730.195 107.419 735.655 107.419L736 107.419L736 106.579L735.655 106.579C730.195 106.579 724.42 100.804 724.42 95.3441L724.42 94.9994L723.58 94.9994Z" fill="#6D6D6D"/>
<g filter="url(#filter5_f)">
<path d="M2105.58 501L2105.58 501.345C2105.58 506.805 2099.81 512.58 2094.35 512.58L2094 512.58L2094 513.42L2094.35 513.42C2099.81 513.42 2105.58 519.195 2105.58 524.655L2105.58 525L2106.42 525L2106.42 524.655C2106.42 519.195 2112.19 513.42 2117.65 513.42L2118 513.42L2118 512.58L2117.65 512.58C2112.19 512.58 2106.42 506.805 2106.42 501.345L2106.42 501L2105.58 501Z" fill="#6D6D6D"/>
</g>
<g filter="url(#filter6_f)">
<path d="M1733.58 479L1733.58 479.345C1733.58 484.805 1727.81 490.58 1722.35 490.58L1722 490.58L1722 491.42L1722.35 491.42C1727.81 491.42 1733.58 497.195 1733.58 502.655L1733.58 503L1734.42 503L1734.42 502.655C1734.42 497.195 1740.19 491.42 1745.65 491.42L1746 491.42L1746 490.58L1745.65 490.58C1740.19 490.58 1734.42 484.805 1734.42 479.345L1734.42 479L1733.58 479Z" fill="#6D6D6D"/>
</g>
<g filter="url(#filter7_f)">
<path d="M1400.58 512L1400.58 512.345C1400.58 517.805 1394.81 523.58 1389.35 523.58L1389 523.58L1389 524.42L1389.35 524.42C1394.81 524.42 1400.58 530.195 1400.58 535.655L1400.58 536L1401.42 536L1401.42 535.655C1401.42 530.195 1407.19 524.42 1412.65 524.42L1413 524.42L1413 523.58L1412.65 523.58C1407.19 523.58 1401.42 517.805 1401.42 512.345L1401.42 512L1400.58 512Z" fill="#6D6D6D"/>
</g>
<g opacity="0.69" filter="url(#filter8_f)">
<path d="M83.58 316L83.58 316.344C83.58 321.804 77.805 327.58 72.345 327.58L72 327.58L72 328.419L72.345 328.419C77.805 328.419 83.58 334.194 83.58 339.654L83.58 340L84.42 340L84.42 339.654C84.42 334.194 90.195 328.419 95.655 328.419L96 328.419L96 327.58L95.655 327.58C90.195 327.58 84.42 321.804 84.42 316.344L84.42 316L83.58 316Z" fill="#6D6D6D"/>
</g>
</g>
<defs>
<filter id="filter0_f" x="839" y="41.9999" width="40.4078" height="40.4078" filterUnits="userSpaceOnUse" color-interpolation-filters="sRGB">
<feFlood flood-opacity="0" result="BackgroundImageFix"/>
<feBlend mode="normal" in="SourceGraphic" in2="BackgroundImageFix" result="shape"/>
<feGaussianBlur stdDeviation="2" result="effect1_foregroundBlur"/>
</filter>
<filter id="filter1_f" x="138" y="508" width="40.4078" height="40.4078" filterUnits="userSpaceOnUse" color-interpolation-filters="sRGB">
<feFlood flood-opacity="0" result="BackgroundImageFix"/>
<feBlend mode="normal" in="SourceGraphic" in2="BackgroundImageFix" result="shape"/>
<feGaussianBlur stdDeviation="2" result="effect1_foregroundBlur"/>
</filter>
<filter id="filter2_f" x="2190" y="221" width="43" height="43" filterUnits="userSpaceOnUse" color-interpolation-filters="sRGB">
<feFlood flood-opacity="0" result="BackgroundImageFix"/>
<feBlend mode="normal" in="SourceGraphic" in2="BackgroundImageFix" result="shape"/>
<feGaussianBlur stdDeviation="2" result="effect1_foregroundBlur"/>
</filter>
<filter id="filter3_f" x="1066" y="327" width="38" height="38" filterUnits="userSpaceOnUse" color-interpolation-filters="sRGB">
<feFlood flood-opacity="0" result="BackgroundImageFix"/>
<feBlend mode="normal" in="SourceGraphic" in2="BackgroundImageFix" result="shape"/>
<feGaussianBlur stdDeviation="3.5" result="effect1_foregroundBlur"/>
</filter>
<filter id="filter4_f" x="483" y="540" width="32" height="32" filterUnits="userSpaceOnUse" color-interpolation-filters="sRGB">
<feFlood flood-opacity="0" result="BackgroundImageFix"/>
<feBlend mode="normal" in="SourceGraphic" in2="BackgroundImageFix" result="shape"/>
<feGaussianBlur stdDeviation="2" result="effect1_foregroundBlur"/>
</filter>
<filter id="filter5_f" x="2090" y="497" width="32" height="32" filterUnits="userSpaceOnUse" color-interpolation-filters="sRGB">
<feFlood flood-opacity="0" result="BackgroundImageFix"/>
<feBlend mode="normal" in="SourceGraphic" in2="BackgroundImageFix" result="shape"/>
<feGaussianBlur stdDeviation="2" result="effect1_foregroundBlur"/>
</filter>
<filter id="filter6_f" x="1718" y="475" width="32" height="32" filterUnits="userSpaceOnUse" color-interpolation-filters="sRGB">
<feFlood flood-opacity="0" result="BackgroundImageFix"/>
<feBlend mode="normal" in="SourceGraphic" in2="BackgroundImageFix" result="shape"/>
<feGaussianBlur stdDeviation="2" result="effect1_foregroundBlur"/>
</filter>
<filter id="filter7_f" x="1385" y="508" width="32" height="32" filterUnits="userSpaceOnUse" color-interpolation-filters="sRGB">
<feFlood flood-opacity="0" result="BackgroundImageFix"/>
<feBlend mode="normal" in="SourceGraphic" in2="BackgroundImageFix" result="shape"/>
<feGaussianBlur stdDeviation="2" result="effect1_foregroundBlur"/>
</filter>
<filter id="filter8_f" x="68" y="312" width="32" height="32" filterUnits="userSpaceOnUse" color-interpolation-filters="sRGB">
<feFlood flood-opacity="0" result="BackgroundImageFix"/>
<feBlend mode="normal" in="SourceGraphic" in2="BackgroundImageFix" result="shape"/>
<feGaussianBlur stdDeviation="2" result="effect1_foregroundBlur"/>
</filter>
<radialGradient id="paint0_radial" cx="0" cy="0" r="1" gradientUnits="userSpaceOnUse" gradientTransform="translate(1194.57 478.571) rotate(-90) scale(22.5669)">
<stop stop-color="#00FFFF"/>
<stop offset="0.3641" stop-color="#00FFFF"/>
<stop offset="0.4" stop-color="#00FFFF"/>
<stop offset="0.4584" stop-color="#00FCFC" stop-opacity="0.8422"/>
<stop offset="0.5064" stop-color="#00F2F2" stop-opacity="0.7124"/>
<stop offset="0.5508" stop-color="#00E0E0" stop-opacity="0.5924"/>
<stop offset="0.593" stop-color="#00C8C8" stop-opacity="0.4783"/>
<stop offset="0.6337" stop-color="#00A9A9" stop-opacity="0.3684"/>
<stop offset="0.6732" stop-color="#008282" stop-opacity="0.2616"/>
<stop offset="0.7117" stop-color="#005555" stop-opacity="0.1574"/>
<stop offset="0.7486" stop-color="#002121" stop-opacity="0.0578"/>
<stop offset="0.77" stop-opacity="0"/>
</radialGradient>
<radialGradient id="paint1_radial" cx="0" cy="0" r="1" gradientUnits="userSpaceOnUse" gradientTransform="translate(2216.57 55.5704) rotate(-90) scale(22.5669)">
<stop stop-color="#00FFFF"/>
<stop offset="0.3641" stop-color="#00FFFF"/>
<stop offset="0.4" stop-color="#00FFFF"/>
<stop offset="0.4584" stop-color="#00FCFC" stop-opacity="0.8422"/>
<stop offset="0.5064" stop-color="#00F2F2" stop-opacity="0.7124"/>
<stop offset="0.5508" stop-color="#00E0E0" stop-opacity="0.5924"/>
<stop offset="0.593" stop-color="#00C8C8" stop-opacity="0.4783"/>
<stop offset="0.6337" stop-color="#00A9A9" stop-opacity="0.3684"/>
<stop offset="0.6732" stop-color="#008282" stop-opacity="0.2616"/>
<stop offset="0.7117" stop-color="#005555" stop-opacity="0.1574"/>
<stop offset="0.7486" stop-color="#002121" stop-opacity="0.0578"/>
<stop offset="0.77" stop-opacity="0"/>
</radialGradient>
</defs>
</svg>
