<svg width="142" height="142" viewBox="0 0 142 142" fill="none" xmlns="http://www.w3.org/2000/svg">
<g filter="url(#filter0_f)">
<rect x="57" y="55.0008" width="28" height="38" fill="#00494C"/>
<rect x="89" y="94.0008" width="26" height="24" fill="#00494C"/>
<rect x="89" y="26.0008" width="26" height="18" fill="#00494C"/>
<rect x="26" y="99.0008" width="24" height="18" fill="#00494C"/>
<rect x="26" y="93.0008" width="18" height="18" fill="#00494C"/>
<path d="M27 35.5008L39 27.0008L44 26.0008L50 28.5008L55.5 31.5008L62.5 39.0008L62 47.0008L27.5 46.0008L27 35.5008Z" fill="#00494C"/>
<path d="M85.0625 53.8133H56.9375C56.5231 53.8133 56.1257 53.9779 55.8326 54.2709C55.5396 54.5639 55.375 54.9614 55.375 55.3758V92.8758C55.375 93.2902 55.5396 93.6876 55.8326 93.9806C56.1257 94.2737 56.5231 94.4383 56.9375 94.4383H85.0625C85.4769 94.4383 85.8743 94.2737 86.1674 93.9806C86.4604 93.6876 86.625 93.2902 86.625 92.8758V55.3758C86.625 54.9614 86.4604 54.5639 86.1674 54.2709C85.8743 53.9779 85.4769 53.8133 85.0625 53.8133ZM83.5 91.3133H58.5V81.9383H83.5V91.3133ZM83.5 78.8133H58.5V69.4383H83.5V78.8133ZM83.5 66.3133H58.5V56.9383H83.5V66.3133Z" fill="#1EC1CB"/>
<path d="M113.188 24.1258H91.3125C90.0704 24.1295 88.8803 24.6246 88.002 25.5028C87.1238 26.3811 86.6287 27.5712 86.625 28.8133V41.3133C86.6287 42.5554 87.1238 43.7455 88.002 44.6238C88.8803 45.502 90.0704 45.9971 91.3125 46.0008H97.5625V49.1258H94.4375V52.2508H110.062V49.1258H106.938V46.0008H113.188C114.43 45.9971 115.62 45.502 116.498 44.6238C117.376 43.7455 117.871 42.5554 117.875 41.3133V28.8133C117.871 27.5712 117.376 26.3811 116.498 25.5028C115.62 24.6246 114.43 24.1295 113.188 24.1258ZM103.812 49.1258H100.688V46.0008H103.812V49.1258ZM114.75 41.3133C114.75 41.7277 114.585 42.1251 114.292 42.4182C113.999 42.7112 113.602 42.8758 113.188 42.8758H91.3125C90.8981 42.8758 90.5007 42.7112 90.2076 42.4182C89.9146 42.1251 89.75 41.7277 89.75 41.3133V39.7508H114.75V41.3133ZM114.75 36.6258H89.75V28.8133C89.75 28.3989 89.9146 28.0015 90.2076 27.7085C90.5007 27.4154 90.8981 27.2508 91.3125 27.2508H113.188C113.602 27.2508 113.999 27.4154 114.292 27.7085C114.585 28.0015 114.75 28.3989 114.75 28.8133V36.6258Z" fill="#1EC1CB"/>
<path d="M116.312 108.501V97.5633C116.309 96.3212 115.814 95.1311 114.935 94.2528C114.057 93.3746 112.867 92.8795 111.625 92.8758H92.875C91.6329 92.8795 90.4428 93.3746 89.5645 94.2528C88.6863 95.1311 88.1912 96.3212 88.1875 97.5633V108.501C87.7731 108.501 87.3757 108.665 87.0826 108.958C86.7896 109.251 86.625 109.649 86.625 110.063V113.188C86.6287 114.43 87.1238 115.62 88.002 116.499C88.8803 117.377 90.0704 117.872 91.3125 117.876H113.188C114.43 117.872 115.62 117.377 116.498 116.499C117.376 115.62 117.871 114.43 117.875 113.188V110.063C117.875 109.649 117.71 109.251 117.417 108.958C117.124 108.665 116.727 108.501 116.312 108.501ZM91.3125 97.5633C91.3125 97.1489 91.4771 96.7515 91.7701 96.4584C92.0632 96.1654 92.4606 96.0008 92.875 96.0008H111.625C112.039 96.0008 112.437 96.1654 112.73 96.4584C113.023 96.7515 113.188 97.1489 113.188 97.5633V108.501H91.3125V97.5633ZM114.75 113.188C114.75 113.603 114.585 114 114.292 114.293C113.999 114.586 113.602 114.751 113.188 114.751H91.3125C90.8981 114.751 90.5007 114.586 90.2076 114.293C89.9146 114 89.75 113.603 89.75 113.188V111.626H114.75V113.188Z" fill="#1EC1CB"/>
<path d="M47.5625 96.0008H46V94.4383C45.9963 93.1962 45.5012 92.0061 44.623 91.1278C43.7447 90.2496 42.5546 89.7545 41.3125 89.7508H28.8125C27.5704 89.7545 26.3803 90.2496 25.502 91.1278C24.6238 92.0061 24.1287 93.1962 24.125 94.4383V113.188C24.1287 114.43 24.6238 115.62 25.502 116.499C26.3803 117.377 27.5704 117.872 28.8125 117.876H47.5625C48.8046 117.872 49.9947 117.377 50.873 116.499C51.7512 115.62 52.2463 114.43 52.25 113.188V100.688C52.2463 99.4462 51.7512 98.2561 50.873 97.3778C49.9947 96.4996 48.8046 96.0045 47.5625 96.0008ZM36.9062 114.751H28.8125C28.3981 114.751 28.0007 114.586 27.7076 114.293C27.4146 114 27.25 113.603 27.25 113.188V94.4383C27.25 94.0239 27.4146 93.6265 27.7076 93.3334C28.0007 93.0404 28.3981 92.8758 28.8125 92.8758H41.3125C41.7269 92.8758 42.1243 93.0404 42.4174 93.3334C42.7104 93.6265 42.875 94.0239 42.875 94.4383V96.0008H41.3125C40.0704 96.0045 38.8803 96.4996 38.002 97.3778C37.1238 98.2561 36.6287 99.4462 36.625 100.688V113.188C36.6292 113.721 36.7243 114.25 36.9062 114.751ZM49.125 113.188C49.125 113.603 48.9604 114 48.6674 114.293C48.3743 114.586 47.9769 114.751 47.5625 114.751H41.3125C40.8981 114.751 40.5007 114.586 40.2076 114.293C39.9146 114 39.75 113.603 39.75 113.188V100.688C39.75 100.274 39.9146 99.8765 40.2076 99.5834C40.5007 99.2904 40.8981 99.1258 41.3125 99.1258H47.5625C47.9769 99.1258 48.3743 99.2904 48.6674 99.5834C48.9604 99.8765 49.125 100.274 49.125 100.688V113.188Z" fill="#1EC1CB"/>
<path d="M58.3759 33.6258C58.1781 32.5543 57.7577 31.5363 57.1419 30.6375C56.526 29.7387 55.7285 28.979 54.8008 28.4077C53.8731 27.8363 52.8358 27.466 51.756 27.3205C50.6762 27.1751 49.5779 27.2578 48.5321 27.5633C47.6629 26.4865 46.563 25.6186 45.3136 25.0237C44.0642 24.4287 42.6972 24.1219 41.3134 24.1258C39.3649 24.1316 37.4663 24.7419 35.8794 25.8726C34.2925 27.0033 33.0957 28.5985 32.454 30.4383C30.08 30.7137 27.9009 31.8852 26.3618 33.7136C24.8228 35.542 24.0402 37.8891 24.1739 40.2752C24.3075 42.6613 25.3474 44.9063 27.081 46.5514C28.8146 48.1964 31.111 49.1173 33.5009 49.1258H56.9384C58.8934 49.1374 60.7818 48.4155 62.2306 47.1027C63.6793 45.7899 64.5832 43.9816 64.7638 42.0349C64.9443 40.0881 64.3884 38.1444 63.2057 36.5876C62.0231 35.0308 60.2997 33.9739 58.3759 33.6258ZM56.9384 46.0008H33.5009C31.8618 45.9875 30.2932 45.3319 29.1324 44.1746C27.9715 43.0174 27.3109 41.451 27.2924 39.8119C27.274 38.1729 27.8993 36.592 29.0339 35.409C30.1685 34.226 31.7218 33.5352 33.3602 33.4852C33.4423 33.5042 33.526 33.5147 33.6102 33.5164C33.9777 33.5247 34.3366 33.4043 34.6248 33.1761C34.913 32.9478 35.1123 32.6261 35.1884 32.2664C35.4342 31.0332 36.0473 29.9031 36.947 29.0246C37.8468 28.1461 38.9912 27.5602 40.2299 27.3439C41.4687 27.1276 42.7439 27.291 43.8882 27.8125C45.0324 28.3341 45.9922 29.1895 46.6415 30.2664C46.8386 30.6035 47.1569 30.8527 47.5315 30.963C47.9061 31.0734 48.3087 31.0366 48.6571 30.8602C49.369 30.5069 50.1596 30.342 50.9534 30.3811C51.7471 30.4203 52.5176 30.6621 53.1914 31.0836C53.8652 31.5051 54.4197 32.0922 54.8021 32.7888C55.1845 33.4855 55.382 34.2686 55.3759 35.0633C55.3759 35.4777 55.5405 35.8751 55.8335 36.1681C56.1265 36.4612 56.524 36.6258 56.9384 36.6258C58.1816 36.6258 59.3738 37.1196 60.2529 37.9987C61.132 38.8778 61.6259 40.0701 61.6259 41.3133C61.6259 42.5565 61.132 43.7488 60.2529 44.6278C59.3738 45.5069 58.1816 46.0008 56.9384 46.0008Z" fill="#1EC1CB"/>
<path d="M61.625 60.0633H64.75V63.1883H61.625V60.0633Z" fill="#1EC1CB"/>
<path d="M69.4375 60.0633H72.5625V63.1883H69.4375V60.0633Z" fill="#1EC1CB"/>
<path d="M77.25 60.0633H80.375V63.1883H77.25V60.0633Z" fill="#1EC1CB"/>
<path d="M61.625 72.5633H64.75V75.6883H61.625V72.5633Z" fill="#1EC1CB"/>
<path d="M69.4375 72.5633H72.5625V75.6883H69.4375V72.5633Z" fill="#1EC1CB"/>
<path d="M77.25 72.5633H80.375V75.6883H77.25V72.5633Z" fill="#1EC1CB"/>
<path d="M61.625 85.0633H64.75V88.1883H61.625V85.0633Z" fill="#1EC1CB"/>
<path d="M69.4375 85.0633H72.5625V88.1883H69.4375V85.0633Z" fill="#1EC1CB"/>
<path d="M77.25 85.0633H80.375V88.1883H77.25V85.0633Z" fill="#1EC1CB"/>
<path d="M103.812 66.3133V55.3758H100.688V64.7508H89.75V67.8758H102.25C102.664 67.8758 103.062 67.7112 103.355 67.4181C103.648 67.1251 103.812 66.7277 103.812 66.3133Z" fill="#1EC1CB"/>
<path d="M89.75 77.2508H100.688V89.7508H103.812V75.6883C103.812 75.2739 103.648 74.8764 103.355 74.5834C103.062 74.2904 102.664 74.1258 102.25 74.1258H89.75V77.2508Z" fill="#1EC1CB"/>
<path d="M41.3125 52.2508H38.1875V66.3133C38.1875 66.7277 38.3521 67.1251 38.6451 67.4181C38.9382 67.7112 39.3356 67.8758 39.75 67.8758H52.25V64.7508H41.3125V52.2508Z" fill="#1EC1CB"/>
<path d="M38.1875 75.6883V86.6258H41.3125V77.2508H52.25V74.1258H39.75C39.3356 74.1258 38.9382 74.2904 38.6451 74.5834C38.3521 74.8764 38.1875 75.2739 38.1875 75.6883Z" fill="#1EC1CB"/>
</g>
<rect x="57" y="55.0008" width="28" height="38" fill="#00494C"/>
<rect x="89" y="94.0008" width="26" height="24" fill="#00494C"/>
<rect x="89" y="26.0008" width="26" height="18" fill="#00494C"/>
<rect x="26" y="99.0008" width="24" height="18" fill="#00494C"/>
<rect x="26" y="93.0008" width="18" height="18" fill="#00494C"/>
<path d="M27 35.5008L39 27.0008L44 26.0008L50 28.5008L55.5 31.5008L62.5 39.0008L62 47.0008L27.5 46.0008L27 35.5008Z" fill="#00494C"/>
<path d="M85.0625 53.8133H56.9375C56.5231 53.8133 56.1257 53.9779 55.8326 54.2709C55.5396 54.5639 55.375 54.9614 55.375 55.3758V92.8758C55.375 93.2902 55.5396 93.6876 55.8326 93.9806C56.1257 94.2737 56.5231 94.4383 56.9375 94.4383H85.0625C85.4769 94.4383 85.8743 94.2737 86.1674 93.9806C86.4604 93.6876 86.625 93.2902 86.625 92.8758V55.3758C86.625 54.9614 86.4604 54.5639 86.1674 54.2709C85.8743 53.9779 85.4769 53.8133 85.0625 53.8133ZM83.5 91.3133H58.5V81.9383H83.5V91.3133ZM83.5 78.8133H58.5V69.4383H83.5V78.8133ZM83.5 66.3133H58.5V56.9383H83.5V66.3133Z" fill="#1EC1CB"/>
<path d="M113.188 24.1258H91.3125C90.0704 24.1295 88.8803 24.6246 88.002 25.5028C87.1238 26.3811 86.6287 27.5712 86.625 28.8133V41.3133C86.6287 42.5554 87.1238 43.7455 88.002 44.6238C88.8803 45.502 90.0704 45.9971 91.3125 46.0008H97.5625V49.1258H94.4375V52.2508H110.062V49.1258H106.938V46.0008H113.188C114.43 45.9971 115.62 45.502 116.498 44.6238C117.376 43.7455 117.871 42.5554 117.875 41.3133V28.8133C117.871 27.5712 117.376 26.3811 116.498 25.5028C115.62 24.6246 114.43 24.1295 113.188 24.1258ZM103.812 49.1258H100.688V46.0008H103.812V49.1258ZM114.75 41.3133C114.75 41.7277 114.585 42.1251 114.292 42.4182C113.999 42.7112 113.602 42.8758 113.188 42.8758H91.3125C90.8981 42.8758 90.5007 42.7112 90.2076 42.4182C89.9146 42.1251 89.75 41.7277 89.75 41.3133V39.7508H114.75V41.3133ZM114.75 36.6258H89.75V28.8133C89.75 28.3989 89.9146 28.0015 90.2076 27.7085C90.5007 27.4154 90.8981 27.2508 91.3125 27.2508H113.188C113.602 27.2508 113.999 27.4154 114.292 27.7085C114.585 28.0015 114.75 28.3989 114.75 28.8133V36.6258Z" fill="#1EC1CB"/>
<path d="M116.312 108.501V97.5633C116.309 96.3212 115.814 95.1311 114.935 94.2528C114.057 93.3746 112.867 92.8795 111.625 92.8758H92.875C91.6329 92.8795 90.4428 93.3746 89.5645 94.2528C88.6863 95.1311 88.1912 96.3212 88.1875 97.5633V108.501C87.7731 108.501 87.3757 108.665 87.0826 108.958C86.7896 109.251 86.625 109.649 86.625 110.063V113.188C86.6287 114.43 87.1238 115.62 88.002 116.499C88.8803 117.377 90.0704 117.872 91.3125 117.876H113.188C114.43 117.872 115.62 117.377 116.498 116.499C117.376 115.62 117.871 114.43 117.875 113.188V110.063C117.875 109.649 117.71 109.251 117.417 108.958C117.124 108.665 116.727 108.501 116.312 108.501ZM91.3125 97.5633C91.3125 97.1489 91.4771 96.7515 91.7701 96.4584C92.0632 96.1654 92.4606 96.0008 92.875 96.0008H111.625C112.039 96.0008 112.437 96.1654 112.73 96.4584C113.023 96.7515 113.188 97.1489 113.188 97.5633V108.501H91.3125V97.5633ZM114.75 113.188C114.75 113.603 114.585 114 114.292 114.293C113.999 114.586 113.602 114.751 113.188 114.751H91.3125C90.8981 114.751 90.5007 114.586 90.2076 114.293C89.9146 114 89.75 113.603 89.75 113.188V111.626H114.75V113.188Z" fill="#1EC1CB"/>
<path d="M47.5625 96.0008H46V94.4383C45.9963 93.1962 45.5012 92.0061 44.623 91.1278C43.7447 90.2496 42.5546 89.7545 41.3125 89.7508H28.8125C27.5704 89.7545 26.3803 90.2496 25.502 91.1278C24.6238 92.0061 24.1287 93.1962 24.125 94.4383V113.188C24.1287 114.43 24.6238 115.62 25.502 116.499C26.3803 117.377 27.5704 117.872 28.8125 117.876H47.5625C48.8046 117.872 49.9947 117.377 50.873 116.499C51.7512 115.62 52.2463 114.43 52.25 113.188V100.688C52.2463 99.4462 51.7512 98.2561 50.873 97.3778C49.9947 96.4996 48.8046 96.0045 47.5625 96.0008ZM36.9062 114.751H28.8125C28.3981 114.751 28.0007 114.586 27.7076 114.293C27.4146 114 27.25 113.603 27.25 113.188V94.4383C27.25 94.0239 27.4146 93.6265 27.7076 93.3334C28.0007 93.0404 28.3981 92.8758 28.8125 92.8758H41.3125C41.7269 92.8758 42.1243 93.0404 42.4174 93.3334C42.7104 93.6265 42.875 94.0239 42.875 94.4383V96.0008H41.3125C40.0704 96.0045 38.8803 96.4996 38.002 97.3778C37.1238 98.2561 36.6287 99.4462 36.625 100.688V113.188C36.6292 113.721 36.7243 114.25 36.9062 114.751ZM49.125 113.188C49.125 113.603 48.9604 114 48.6674 114.293C48.3743 114.586 47.9769 114.751 47.5625 114.751H41.3125C40.8981 114.751 40.5007 114.586 40.2076 114.293C39.9146 114 39.75 113.603 39.75 113.188V100.688C39.75 100.274 39.9146 99.8765 40.2076 99.5834C40.5007 99.2904 40.8981 99.1258 41.3125 99.1258H47.5625C47.9769 99.1258 48.3743 99.2904 48.6674 99.5834C48.9604 99.8765 49.125 100.274 49.125 100.688V113.188Z" fill="#1EC1CB"/>
<path d="M58.3759 33.6258C58.1781 32.5543 57.7577 31.5363 57.1419 30.6375C56.526 29.7387 55.7285 28.979 54.8008 28.4077C53.8731 27.8363 52.8358 27.466 51.756 27.3205C50.6762 27.1751 49.5779 27.2578 48.5321 27.5633C47.6629 26.4865 46.563 25.6186 45.3136 25.0237C44.0642 24.4287 42.6972 24.1219 41.3134 24.1258C39.3649 24.1316 37.4663 24.7419 35.8794 25.8726C34.2925 27.0033 33.0957 28.5985 32.454 30.4383C30.08 30.7137 27.9009 31.8852 26.3618 33.7136C24.8228 35.542 24.0402 37.8891 24.1739 40.2752C24.3075 42.6613 25.3474 44.9063 27.081 46.5514C28.8146 48.1964 31.111 49.1173 33.5009 49.1258H56.9384C58.8934 49.1374 60.7818 48.4155 62.2306 47.1027C63.6793 45.7899 64.5832 43.9816 64.7638 42.0349C64.9443 40.0881 64.3884 38.1444 63.2057 36.5876C62.0231 35.0308 60.2997 33.9739 58.3759 33.6258ZM56.9384 46.0008H33.5009C31.8618 45.9875 30.2932 45.3319 29.1324 44.1746C27.9715 43.0174 27.3109 41.451 27.2924 39.8119C27.274 38.1729 27.8993 36.592 29.0339 35.409C30.1685 34.226 31.7218 33.5352 33.3602 33.4852C33.4423 33.5042 33.526 33.5147 33.6102 33.5164C33.9777 33.5247 34.3366 33.4043 34.6248 33.1761C34.913 32.9478 35.1123 32.6261 35.1884 32.2664C35.4342 31.0332 36.0473 29.9031 36.947 29.0246C37.8468 28.1461 38.9912 27.5602 40.2299 27.3439C41.4687 27.1276 42.7439 27.291 43.8882 27.8125C45.0324 28.3341 45.9922 29.1895 46.6415 30.2664C46.8386 30.6035 47.1569 30.8527 47.5315 30.963C47.9061 31.0734 48.3087 31.0366 48.6571 30.8602C49.369 30.5069 50.1596 30.342 50.9534 30.3811C51.7471 30.4203 52.5176 30.6621 53.1914 31.0836C53.8652 31.5051 54.4197 32.0922 54.8021 32.7888C55.1845 33.4855 55.382 34.2686 55.3759 35.0633C55.3759 35.4777 55.5405 35.8751 55.8335 36.1681C56.1265 36.4612 56.524 36.6258 56.9384 36.6258C58.1816 36.6258 59.3738 37.1196 60.2529 37.9987C61.132 38.8778 61.6259 40.0701 61.6259 41.3133C61.6259 42.5565 61.132 43.7488 60.2529 44.6278C59.3738 45.5069 58.1816 46.0008 56.9384 46.0008Z" fill="#1EC1CB"/>
<path d="M61.625 60.0633H64.75V63.1883H61.625V60.0633Z" fill="#1EC1CB"/>
<path d="M69.4375 60.0633H72.5625V63.1883H69.4375V60.0633Z" fill="#1EC1CB"/>
<path d="M77.25 60.0633H80.375V63.1883H77.25V60.0633Z" fill="#1EC1CB"/>
<path d="M61.625 72.5633H64.75V75.6883H61.625V72.5633Z" fill="#1EC1CB"/>
<path d="M69.4375 72.5633H72.5625V75.6883H69.4375V72.5633Z" fill="#1EC1CB"/>
<path d="M77.25 72.5633H80.375V75.6883H77.25V72.5633Z" fill="#1EC1CB"/>
<path d="M61.625 85.0633H64.75V88.1883H61.625V85.0633Z" fill="#1EC1CB"/>
<path d="M69.4375 85.0633H72.5625V88.1883H69.4375V85.0633Z" fill="#1EC1CB"/>
<path d="M77.25 85.0633H80.375V88.1883H77.25V85.0633Z" fill="#1EC1CB"/>
<path d="M103.812 66.3133V55.3758H100.688V64.7508H89.75V67.8758H102.25C102.664 67.8758 103.062 67.7112 103.355 67.4181C103.648 67.1251 103.812 66.7277 103.812 66.3133Z" fill="#1EC1CB"/>
<path d="M89.75 77.2508H100.688V89.7508H103.812V75.6883C103.812 75.2739 103.648 74.8764 103.355 74.5834C103.062 74.2904 102.664 74.1258 102.25 74.1258H89.75V77.2508Z" fill="#1EC1CB"/>
<path d="M41.3125 52.2508H38.1875V66.3133C38.1875 66.7277 38.3521 67.1251 38.6451 67.4181C38.9382 67.7112 39.3356 67.8758 39.75 67.8758H52.25V64.7508H41.3125V52.2508Z" fill="#1EC1CB"/>
<path d="M38.1875 75.6883V86.6258H41.3125V77.2508H52.25V74.1258H39.75C39.3356 74.1258 38.9382 74.2904 38.6451 74.5834C38.3521 74.8764 38.1875 75.2739 38.1875 75.6883Z" fill="#1EC1CB"/>
<defs>
<filter id="filter0_f" x="-3" y="-2.99919" width="148" height="148" filterUnits="userSpaceOnUse" color-interpolation-filters="sRGB">
<feFlood flood-opacity="0" result="BackgroundImageFix"/>
<feBlend mode="normal" in="SourceGraphic" in2="BackgroundImageFix" result="shape"/>
<feGaussianBlur stdDeviation="12" result="effect1_foregroundBlur"/>
</filter>
</defs>
</svg>
