<svg width="140" height="141" viewBox="0 0 140 141" fill="none" xmlns="http://www.w3.org/2000/svg">
<g clip-path="url(#clip0)" filter="url(#filter0_f)">
<g clip-path="url(#clip1)">
<path d="M39 46.0033L63.5 49.5033L72 75.0033L43.5 72.5033L39 46.0033Z" fill="#00494C"/>
<path d="M73.5 74.0033L96.5 70.5033L102.5 97.0033L77.5 99.0033L73.5 74.0033Z" fill="#00494C"/>
<circle cx="65" cy="49.0033" r="4" fill="#00494C"/>
<circle cx="71" cy="75.0033" r="4" fill="#00494C"/>
<circle cx="98" cy="72.0033" r="4" fill="#00494C"/>
<circle cx="92" cy="47.0033" r="4" fill="#00494C"/>
<circle cx="44" cy="71.0033" r="4" fill="#00494C"/>
<circle cx="40" cy="45.0033" r="4" fill="#00494C"/>
<circle cx="50" cy="99.0033" r="4" fill="#00494C"/>
<circle cx="76" cy="100.003" r="4" fill="#00494C"/>
<circle cx="101" cy="96.0033" r="4" fill="#00494C"/>
<path d="M114.225 91.7686C111.846 92.5565 109.419 93.2843 106.998 93.9446C106.368 92.2655 104.963 90.9631 103.221 90.4725C102.723 83.9736 101.412 79.5215 100.265 76.3171C101.824 75.386 102.899 73.73 103.024 71.8183C107.075 70.8593 111.125 69.7142 115.074 68.4064C115.782 68.1717 116.166 67.4079 115.931 66.7001C115.697 65.992 114.933 65.6085 114.225 65.8426C110.399 67.1098 106.476 68.221 102.552 69.1546C101.67 67.1659 99.6781 65.7742 97.3661 65.7742C96.944 65.7742 96.5334 65.822 96.1374 65.9097C94.9317 62.5858 93.7321 58.3788 93.2563 52.3855C95.5292 51.6923 97.1992 49.6074 97.2716 47.1282C103.281 45.9638 109.267 44.404 115.074 42.481C115.773 42.2497 116.163 41.4729 115.931 40.7745C115.7 40.076 114.924 39.6863 114.225 39.9172C108.511 41.8095 102.621 43.3435 96.7072 44.4868C96.0125 43.0597 94.7362 41.9667 93.1887 41.5159C93.6577 34.3072 95.1635 29.5527 96.589 25.8396C96.8562 25.1435 96.5085 24.3624 95.8123 24.0952C95.1159 23.8285 94.335 24.1757 94.0678 24.8718C92.565 28.7863 90.977 33.7997 90.4898 41.3996C88.1606 41.8659 86.3425 43.7636 85.9946 46.1329C81.0881 46.6945 76.1141 47.0003 71.1851 47.0421C70.6621 44.9227 68.945 43.2689 66.7907 42.8391C67.1506 34.9409 68.6667 29.999 70.2637 25.8394C70.5309 25.1433 70.1832 24.3622 69.4871 24.095C68.7908 23.8284 68.0097 24.1755 67.7425 24.8716C66.1282 29.077 64.4427 34.5043 64.0818 42.9598C62.2687 43.4933 60.83 44.9087 60.2663 46.7088C55.2933 46.3629 50.2981 45.7479 45.3878 44.8753C45.1007 42.3505 43.15 40.3238 40.6611 39.922C41.2329 33.5706 42.63 29.2475 43.9383 25.8396C44.2055 25.1435 43.8578 24.3624 43.1617 24.0952C42.4654 23.8284 41.6843 24.1755 41.4171 24.8718C40.0091 28.5399 38.5026 33.2149 37.9303 40.1513C36.6547 40.586 35.5819 41.4618 34.8961 42.5976C31.8333 41.8086 28.77 40.9091 25.7757 39.9172C25.0677 39.6831 24.3039 40.0669 24.0694 40.7745C23.8349 41.4826 24.2189 42.2465 24.9267 42.481C27.9368 43.4779 31.0154 44.3837 34.0941 45.18C34.0875 45.2925 34.083 45.4057 34.083 45.52C34.083 47.9596 35.6317 50.0444 37.7975 50.8431C38.1852 58.035 39.5367 62.9234 40.9145 66.7389C39.941 67.3948 39.1816 68.3444 38.7635 69.4596C34.3892 68.4632 30.0247 67.2499 25.7755 65.8426C25.067 65.6081 24.3035 65.9921 24.0692 66.7001C23.8347 67.4081 24.2187 68.1719 24.9265 68.4066C29.35 69.8714 33.8959 71.1303 38.4499 72.1577C38.8016 74.9497 41.1891 77.1169 44.0748 77.1169C44.3916 77.1169 44.7021 77.0896 45.0049 77.0393C46.3937 80.8823 47.7534 85.8553 48.0325 93.4359C46.4958 93.9531 45.2511 95.1099 44.6184 96.5902C38.2454 95.4202 31.9104 93.8005 25.7753 91.7684C25.0674 91.5341 24.3035 91.9179 24.0688 92.6257C23.8343 93.3339 24.2183 94.0977 24.9261 94.3322C31.1961 96.4087 37.6706 98.0631 44.1836 99.2558C44.3535 101.436 45.76 103.272 47.7011 104.064C47.309 107.693 46.6169 110.943 45.5379 114.234C45.3174 114.906 45.6705 115.654 46.329 115.912C47.0418 116.191 47.8659 115.802 48.104 115.075C49.2333 111.632 49.9603 108.236 50.3749 104.456C52.5577 104.25 54.383 102.801 55.136 100.826C60.0584 101.339 65.0548 101.602 69.9999 101.602C70.0833 101.602 70.1696 101.601 70.2535 101.601C70.7068 103.451 72.0689 104.947 73.8381 105.587C73.4258 108.625 72.7962 111.389 71.8635 114.234C71.643 114.906 71.9961 115.654 72.6546 115.912C73.3676 116.191 74.1915 115.802 74.4296 115.075C75.4231 112.046 76.0904 109.105 76.5249 105.87C78.9981 105.536 80.97 103.602 81.361 101.147C86.5755 100.732 91.8109 100.024 96.9483 99.0418C97.7682 100.287 99.064 101.191 100.575 101.492C100.265 106.16 99.5015 110.231 98.1889 114.234C97.9684 114.906 98.3215 115.654 98.9801 115.912C99.6931 116.191 100.517 115.802 100.755 115.075C102.168 110.766 102.976 106.394 103.288 101.37C105.412 100.744 107.02 98.9056 107.309 96.6592C109.91 95.958 112.519 95.1784 115.074 94.3324C115.782 94.0977 116.166 93.3339 115.931 92.6259C115.697 91.9179 114.933 91.5345 114.225 91.7686ZM97.3661 68.4749C99.0041 68.4749 100.337 69.8074 100.337 71.4455C100.337 73.0835 99.0041 74.416 97.3661 74.416C95.7281 74.416 94.3955 73.0835 94.3955 71.4455C94.3955 69.8074 95.7283 68.4749 97.3661 68.4749ZM91.605 43.9896C93.243 43.9896 94.5756 45.3222 94.5756 46.9602C94.5756 48.5982 93.243 49.9308 91.605 49.9308C89.9669 49.9308 88.6344 48.5982 88.6344 46.9602C88.6344 45.3224 89.9669 43.9896 91.605 43.9896ZM65.6795 45.43C67.3176 45.43 68.6501 46.7626 68.6501 48.4006C68.6501 50.0386 67.3176 51.3712 65.6795 51.3712C64.0415 51.3712 62.7089 50.0386 62.7089 48.4006C62.7089 46.7626 64.0417 45.43 65.6795 45.43ZM36.7837 45.52C36.7837 43.882 38.1162 42.5494 39.7543 42.5494C41.3923 42.5494 42.7249 43.882 42.7249 45.52C42.7249 47.158 41.3923 48.4906 39.7543 48.4906C38.1162 48.4906 36.7837 47.158 36.7837 45.52ZM40.5192 51.1381C42.593 50.8571 44.3135 49.4516 45.0455 47.5569C50.0148 48.4349 55.0681 49.055 60.0992 49.404C60.4966 51.6202 62.1852 53.3928 64.3561 53.9141C65.0389 60.7435 66.6604 65.4405 68.3337 69.5852C67.1706 70.3499 66.3038 71.5297 65.9478 72.9132C60.5417 72.7568 55.099 72.2841 49.7449 71.5049C49.7451 71.485 49.7463 71.4654 49.7463 71.4453C49.7463 68.3182 47.2021 65.7742 44.0752 65.7742C43.8641 65.7742 43.6556 65.7868 43.4504 65.8092C42.1716 62.2629 40.9185 57.7389 40.5192 51.1381ZM44.0752 74.416C42.4372 74.416 41.1046 73.0835 41.1046 71.4455C41.1046 69.8074 42.4372 68.4749 44.0752 68.4749C45.7132 68.4749 47.0458 69.8074 47.0458 71.4455C47.0458 73.0833 45.7131 74.416 44.0752 74.416ZM49.8363 101.782C48.1983 101.782 46.8657 100.449 46.8657 98.8111C46.8657 97.1731 48.1983 95.8405 49.8363 95.8405C51.4744 95.8405 52.8069 97.1731 52.8069 98.8111C52.8069 100.449 51.4744 101.782 49.8363 101.782ZM70.2544 98.9002C70.1703 98.9002 70.0838 98.9011 70.0003 98.9011C65.1654 98.9011 60.2803 98.6447 55.467 98.1446C55.1705 95.6245 53.2162 93.6048 50.7269 93.2106C50.4207 85.2365 48.9634 80.0124 47.4903 75.9696C48.1378 75.4798 48.6774 74.8547 49.0662 74.1363C54.6324 74.9582 60.2957 75.4536 65.9191 75.6142C66.5041 78.1225 68.757 79.9971 71.4408 79.9971C71.7273 79.9971 72.0087 79.9754 72.2838 79.9341C73.6249 84.4548 74.2846 89.1031 74.3935 94.7478C72.3581 95.2542 70.7544 96.8624 70.2544 98.9002ZM68.4702 74.326C68.4702 72.688 69.8028 71.3554 71.4408 71.3554C73.0789 71.3554 74.4114 72.688 74.4114 74.326C74.4114 75.9641 73.0789 77.2966 71.4408 77.2966C69.8028 77.2966 68.4702 75.9641 68.4702 74.326ZM75.7618 103.222C74.1238 103.222 72.7912 101.89 72.7912 100.251C72.7912 98.6134 74.1238 97.2809 75.7618 97.2809C77.3998 97.2809 78.7324 98.6134 78.7324 100.251C78.7324 101.89 77.3996 103.222 75.7618 103.222ZM96.0159 95.9305C96.0159 96.1108 96.0253 96.2888 96.0418 96.4648C91.127 97.39 86.1236 98.0588 81.1398 98.4557C80.5249 96.6195 78.9954 95.1997 77.094 94.7401C76.9797 88.7858 76.2433 83.7064 74.792 78.8976C75.8949 78.0869 76.6949 76.8878 76.9883 75.5033C79.0008 75.4049 81.0313 75.2649 83.0368 75.0816C83.7794 75.0137 84.3264 74.3568 84.2585 73.6141C84.1907 72.8715 83.5325 72.3238 82.791 72.3924C80.8387 72.5708 78.8623 72.7072 76.9028 72.8035C76.2358 70.4139 74.0406 68.6549 71.4408 68.6549C71.2522 68.6549 71.0657 68.6646 70.8817 68.6826C69.233 64.6139 67.7364 60.309 67.0699 53.8988C69.0979 53.3858 70.6932 51.7776 71.1891 49.743C76.2015 49.7013 81.2595 49.3912 86.2496 48.8223C86.9105 50.7175 88.5496 52.1569 90.5597 52.5332C91.0701 59.0501 92.3956 63.5647 93.7048 67.1199C92.5145 68.129 91.7455 69.6189 91.6993 71.2872C90.6458 71.4516 89.5874 71.6083 88.5375 71.7479C87.7983 71.8462 87.2785 72.5248 87.3768 73.2643C87.467 73.9431 88.0468 74.4369 88.7134 74.4369C88.7727 74.4369 88.8326 74.4331 88.893 74.425C90.0144 74.2761 91.1455 74.1082 92.2702 73.9316C93.193 75.8158 95.1304 77.1168 97.3661 77.1168C97.4716 77.1168 97.5763 77.1133 97.6806 77.1076C98.7612 80.1094 100.008 84.2811 100.506 90.3838C97.944 90.9291 96.0159 93.2085 96.0159 95.9305ZM101.687 98.9011C100.049 98.9011 98.7165 97.5686 98.7165 95.9305C98.7165 94.2925 100.049 92.9599 101.687 92.9599C103.325 92.9599 104.658 94.2925 104.658 95.9305C104.658 97.5684 103.325 98.9011 101.687 98.9011Z" fill="#1EC1CB"/>
</g>
</g>
<g clip-path="url(#clip2)">
<g clip-path="url(#clip3)">
<path d="M39 46.0033L63.5 49.5033L72 75.0033L43.5 72.5033L39 46.0033Z" fill="#00494C"/>
<path d="M73.5 74.0033L96.5 70.5033L102.5 97.0033L77.5 99.0033L73.5 74.0033Z" fill="#00494C"/>
<circle cx="65" cy="49.0033" r="4" fill="#00494C"/>
<circle cx="71" cy="75.0033" r="4" fill="#00494C"/>
<circle cx="98" cy="72.0033" r="4" fill="#00494C"/>
<circle cx="92" cy="47.0033" r="4" fill="#00494C"/>
<circle cx="44" cy="71.0033" r="4" fill="#00494C"/>
<circle cx="40" cy="45.0033" r="4" fill="#00494C"/>
<circle cx="50" cy="99.0033" r="4" fill="#00494C"/>
<circle cx="76" cy="100.003" r="4" fill="#00494C"/>
<circle cx="101" cy="96.0033" r="4" fill="#00494C"/>
<path d="M114.225 91.7686C111.846 92.5565 109.419 93.2843 106.998 93.9446C106.368 92.2655 104.963 90.9631 103.221 90.4725C102.723 83.9736 101.412 79.5215 100.265 76.3171C101.824 75.386 102.899 73.73 103.024 71.8183C107.075 70.8593 111.125 69.7142 115.074 68.4064C115.782 68.1717 116.166 67.4079 115.931 66.7001C115.697 65.992 114.933 65.6085 114.225 65.8426C110.399 67.1098 106.476 68.221 102.552 69.1546C101.67 67.1659 99.6781 65.7742 97.3661 65.7742C96.944 65.7742 96.5334 65.822 96.1374 65.9097C94.9317 62.5858 93.7321 58.3788 93.2563 52.3855C95.5292 51.6923 97.1992 49.6074 97.2716 47.1282C103.281 45.9638 109.267 44.404 115.074 42.481C115.773 42.2497 116.163 41.4729 115.931 40.7745C115.7 40.076 114.924 39.6863 114.225 39.9172C108.511 41.8095 102.621 43.3435 96.7072 44.4868C96.0125 43.0597 94.7362 41.9667 93.1887 41.5159C93.6577 34.3072 95.1635 29.5527 96.589 25.8396C96.8562 25.1435 96.5085 24.3624 95.8123 24.0952C95.1159 23.8285 94.335 24.1757 94.0678 24.8718C92.565 28.7863 90.977 33.7997 90.4898 41.3996C88.1606 41.8659 86.3425 43.7636 85.9946 46.1329C81.0881 46.6945 76.1141 47.0003 71.1851 47.0421C70.6621 44.9227 68.945 43.2689 66.7907 42.8391C67.1506 34.9409 68.6667 29.999 70.2637 25.8394C70.5309 25.1433 70.1832 24.3622 69.4871 24.095C68.7908 23.8284 68.0097 24.1755 67.7425 24.8716C66.1282 29.077 64.4427 34.5043 64.0818 42.9598C62.2687 43.4933 60.83 44.9087 60.2663 46.7088C55.2933 46.3629 50.2981 45.7479 45.3878 44.8753C45.1007 42.3505 43.15 40.3238 40.6611 39.922C41.2329 33.5706 42.63 29.2475 43.9383 25.8396C44.2055 25.1435 43.8578 24.3624 43.1617 24.0952C42.4654 23.8284 41.6843 24.1755 41.4171 24.8718C40.0091 28.5399 38.5026 33.2149 37.9303 40.1513C36.6547 40.586 35.5819 41.4618 34.8961 42.5976C31.8333 41.8086 28.77 40.9091 25.7757 39.9172C25.0677 39.6831 24.3039 40.0669 24.0694 40.7745C23.8349 41.4826 24.2189 42.2465 24.9267 42.481C27.9368 43.4779 31.0154 44.3837 34.0941 45.18C34.0875 45.2925 34.083 45.4057 34.083 45.52C34.083 47.9596 35.6317 50.0444 37.7975 50.8431C38.1852 58.035 39.5367 62.9234 40.9145 66.7389C39.941 67.3948 39.1816 68.3444 38.7635 69.4596C34.3892 68.4632 30.0247 67.2499 25.7755 65.8426C25.067 65.6081 24.3035 65.9921 24.0692 66.7001C23.8347 67.4081 24.2187 68.1719 24.9265 68.4066C29.35 69.8714 33.8959 71.1303 38.4499 72.1577C38.8016 74.9497 41.1891 77.1169 44.0748 77.1169C44.3916 77.1169 44.7021 77.0896 45.0049 77.0393C46.3937 80.8823 47.7534 85.8553 48.0325 93.4359C46.4958 93.9531 45.2511 95.1099 44.6184 96.5902C38.2454 95.4202 31.9104 93.8005 25.7753 91.7684C25.0674 91.5341 24.3035 91.9179 24.0688 92.6257C23.8343 93.3339 24.2183 94.0977 24.9261 94.3322C31.1961 96.4087 37.6706 98.0631 44.1836 99.2558C44.3535 101.436 45.76 103.272 47.7011 104.064C47.309 107.693 46.6169 110.943 45.5379 114.234C45.3174 114.906 45.6705 115.654 46.329 115.912C47.0418 116.191 47.8659 115.802 48.104 115.075C49.2333 111.632 49.9603 108.236 50.3749 104.456C52.5577 104.25 54.383 102.801 55.136 100.826C60.0584 101.339 65.0548 101.602 69.9999 101.602C70.0833 101.602 70.1696 101.601 70.2535 101.601C70.7068 103.451 72.0689 104.947 73.8381 105.587C73.4258 108.625 72.7962 111.389 71.8635 114.234C71.643 114.906 71.9961 115.654 72.6546 115.912C73.3676 116.191 74.1915 115.802 74.4296 115.075C75.4231 112.046 76.0904 109.105 76.5249 105.87C78.9981 105.536 80.97 103.602 81.361 101.147C86.5755 100.732 91.8109 100.024 96.9483 99.0418C97.7682 100.287 99.064 101.191 100.575 101.492C100.265 106.16 99.5015 110.231 98.1889 114.234C97.9684 114.906 98.3215 115.654 98.9801 115.912C99.6931 116.191 100.517 115.802 100.755 115.075C102.168 110.766 102.976 106.394 103.288 101.37C105.412 100.744 107.02 98.9056 107.309 96.6592C109.91 95.958 112.519 95.1784 115.074 94.3324C115.782 94.0977 116.166 93.3339 115.931 92.6259C115.697 91.9179 114.933 91.5345 114.225 91.7686ZM97.3661 68.4749C99.0041 68.4749 100.337 69.8074 100.337 71.4455C100.337 73.0835 99.0041 74.416 97.3661 74.416C95.7281 74.416 94.3955 73.0835 94.3955 71.4455C94.3955 69.8074 95.7283 68.4749 97.3661 68.4749ZM91.605 43.9896C93.243 43.9896 94.5756 45.3222 94.5756 46.9602C94.5756 48.5982 93.243 49.9308 91.605 49.9308C89.9669 49.9308 88.6344 48.5982 88.6344 46.9602C88.6344 45.3224 89.9669 43.9896 91.605 43.9896ZM65.6795 45.43C67.3176 45.43 68.6501 46.7626 68.6501 48.4006C68.6501 50.0386 67.3176 51.3712 65.6795 51.3712C64.0415 51.3712 62.7089 50.0386 62.7089 48.4006C62.7089 46.7626 64.0417 45.43 65.6795 45.43ZM36.7837 45.52C36.7837 43.882 38.1162 42.5494 39.7543 42.5494C41.3923 42.5494 42.7249 43.882 42.7249 45.52C42.7249 47.158 41.3923 48.4906 39.7543 48.4906C38.1162 48.4906 36.7837 47.158 36.7837 45.52ZM40.5192 51.1381C42.593 50.8571 44.3135 49.4516 45.0455 47.5569C50.0148 48.4349 55.0681 49.055 60.0992 49.404C60.4966 51.6202 62.1852 53.3928 64.3561 53.9141C65.0389 60.7435 66.6604 65.4405 68.3337 69.5852C67.1706 70.3499 66.3038 71.5297 65.9478 72.9132C60.5417 72.7568 55.099 72.2841 49.7449 71.5049C49.7451 71.485 49.7463 71.4654 49.7463 71.4453C49.7463 68.3182 47.2021 65.7742 44.0752 65.7742C43.8641 65.7742 43.6556 65.7868 43.4504 65.8092C42.1716 62.2629 40.9185 57.7389 40.5192 51.1381ZM44.0752 74.416C42.4372 74.416 41.1046 73.0835 41.1046 71.4455C41.1046 69.8074 42.4372 68.4749 44.0752 68.4749C45.7132 68.4749 47.0458 69.8074 47.0458 71.4455C47.0458 73.0833 45.7131 74.416 44.0752 74.416ZM49.8363 101.782C48.1983 101.782 46.8657 100.449 46.8657 98.8111C46.8657 97.1731 48.1983 95.8405 49.8363 95.8405C51.4744 95.8405 52.8069 97.1731 52.8069 98.8111C52.8069 100.449 51.4744 101.782 49.8363 101.782ZM70.2544 98.9002C70.1703 98.9002 70.0838 98.9011 70.0003 98.9011C65.1654 98.9011 60.2803 98.6447 55.467 98.1446C55.1705 95.6245 53.2162 93.6048 50.7269 93.2106C50.4207 85.2365 48.9634 80.0124 47.4903 75.9696C48.1378 75.4798 48.6774 74.8547 49.0662 74.1363C54.6324 74.9582 60.2957 75.4536 65.9191 75.6142C66.5041 78.1225 68.757 79.9971 71.4408 79.9971C71.7273 79.9971 72.0087 79.9754 72.2838 79.9341C73.6249 84.4548 74.2846 89.1031 74.3935 94.7478C72.3581 95.2542 70.7544 96.8624 70.2544 98.9002ZM68.4702 74.326C68.4702 72.688 69.8028 71.3554 71.4408 71.3554C73.0789 71.3554 74.4114 72.688 74.4114 74.326C74.4114 75.9641 73.0789 77.2966 71.4408 77.2966C69.8028 77.2966 68.4702 75.9641 68.4702 74.326ZM75.7618 103.222C74.1238 103.222 72.7912 101.89 72.7912 100.251C72.7912 98.6134 74.1238 97.2809 75.7618 97.2809C77.3998 97.2809 78.7324 98.6134 78.7324 100.251C78.7324 101.89 77.3996 103.222 75.7618 103.222ZM96.0159 95.9305C96.0159 96.1108 96.0253 96.2888 96.0418 96.4648C91.127 97.39 86.1236 98.0588 81.1398 98.4557C80.5249 96.6195 78.9954 95.1997 77.094 94.7401C76.9797 88.7858 76.2433 83.7064 74.792 78.8976C75.8949 78.0869 76.6949 76.8878 76.9883 75.5033C79.0008 75.4049 81.0313 75.2649 83.0368 75.0816C83.7794 75.0137 84.3264 74.3568 84.2585 73.6141C84.1907 72.8715 83.5325 72.3238 82.791 72.3924C80.8387 72.5708 78.8623 72.7072 76.9028 72.8035C76.2358 70.4139 74.0406 68.6549 71.4408 68.6549C71.2522 68.6549 71.0657 68.6646 70.8817 68.6826C69.233 64.6139 67.7364 60.309 67.0699 53.8988C69.0979 53.3858 70.6932 51.7776 71.1891 49.743C76.2015 49.7013 81.2595 49.3912 86.2496 48.8223C86.9105 50.7175 88.5496 52.1569 90.5597 52.5332C91.0701 59.0501 92.3956 63.5647 93.7048 67.1199C92.5145 68.129 91.7455 69.6189 91.6993 71.2872C90.6458 71.4516 89.5874 71.6083 88.5375 71.7479C87.7983 71.8462 87.2785 72.5248 87.3768 73.2643C87.467 73.9431 88.0468 74.4369 88.7134 74.4369C88.7727 74.4369 88.8326 74.4331 88.893 74.425C90.0144 74.2761 91.1455 74.1082 92.2702 73.9316C93.193 75.8158 95.1304 77.1168 97.3661 77.1168C97.4716 77.1168 97.5763 77.1133 97.6806 77.1076C98.7612 80.1094 100.008 84.2811 100.506 90.3838C97.944 90.9291 96.0159 93.2085 96.0159 95.9305ZM101.687 98.9011C100.049 98.9011 98.7165 97.5686 98.7165 95.9305C98.7165 94.2925 100.049 92.9599 101.687 92.9599C103.325 92.9599 104.658 94.2925 104.658 95.9305C104.658 97.5684 103.325 98.9011 101.687 98.9011Z" fill="#1EC1CB"/>
</g>
</g>
<defs>
<filter id="filter0_f" x="0" y="-0.996719" width="141" height="141" filterUnits="userSpaceOnUse" color-interpolation-filters="sRGB">
<feFlood flood-opacity="0" result="BackgroundImageFix"/>
<feBlend mode="normal" in="SourceGraphic" in2="BackgroundImageFix" result="shape"/>
<feGaussianBlur stdDeviation="12" result="effect1_foregroundBlur"/>
</filter>
<clipPath id="clip0">
<rect width="93" height="93" fill="white" transform="translate(24 23.0033)"/>
</clipPath>
<clipPath id="clip1">
<rect width="92" height="92" fill="white" transform="translate(24 24.0033)"/>
</clipPath>
<clipPath id="clip2">
<rect width="93" height="93" fill="white" transform="translate(24 23.0033)"/>
</clipPath>
<clipPath id="clip3">
<rect width="92" height="92" fill="white" transform="translate(24 24.0033)"/>
</clipPath>
</defs>
</svg>
