<svg width="123" height="115" viewBox="0 0 123 115" fill="none" xmlns="http://www.w3.org/2000/svg">
<g clip-path="url(#clip0)" filter="url(#filter0_f)">
<path d="M30.4775 52.728L94.2275 29.5462L79.5684 84.4326L58.773 69.7735L47.523 88.5235L46.8412 63.978L30.4775 52.728Z" fill="#00494C"/>
<path d="M98.949 27.5703C99.3147 25.8683 97.6461 24.4332 96.0183 25.0543L25.4136 52.0072C24.5638 52.3316 24.0018 53.1461 24 54.0556C23.9982 54.9652 24.5571 55.7819 25.4057 56.1096L45.2399 63.7699V87.8975C45.2399 88.9153 45.9388 89.7998 46.929 90.0352C47.9126 90.2691 48.9383 89.8011 49.3994 88.8863L57.6026 72.6079L77.6216 87.4647C78.8393 88.3685 80.5896 87.7937 81.0327 86.3413C99.7238 25.0591 98.9158 27.7243 98.949 27.5703ZM81.5203 35.2926L47.1257 59.7873L32.3268 54.0718L81.5203 35.2926ZM49.6344 63.3956L79.6147 42.0447C53.817 69.2598 55.1644 67.8273 55.0519 67.9788C54.8848 68.2036 55.3427 67.3272 49.6344 78.6548V63.3956ZM77.7383 82.0789L60.117 69.0015L76.0478 52.1954L91.9786 35.3893L77.7383 82.0789Z" fill="#1EC1CB"/>
</g>
<g clip-path="url(#clip1)">
<path d="M30.4775 52.728L94.2275 29.5462L79.5684 84.4326L58.773 69.7735L47.523 88.5235L46.8412 63.978L30.4775 52.728Z" fill="#00494C"/>
<path d="M98.949 27.5703C99.3147 25.8683 97.6461 24.4332 96.0183 25.0543L25.4136 52.0072C24.5638 52.3316 24.0018 53.1461 24 54.0556C23.9982 54.9652 24.5571 55.7819 25.4057 56.1096L45.2399 63.7699V87.8975C45.2399 88.9153 45.9388 89.7998 46.929 90.0352C47.9126 90.2691 48.9383 89.8011 49.3994 88.8863L57.6026 72.6079L77.6216 87.4647C78.8393 88.3685 80.5896 87.7937 81.0327 86.3413C99.7238 25.0591 98.9158 27.7243 98.949 27.5703ZM81.5203 35.2926L47.1257 59.7873L32.3268 54.0718L81.5203 35.2926ZM49.6344 63.3956L79.6147 42.0447C53.817 69.2598 55.1644 67.8273 55.0519 67.9788C54.8848 68.2036 55.3427 67.3272 49.6344 78.6548V63.3956ZM77.7383 82.0789L60.117 69.0015L76.0478 52.1954L91.9786 35.3893L77.7383 82.0789Z" fill="#1EC1CB"/>
</g>
<defs>
<filter id="filter0_f" x="0" y="-3.99925" width="123" height="123" filterUnits="userSpaceOnUse" color-interpolation-filters="sRGB">
<feFlood flood-opacity="0" result="BackgroundImageFix"/>
<feBlend mode="normal" in="SourceGraphic" in2="BackgroundImageFix" result="shape"/>
<feGaussianBlur stdDeviation="12" result="effect1_foregroundBlur"/>
</filter>
<clipPath id="clip0">
<rect width="75" height="75" fill="white" transform="translate(24 20.0007)"/>
</clipPath>
<clipPath id="clip1">
<rect width="75" height="75" fill="white" transform="translate(24 20.0007)"/>
</clipPath>
</defs>
</svg>
