<svg width="157" height="164" viewBox="0 0 157 164" fill="none" xmlns="http://www.w3.org/2000/svg">
<g filter="url(#filter0_f)">
<path d="M101.61 86.0173C101.61 87.4148 101.617 88.8316 101.607 90.2508C101.59 92.7671 99.9097 94.4527 97.3861 94.4576C91.7964 94.4673 86.2043 94.46 80.6146 94.46C80.2852 94.46 79.9534 94.46 79.5538 94.46C79.5538 97.7731 79.5538 101.048 79.5538 104.436C79.8953 104.436 80.2465 104.436 80.5976 104.436C91.0238 104.436 101.448 104.436 111.874 104.436C114.882 104.436 116.473 106.015 116.475 109.001C116.478 111.597 116.475 114.196 116.475 116.841C118.066 117.32 119.309 118.209 120.019 119.723C120.537 120.829 120.641 121.987 120.338 123.169C119.704 125.649 117.459 127.274 114.95 127.092C112.457 126.911 110.503 124.988 110.193 122.413C109.9 119.97 111.52 117.722 114.298 116.845C114.298 115.898 114.298 114.91 114.298 113.925C114.298 112.142 114.315 110.357 114.291 108.575C114.274 107.383 113.547 106.628 112.368 106.623C107.623 106.606 102.879 106.615 98.1344 106.62C98.0497 106.62 97.9673 106.659 97.8414 106.688C97.8414 110.011 97.8414 113.322 97.8414 116.625C101.002 117.877 102.356 120.03 101.777 122.866C101.293 125.247 99.0548 126.988 96.5699 126.918C94.1577 126.85 91.9974 124.973 91.639 122.629C91.2224 119.907 92.6755 117.686 95.5745 116.673C95.5745 113.375 95.5745 110.059 95.5745 106.678C90.244 106.678 84.9158 106.678 79.5344 106.678C79.5344 110.054 79.5344 113.426 79.5344 116.797C82.7337 118.216 84.0779 120.415 83.4167 123.152C82.8379 125.55 80.6049 127.213 78.1225 127.102C75.7442 126.993 73.6444 125.121 73.3054 122.803C72.9009 120.025 74.3298 117.85 77.2506 116.865C77.2506 113.508 77.2506 110.134 77.2506 106.686C71.9419 106.686 66.6137 106.686 61.2251 106.686C61.2251 110.04 61.2251 113.411 61.2251 116.855C62.7872 117.308 64.0441 118.223 64.7586 119.769C65.272 120.88 65.3568 122.045 65.0492 123.22C64.434 125.571 62.235 127.194 59.8712 127.075C57.413 126.949 55.3133 125.08 54.9984 122.731C54.6351 119.982 56.0592 117.831 58.9388 116.862C58.9388 113.489 58.9388 110.093 58.9388 106.611C58.6458 106.611 58.3818 106.611 58.1178 106.611C53.6761 106.611 49.2344 106.608 44.7902 106.613C43.1433 106.615 42.4991 107.269 42.4967 108.931C42.4943 111.558 42.4967 114.184 42.4967 116.785C45.742 118.165 47.0983 120.369 46.4565 123.142C45.914 125.484 43.6931 127.172 41.2567 127.097C38.8372 127.022 36.6987 125.148 36.3451 122.791C35.9286 120.03 37.3647 117.841 40.3219 116.838C40.3219 114.276 40.3194 111.68 40.3243 109.086C40.3243 108.633 40.3097 108.173 40.3945 107.732C40.7723 105.756 42.3901 104.443 44.4705 104.438C49.9997 104.426 55.5312 104.433 61.0604 104.433C66.1076 104.433 71.1523 104.433 76.1995 104.433C76.5289 104.433 76.8558 104.433 77.2482 104.433C77.2482 101.108 77.2482 97.8337 77.2482 94.4576C76.9164 94.4576 76.5943 94.4576 76.2722 94.4576C70.743 94.4576 65.2115 94.46 59.6823 94.4576C56.793 94.4552 55.1946 92.8567 55.1897 89.9771C55.1873 88.6499 55.1897 87.3227 55.1897 85.9447C53.5598 85.7582 51.9735 85.6226 50.4041 85.3852C47.5875 84.959 44.8193 84.3269 42.3223 82.8883C41.4989 82.4136 40.644 81.8396 40.0821 81.1009C39.5493 80.401 39.1012 79.425 39.0964 78.5701C39.0334 66.8434 39.0528 55.1142 39.0576 43.3875C39.0576 41.8569 39.8932 40.7719 41.0436 39.9C43.0101 38.4081 45.3037 37.6452 47.6698 37.1221C54.8483 35.5382 62.0073 35.5866 69.0647 37.7421C70.6244 38.2192 72.1114 39.0499 73.5064 39.9194C74.9183 40.8009 75.5238 42.1911 75.519 43.93C75.4826 55.2934 75.4826 66.6593 75.519 78.0252C75.5238 79.7641 74.8626 81.0598 73.5282 82.0648C71.3509 83.7045 68.8225 84.5376 66.1947 84.9929C63.3176 85.4894 60.404 85.7679 57.3937 86.1554C57.3937 87.5722 57.3258 89.1658 57.4203 90.7521C57.4712 91.6143 58.1226 92.1277 58.9921 92.2634C59.2585 92.3045 59.5346 92.2852 59.8058 92.2852C72.1962 92.2852 84.584 92.2852 96.9744 92.2852C98.8416 92.2852 99.4326 91.7015 99.435 89.8681C99.435 88.6596 99.4326 87.4511 99.4277 86.2402C99.4277 86.182 99.4059 86.1239 99.3769 85.981C98.178 85.9084 96.9526 85.8599 95.7319 85.7509C91.9853 85.4167 88.2944 84.8234 84.9086 83.0699C84.0876 82.6461 83.3174 82.0818 82.6223 81.4666C81.7287 80.6771 81.2976 79.6381 81.2976 78.4054C81.3097 66.7998 81.3097 55.1917 81.2976 43.5861C81.2951 42.0167 82.0387 40.8809 83.2084 39.9654C85.0563 38.5195 87.2239 37.7615 89.4665 37.2359C96.783 35.5261 104.09 35.5503 111.302 37.7494C112.942 38.2483 114.494 39.1638 115.955 40.0962C117.238 40.9148 117.771 42.2468 117.769 43.8355C117.74 55.2014 117.73 66.5648 117.776 77.9307C117.783 79.8634 117.001 81.2269 115.49 82.278C113.363 83.7553 110.949 84.5279 108.447 84.9977C106.219 85.4191 103.969 85.6734 101.61 86.0173ZM73.3199 58.7567C72.6733 59.1103 72.1598 59.4155 71.6246 59.6746C71.0821 59.9362 70.5299 60.188 69.9632 60.3866C63.8044 62.5203 57.4833 62.7189 51.0847 61.9488C50.4114 61.8688 49.9052 61.5104 49.9706 60.7741C50.0384 59.9943 50.5833 59.723 51.3293 59.803C51.54 59.8248 51.7507 59.832 51.9614 59.8563C56.4322 60.4181 60.8884 60.297 65.3108 59.4348C67.6576 58.9771 69.9511 58.3256 71.9588 56.9379C72.8937 56.2913 73.3853 55.4775 73.3441 54.2763C73.2739 52.1934 73.3248 50.1058 73.3248 48.0205C73.3248 47.7105 73.3248 47.4005 73.3248 47.0324C68.2509 49.958 62.8187 50.5902 57.2798 50.5926C51.7144 50.595 46.2627 49.9435 41.2301 47.0397C41.2301 49.418 41.3221 51.7115 41.1986 53.9953C41.109 55.6349 41.8331 56.6206 43.1579 57.3423C43.3952 57.4731 43.6398 57.5942 43.8699 57.7395C44.4269 58.0907 44.6812 58.5799 44.3519 59.1975C44.0055 59.8466 43.4485 59.9531 42.814 59.6165C42.3175 59.3525 41.8331 59.0619 41.2301 58.7204C41.2301 60.9727 41.3875 63.1209 41.1865 65.2377C40.9758 67.4537 42.0632 68.6138 43.8505 69.442C44.2598 69.6334 44.6667 69.8416 45.093 69.987C52.3344 72.4766 59.6775 72.4984 67.0473 70.7377C68.6917 70.3454 70.2562 69.5389 71.7893 68.7857C72.5861 68.3934 73.3151 67.7419 73.3199 66.6956C73.3296 64.0945 73.3199 61.4959 73.3199 58.7567ZM41.2276 70.5319C41.2276 73.116 41.2615 75.596 41.2107 78.0712C41.1913 79.0205 41.5037 79.7834 42.2642 80.2363C43.4485 80.9387 44.657 81.6967 45.9576 82.0988C52.9955 84.276 60.1231 84.3075 67.2313 82.5032C68.9242 82.0721 70.5202 81.1906 72.0896 80.3841C72.9881 79.9215 73.378 79.0569 73.3441 77.9549C73.2739 75.751 73.3247 73.5423 73.3223 71.3359C73.3223 71.0816 73.2981 70.8298 73.2836 70.5295C66.4612 75.0681 48.9897 75.4604 41.2276 70.5319ZM83.4773 70.481C83.4773 73.0797 83.516 75.55 83.4579 78.0203C83.4337 79.0448 83.7921 79.8319 84.6155 80.3187C85.7514 80.9871 86.9115 81.704 88.1563 82.0891C95.2258 84.2688 102.38 84.322 109.517 82.4887C111.208 82.0552 112.816 81.1905 114.356 80.3356C114.918 80.0232 115.482 79.1755 115.514 78.5459C115.642 75.952 115.565 73.3509 115.557 70.7523C115.557 70.6869 115.477 70.6215 115.434 70.5537C108.44 75.1795 91.065 75.3635 83.4773 70.481ZM115.56 47.0373C110.486 49.9605 105.054 50.5902 99.5149 50.5902C93.9519 50.5926 88.5026 49.9387 83.4748 47.0373C83.4748 49.5415 83.5281 51.9561 83.4506 54.3683C83.4143 55.5138 83.8308 56.376 84.756 56.8628C86.214 57.6306 87.7034 58.4346 89.2752 58.873C95.4098 60.5755 101.629 60.5755 107.853 59.3743C110.111 58.9384 112.341 58.3159 114.216 56.9064C114.78 56.4826 115.468 55.7778 115.499 55.1699C115.64 52.4962 115.56 49.8103 115.56 47.0373ZM83.4773 58.7446C83.4773 61.3118 83.5184 63.753 83.4579 66.1919C83.4337 67.2163 83.7897 68.0059 84.6107 68.4902C85.7732 69.1732 86.9599 69.8901 88.2314 70.2945C94.3079 72.232 100.515 72.3216 106.761 71.319C109.212 70.9266 111.598 70.28 113.76 68.9964C114.979 68.2723 115.715 67.3495 115.606 65.768C115.468 63.7555 115.572 61.7235 115.572 59.7013C115.572 59.4155 115.572 59.1321 115.572 58.7785C107.882 63.6901 90.4426 63.3655 83.4773 58.7446ZM98.6939 38.2289C94.7705 38.3645 90.8616 38.7278 87.19 40.273C86.0493 40.7525 84.9885 41.5081 84.0319 42.3049C83.2908 42.9225 83.3126 43.6927 84.0101 44.3684C84.6688 45.0077 85.439 45.5914 86.26 45.9959C89.2825 47.4877 92.5569 48.0545 95.8797 48.287C101.031 48.6478 106.153 48.471 111.082 46.7273C112.365 46.272 113.613 45.5745 114.71 44.7655C115.945 43.8525 115.901 42.8014 114.673 41.852C113.826 41.1981 112.862 40.6387 111.869 40.2391C107.648 38.5413 103.201 38.2289 98.6939 38.2289ZM56.3716 38.2289C52.4482 38.3621 48.5417 38.7351 44.8653 40.2705C43.773 40.7259 42.7365 41.4064 41.821 42.1645C40.9467 42.8886 40.9758 43.7387 41.8113 44.5113C42.4652 45.1143 43.2305 45.6447 44.0297 46.037C47.0038 47.4902 50.2152 48.0448 53.4799 48.2821C58.6627 48.6599 63.8165 48.4928 68.7692 46.7273C70.1303 46.2405 71.4284 45.4461 72.5958 44.5791C73.5669 43.8573 73.5476 42.8838 72.6079 42.1136C71.69 41.3628 70.6413 40.6944 69.5466 40.2488C65.3277 38.5316 60.8763 38.2265 56.3716 38.2289ZM118.309 121.963C118.323 120.304 117.013 118.962 115.361 118.943C113.688 118.923 112.336 120.212 112.302 121.859C112.269 123.561 113.603 124.93 115.296 124.93C116.957 124.927 118.294 123.612 118.309 121.963ZM38.4909 121.922C38.4885 123.588 39.806 124.918 41.4626 124.922C43.0949 124.927 44.4608 123.571 44.4729 121.936C44.4826 120.309 43.1143 118.94 41.4795 118.94C39.8133 118.943 38.4958 120.258 38.4909 121.922ZM63.0124 121.914C63.01 120.253 61.6804 118.928 60.0214 118.94C58.3721 118.952 57.0231 120.306 57.0328 121.941C57.0425 123.573 58.4108 124.925 60.048 124.92C61.7022 124.915 63.0148 123.585 63.0124 121.914ZM93.7896 121.75C93.7896 123.409 95.1192 124.743 96.7661 124.738C98.3936 124.736 99.7692 123.358 99.7619 121.738C99.7547 120.108 98.3984 118.764 96.754 118.759C95.0998 118.756 93.7872 120.079 93.7896 121.75ZM78.3937 118.943C76.742 118.948 75.4221 120.277 75.4221 121.936C75.4221 123.585 76.7614 124.925 78.4058 124.922C80.0479 124.92 81.3799 123.576 81.3775 121.924C81.3726 120.27 80.0406 118.938 78.3937 118.943Z" fill="#1EC1CB"/>
<path d="M73.3195 58.7567C73.3195 61.4959 73.3292 64.0945 73.3146 66.6908C73.3098 67.737 72.5808 68.3909 71.784 68.7809C70.251 69.5341 68.6864 70.3406 67.042 70.7329C59.6722 72.4936 52.3267 72.4718 45.0877 69.9821C44.6614 69.8368 44.257 69.6261 43.8453 69.4372C42.0603 68.6065 40.9705 67.4488 41.1812 65.2328C41.3822 63.1185 41.2248 60.9703 41.2248 58.7156C41.8278 59.0595 42.3122 59.3501 42.8087 59.6116C43.4432 59.9483 44.0027 59.8417 44.3466 59.1927C44.676 58.5751 44.4217 58.0859 43.8646 57.7347C43.6346 57.5894 43.3924 57.4683 43.1526 57.3375C41.8303 56.6134 41.1037 55.6277 41.1933 53.9905C41.3168 51.7066 41.2248 49.4131 41.2248 47.0348C46.2599 49.9387 51.7115 50.5902 57.2746 50.5853C62.8134 50.5829 68.2432 49.9532 73.3195 47.0252C73.3195 47.3933 73.3195 47.7033 73.3195 48.0133C73.3195 50.0985 73.2686 52.1862 73.3389 54.269C73.38 55.4702 72.8884 56.2864 71.9536 56.9306C69.9458 58.3184 67.6523 58.9698 65.3055 59.4276C60.8832 60.2898 56.4293 60.4109 51.9561 59.849C51.7454 59.8223 51.5347 59.8175 51.324 59.7957C50.5805 59.7158 50.0356 59.987 49.9653 60.7669C49.9 61.5031 50.4061 61.8616 51.0794 61.9415C57.478 62.7116 63.7991 62.5131 69.9579 60.3794C70.5271 60.1832 71.0768 59.9313 71.6193 59.6673C72.1594 59.4155 72.6728 59.1103 73.3195 58.7567ZM57.0929 56.5359C58.7204 56.4341 60.285 56.3542 61.8471 56.2283C62.7722 56.1532 63.2857 55.6374 63.1379 54.9689C62.9587 54.1576 62.3629 54.0292 61.6146 54.0631C59.51 54.1527 57.4005 54.2351 55.2935 54.223C54.0026 54.2157 52.7118 54.0316 51.4209 53.9251C50.7597 53.8718 50.2608 54.1285 50.1446 54.7921C50.0186 55.5066 50.4158 55.928 51.1157 56.0612C51.3216 56.0999 51.5299 56.1459 51.7406 56.1605C53.5449 56.2913 55.3468 56.4148 57.0929 56.5359ZM56.9549 68.1027C58.8512 67.9889 60.4448 67.9041 62.0384 67.7903C62.7383 67.7419 63.1936 67.3495 63.1403 66.6254C63.0871 65.9061 62.5954 65.5937 61.8858 65.6276C61.7357 65.6348 61.5855 65.6542 61.4353 65.6518C58.1561 65.6009 54.8769 65.5646 51.5977 65.4847C50.7597 65.4653 50.1591 65.7705 50.13 66.451C50.0961 67.2333 50.5587 67.5893 51.2998 67.6499C53.2809 67.8048 55.2644 67.9671 56.9549 68.1027ZM67.0589 68.2069C68.5411 68.265 69.7496 67.1558 69.8126 65.6809C69.8732 64.2568 68.6864 62.9902 67.2406 62.9393C65.8407 62.8884 64.6153 64.034 64.5499 65.4508C64.4796 66.9378 65.5816 68.1488 67.0589 68.2069ZM69.8078 54.1406C69.8828 52.7335 68.7785 51.5056 67.3496 51.4112C65.865 51.3119 64.6274 52.3969 64.5499 53.867C64.4724 55.3467 65.5453 56.5552 67.0347 56.6618C68.4564 56.7611 69.7303 55.6034 69.8078 54.1406Z" fill="#00494D"/>
<path d="M41.2273 70.5319C48.9894 75.4604 66.4632 75.068 73.2808 70.5294C73.2953 70.8298 73.3195 71.0816 73.3195 71.3359C73.3219 73.5423 73.2711 75.751 73.3413 77.9549C73.3776 79.0569 72.9877 79.9215 72.0868 80.3841C70.515 81.193 68.919 82.0745 67.2285 82.5032C60.1203 84.3099 52.9951 84.276 45.9548 82.0988C44.6542 81.6967 43.4481 80.9387 42.2614 80.2363C41.4985 79.7859 41.1885 79.0205 41.2079 78.0712C41.2587 75.5936 41.2273 73.116 41.2273 70.5319ZM56.9016 79.672C58.7398 79.5679 60.2753 79.4807 61.8083 79.3911C62.5494 79.3475 63.121 79.069 63.1452 78.231C63.1646 77.5602 62.6076 77.146 61.7357 77.2211C58.3305 77.5117 54.9326 77.5117 51.542 77.0588C50.8227 76.9644 50.2754 77.1993 50.1325 77.9767C50.0114 78.6427 50.4934 79.1465 51.3458 79.2216C53.2906 79.3959 55.2426 79.5388 56.9016 79.672ZM67.1558 79.781C68.6235 79.7883 69.832 78.5919 69.8151 77.1484C69.7957 75.6953 68.5848 74.5037 67.1389 74.5159C65.7221 74.528 64.5669 75.688 64.5451 77.1194C64.5209 78.5919 65.6809 79.7737 67.1558 79.781Z" fill="#00494D"/>
<path d="M83.4771 70.481C91.0672 75.3635 108.439 75.177 115.436 70.5513C115.48 70.6166 115.56 70.6845 115.56 70.7498C115.567 73.3485 115.644 75.952 115.516 78.5434C115.485 79.1731 114.92 80.0208 114.358 80.3332C112.818 81.1881 111.21 82.0527 109.52 82.4863C102.382 84.3172 95.228 84.2663 88.1586 82.0866C86.9137 81.7016 85.7536 80.9847 84.6178 80.3163C83.7943 79.8319 83.4359 79.0423 83.4601 78.0179C83.5158 75.5524 83.4771 73.0797 83.4771 70.481ZM99.2435 79.672C101.091 79.5655 102.658 79.4928 104.22 79.379C105.095 79.316 105.548 78.8462 105.456 78.1511C105.347 77.3398 104.79 77.1509 104.073 77.2138C100.668 77.5214 97.2672 77.5045 93.8694 77.0685C93.0047 76.9571 92.4332 77.3713 92.438 78.0591C92.4429 78.8316 92.9224 79.1755 93.6562 79.2313C95.6083 79.3814 97.5603 79.5388 99.2435 79.672ZM109.454 74.5159C107.991 74.5352 106.831 75.7389 106.86 77.209C106.892 78.6766 108.088 79.8125 109.568 79.7786C110.99 79.7471 112.13 78.5701 112.123 77.1412C112.118 75.6832 110.912 74.4989 109.454 74.5159Z" fill="#00494D"/>
<path d="M115.56 47.0373C115.56 49.8079 115.64 52.4938 115.499 55.1675C115.468 55.7754 114.78 56.4802 114.215 56.904C112.341 58.3159 110.11 58.9359 107.853 59.3719C101.629 60.5731 95.4096 60.5731 89.275 58.8706C87.7008 58.4346 86.2138 57.6281 84.7558 56.8604C83.8307 56.3736 83.4141 55.5114 83.4504 54.3659C83.5279 51.9561 83.4746 49.5415 83.4746 47.0349C88.5025 49.9363 93.9541 50.5902 99.5147 50.5877C105.056 50.5902 110.488 49.9605 115.56 47.0373ZM99.4614 56.5407C101.14 56.4293 102.765 56.33 104.388 56.2113C105.104 56.1581 105.511 55.7512 105.443 55.0222C105.373 54.2787 104.855 54.0171 104.165 54.0559C103.654 54.0849 103.143 54.1988 102.634 54.1866C99.7157 54.1213 96.795 54.0462 93.879 53.9324C93.1428 53.9033 92.5785 54.0656 92.4646 54.8357C92.3508 55.6083 92.8255 55.9934 93.5642 56.0854C93.7143 56.1048 93.8621 56.1435 94.0098 56.1556C95.8407 56.2864 97.6741 56.4148 99.4614 56.5407ZM112.123 53.9929C112.106 52.5325 110.902 51.3724 109.432 51.4015C107.994 51.4281 106.863 52.5785 106.86 54.0123C106.858 55.4751 108.042 56.6666 109.5 56.6715C110.934 56.6763 112.142 55.4436 112.123 53.9929Z" fill="#00494D"/>
<path d="M83.4776 58.7446C90.4453 63.3656 107.883 63.6901 115.572 58.7785C115.572 59.1321 115.572 59.4155 115.572 59.7013C115.572 61.7235 115.468 63.7555 115.606 65.7681C115.715 67.3495 114.979 68.2723 113.761 68.9964C111.598 70.28 109.215 70.9242 106.761 71.319C100.513 72.3216 94.3082 72.2296 88.2317 70.2945C86.9602 69.8901 85.7711 69.1732 84.611 68.4902C83.79 68.0083 83.434 67.2163 83.4582 66.1919C83.5163 63.7531 83.4776 61.3118 83.4776 58.7446ZM99.2779 68.1027C101.14 67.9913 102.702 67.8993 104.265 67.8024C105.001 67.7564 105.497 67.4125 105.442 66.623C105.386 65.8262 104.831 65.5816 104.102 65.6324C104.013 65.6397 103.921 65.6494 103.831 65.647C100.525 65.5985 97.2193 65.5622 93.9134 65.4871C93.0851 65.4677 92.4748 65.785 92.453 66.4583C92.4264 67.2333 92.8793 67.5941 93.6252 67.6523C95.6063 67.8048 97.585 67.9671 99.2779 68.1027ZM109.442 68.2093C110.913 68.2384 112.114 67.0759 112.123 65.6131C112.136 64.1623 110.934 62.9417 109.491 62.9393C108.079 62.9345 106.887 64.1018 106.861 65.5162C106.832 66.9959 107.965 68.1802 109.442 68.2093Z" fill="#00494D"/>
<path d="M98.6938 38.2289C103.198 38.2289 107.647 38.5413 111.869 40.2439C112.862 40.6435 113.826 41.203 114.673 41.8569C115.901 42.8063 115.945 43.8574 114.71 44.7704C113.613 45.5817 112.365 46.2792 111.082 46.7321C106.153 48.4759 101.033 48.6527 95.8796 48.2918C92.5543 48.0593 89.2824 47.4902 86.2599 46.0007C85.4389 45.5963 84.6687 45.0126 84.01 44.3732C83.3125 43.6951 83.2882 42.9274 84.0317 42.3098C84.9908 41.513 86.0516 40.7574 87.1899 40.2778C90.8614 38.7278 94.7703 38.3645 98.6938 38.2289Z" fill="#00494D"/>
<path d="M56.3714 38.2289C60.8761 38.2265 65.3275 38.5316 69.5416 40.2463C70.6387 40.692 71.685 41.3604 72.6028 42.1112C73.5425 42.8813 73.5619 43.8549 72.5907 44.5766C71.4234 45.4437 70.1277 46.2381 68.7642 46.7248C63.8114 48.4904 58.6577 48.6575 53.4749 48.2797C50.2102 48.0423 46.9988 47.4877 44.0247 46.0346C43.2255 45.6447 42.4602 45.1143 41.8063 44.5088C40.9707 43.7363 40.9417 42.8862 41.816 42.162C42.7314 41.404 43.768 40.7234 44.8603 40.2681C48.5415 38.7375 52.448 38.3645 56.3714 38.2289Z" fill="#00494D"/>
<path d="M118.309 121.963C118.294 123.612 116.96 124.927 115.296 124.927C113.603 124.93 112.266 123.559 112.302 121.856C112.336 120.209 113.688 118.921 115.361 118.94C117.013 118.962 118.323 120.304 118.309 121.963Z" fill="#00494D"/>
<path d="M38.4912 121.922C38.4936 120.258 39.8136 118.94 41.4774 118.94C43.1122 118.938 44.4805 120.309 44.4708 121.936C44.4611 123.571 43.0952 124.927 41.4604 124.922C39.8063 124.917 38.4888 123.588 38.4912 121.922Z" fill="#00494D"/>
<path d="M63.0124 121.914C63.0148 123.583 61.7022 124.915 60.0504 124.92C58.4133 124.927 57.0449 123.573 57.0352 121.941C57.0255 120.306 58.3745 118.952 60.0238 118.94C61.6804 118.931 63.0124 120.255 63.0124 121.914Z" fill="#00494D"/>
<path d="M93.79 121.75C93.79 120.079 95.1027 118.756 96.7568 118.761C98.4013 118.766 99.7575 120.11 99.7648 121.74C99.7721 123.358 98.3964 124.736 96.7689 124.741C95.1196 124.741 93.79 123.406 93.79 121.75Z" fill="#00494D"/>
<path d="M78.3935 118.943C80.0404 118.938 81.3724 120.27 81.3773 121.924C81.3797 123.576 80.0501 124.918 78.4056 124.922C76.7636 124.925 75.4243 123.585 75.4219 121.936C75.4195 120.28 76.7418 118.948 78.3935 118.943Z" fill="#00494D"/>
<path d="M57.0936 56.5359C55.3474 56.4148 53.5431 56.2888 51.7412 56.158C51.5305 56.1435 51.3247 56.0975 51.1164 56.0587C50.4165 55.9231 50.0193 55.5017 50.1452 54.7897C50.2615 54.1261 50.7604 53.8694 51.4215 53.9227C52.7124 54.0292 54.0033 54.2133 55.2941 54.2205C57.4011 54.2327 59.5082 54.1503 61.6152 54.0607C62.3636 54.0292 62.9594 54.1552 63.1386 54.9665C63.2863 55.6349 62.7729 56.1508 61.8477 56.2259C60.288 56.3566 58.7211 56.4341 57.0936 56.5359Z" fill="#1EC1CB"/>
<path d="M56.9555 68.1027C55.2626 67.9671 53.2815 67.8073 51.3004 67.6499C50.5593 67.5917 50.0967 67.2333 50.1307 66.451C50.1597 65.7705 50.7603 65.4653 51.5983 65.4847C54.8775 65.5622 58.1567 65.6009 61.436 65.6518C61.5861 65.6542 61.7363 65.6348 61.8864 65.6276C62.596 65.5937 63.0901 65.9061 63.141 66.6254C63.1942 67.3495 62.7389 67.7419 62.039 67.7903C60.4454 67.9017 58.8518 67.9865 56.9555 68.1027Z" fill="#1EC1CB"/>
<path d="M67.0591 68.2069C65.5818 68.1488 64.4798 66.9378 64.5501 65.4484C64.6154 64.0316 65.8409 62.8884 67.2408 62.9369C68.6866 62.9877 69.8733 64.2544 69.8128 65.6784C69.7474 67.1558 68.5389 68.265 67.0591 68.2069Z" fill="#1EC1CB"/>
<path d="M69.808 54.1406C69.7305 55.6034 68.4566 56.7611 67.0349 56.6594C65.5455 56.5528 64.4702 55.3467 64.5501 53.8645C64.6276 52.3945 65.8652 51.3095 67.3498 51.4088C68.7787 51.5056 69.883 52.7335 69.808 54.1406Z" fill="#1EC1CB"/>
<path d="M56.9023 79.672C55.2458 79.5388 53.2938 79.3959 51.3441 79.224C50.4916 79.1489 50.0097 78.6452 50.1308 77.9791C50.2737 77.2017 50.821 76.9668 51.5403 77.0612C54.9334 77.5117 58.3312 77.5117 61.734 77.2235C62.6059 77.1484 63.1629 77.5626 63.1435 78.2334C63.1193 79.0714 62.5477 79.3499 61.8066 79.3935C60.2736 79.4807 58.7405 79.5655 56.9023 79.672Z" fill="#1EC1CB"/>
<path d="M67.1564 79.781C65.6815 79.7737 64.5238 78.5919 64.5432 77.1194C64.5626 75.688 65.7202 74.528 67.137 74.5159C68.5853 74.5037 69.7963 75.6929 69.8132 77.1484C69.8326 78.5919 68.6241 79.7883 67.1564 79.781Z" fill="#1EC1CB"/>
<path d="M99.244 79.672C97.5632 79.5388 95.6112 79.3814 93.6567 79.2288C92.9229 79.1731 92.4434 78.8268 92.4385 78.0566C92.4337 77.3713 93.0052 76.9571 93.8698 77.0661C97.2677 77.502 100.668 77.519 104.073 77.2114C104.79 77.146 105.347 77.3373 105.456 78.1487C105.548 78.8438 105.095 79.3136 104.221 79.3766C102.656 79.4928 101.089 79.5655 99.244 79.672Z" fill="#1EC1CB"/>
<path d="M109.454 74.5159C110.915 74.4965 112.118 75.6808 112.126 77.1412C112.133 78.5725 110.992 79.7495 109.571 79.7786C108.091 79.8101 106.892 78.6742 106.863 77.209C106.831 75.7389 107.992 74.5352 109.454 74.5159Z" fill="#1EC1CB"/>
<path d="M99.4614 56.5407C97.674 56.4148 95.8407 56.2864 94.0073 56.1556C93.8571 56.1459 93.7094 56.1048 93.5617 56.0854C92.823 55.9934 92.3483 55.6083 92.4621 54.8357C92.576 54.0655 93.1403 53.9033 93.8765 53.9323C96.7949 54.0462 99.7132 54.1213 102.632 54.1866C103.14 54.1988 103.651 54.0849 104.162 54.0559C104.852 54.0171 105.371 54.2811 105.441 55.0222C105.509 55.7512 105.104 56.158 104.385 56.2113C102.762 56.33 101.14 56.4293 99.4614 56.5407Z" fill="#1EC1CB"/>
<path d="M112.123 53.9929C112.14 55.4436 110.934 56.6763 109.5 56.6715C108.042 56.6666 106.858 55.4751 106.86 54.0123C106.863 52.5761 107.994 51.4281 109.432 51.4015C110.902 51.3748 112.106 52.5325 112.123 53.9929Z" fill="#1EC1CB"/>
<path d="M99.2771 68.1027C97.5842 67.9671 95.6056 67.8049 93.6245 67.6523C92.8785 67.5942 92.4256 67.2333 92.4523 66.4583C92.4741 65.7826 93.0844 65.4677 93.9127 65.4871C97.2185 65.5622 100.524 65.5985 103.83 65.647C103.92 65.6494 104.012 65.6373 104.102 65.6324C104.83 65.584 105.383 65.8262 105.441 66.623C105.497 67.4125 105 67.7564 104.264 67.8024C102.702 67.8993 101.14 67.9889 99.2771 68.1027Z" fill="#1EC1CB"/>
<path d="M109.442 68.2093C107.964 68.1802 106.829 66.9959 106.86 65.5138C106.889 64.0994 108.081 62.932 109.49 62.9369C110.934 62.9417 112.135 64.1599 112.123 65.6106C112.113 67.0759 110.912 68.2384 109.442 68.2093Z" fill="#1EC1CB"/>
</g>
<path d="M101.61 86.0173C101.61 87.4148 101.617 88.8316 101.607 90.2508C101.59 92.7671 99.9097 94.4527 97.3861 94.4576C91.7964 94.4673 86.2043 94.46 80.6146 94.46C80.2852 94.46 79.9534 94.46 79.5538 94.46C79.5538 97.7731 79.5538 101.048 79.5538 104.436C79.8953 104.436 80.2465 104.436 80.5976 104.436C91.0238 104.436 101.448 104.436 111.874 104.436C114.882 104.436 116.473 106.015 116.475 109.001C116.478 111.597 116.475 114.196 116.475 116.841C118.066 117.32 119.309 118.209 120.019 119.723C120.537 120.829 120.641 121.987 120.338 123.169C119.704 125.649 117.459 127.274 114.95 127.092C112.457 126.911 110.503 124.988 110.193 122.413C109.9 119.97 111.52 117.722 114.298 116.845C114.298 115.898 114.298 114.91 114.298 113.925C114.298 112.142 114.315 110.357 114.291 108.575C114.274 107.383 113.547 106.628 112.368 106.623C107.623 106.606 102.879 106.615 98.1344 106.62C98.0497 106.62 97.9673 106.659 97.8414 106.688C97.8414 110.011 97.8414 113.322 97.8414 116.625C101.002 117.877 102.356 120.03 101.777 122.866C101.293 125.247 99.0548 126.988 96.5699 126.918C94.1577 126.85 91.9974 124.973 91.639 122.629C91.2224 119.907 92.6755 117.686 95.5745 116.673C95.5745 113.375 95.5745 110.059 95.5745 106.678C90.244 106.678 84.9158 106.678 79.5344 106.678C79.5344 110.054 79.5344 113.426 79.5344 116.797C82.7337 118.216 84.0779 120.415 83.4167 123.152C82.8379 125.55 80.6049 127.213 78.1225 127.102C75.7442 126.993 73.6444 125.121 73.3054 122.803C72.9009 120.025 74.3298 117.85 77.2506 116.865C77.2506 113.508 77.2506 110.134 77.2506 106.686C71.9419 106.686 66.6137 106.686 61.2251 106.686C61.2251 110.04 61.2251 113.411 61.2251 116.855C62.7872 117.308 64.0441 118.223 64.7586 119.769C65.272 120.88 65.3568 122.045 65.0492 123.22C64.434 125.571 62.235 127.194 59.8712 127.075C57.413 126.949 55.3133 125.08 54.9984 122.731C54.6351 119.982 56.0592 117.831 58.9388 116.862C58.9388 113.489 58.9388 110.093 58.9388 106.611C58.6458 106.611 58.3818 106.611 58.1178 106.611C53.6761 106.611 49.2344 106.608 44.7902 106.613C43.1433 106.615 42.4991 107.269 42.4967 108.931C42.4943 111.558 42.4967 114.184 42.4967 116.785C45.742 118.165 47.0983 120.369 46.4565 123.142C45.914 125.484 43.6931 127.172 41.2567 127.097C38.8372 127.022 36.6987 125.148 36.3451 122.791C35.9286 120.03 37.3647 117.841 40.3219 116.838C40.3219 114.276 40.3194 111.68 40.3243 109.086C40.3243 108.633 40.3097 108.173 40.3945 107.732C40.7723 105.756 42.3901 104.443 44.4705 104.438C49.9997 104.426 55.5312 104.433 61.0604 104.433C66.1076 104.433 71.1523 104.433 76.1995 104.433C76.5289 104.433 76.8558 104.433 77.2482 104.433C77.2482 101.108 77.2482 97.8337 77.2482 94.4576C76.9164 94.4576 76.5943 94.4576 76.2722 94.4576C70.743 94.4576 65.2115 94.46 59.6823 94.4576C56.793 94.4552 55.1946 92.8567 55.1897 89.9771C55.1873 88.6499 55.1897 87.3227 55.1897 85.9447C53.5598 85.7582 51.9735 85.6226 50.4041 85.3852C47.5875 84.959 44.8193 84.3269 42.3223 82.8883C41.4989 82.4136 40.644 81.8396 40.0821 81.1009C39.5493 80.401 39.1012 79.425 39.0964 78.5701C39.0334 66.8434 39.0528 55.1142 39.0576 43.3875C39.0576 41.8569 39.8932 40.7719 41.0436 39.9C43.0101 38.4081 45.3037 37.6452 47.6698 37.1221C54.8483 35.5382 62.0073 35.5866 69.0647 37.7421C70.6244 38.2192 72.1114 39.0499 73.5064 39.9194C74.9183 40.8009 75.5238 42.1911 75.519 43.93C75.4826 55.2934 75.4826 66.6593 75.519 78.0252C75.5238 79.7641 74.8626 81.0598 73.5282 82.0648C71.3509 83.7045 68.8225 84.5376 66.1947 84.9929C63.3176 85.4894 60.404 85.7679 57.3937 86.1554C57.3937 87.5722 57.3258 89.1658 57.4203 90.7521C57.4712 91.6143 58.1226 92.1277 58.9921 92.2634C59.2585 92.3045 59.5346 92.2852 59.8058 92.2852C72.1962 92.2852 84.584 92.2852 96.9744 92.2852C98.8416 92.2852 99.4326 91.7015 99.435 89.8681C99.435 88.6596 99.4326 87.4511 99.4277 86.2402C99.4277 86.182 99.4059 86.1239 99.3769 85.981C98.178 85.9084 96.9526 85.8599 95.7319 85.7509C91.9853 85.4167 88.2944 84.8234 84.9086 83.0699C84.0876 82.6461 83.3174 82.0818 82.6223 81.4666C81.7287 80.6771 81.2976 79.6381 81.2976 78.4054C81.3097 66.7998 81.3097 55.1917 81.2976 43.5861C81.2951 42.0167 82.0387 40.8809 83.2084 39.9654C85.0563 38.5195 87.2239 37.7615 89.4665 37.2359C96.783 35.5261 104.09 35.5503 111.302 37.7494C112.942 38.2483 114.494 39.1638 115.955 40.0962C117.238 40.9148 117.771 42.2468 117.769 43.8355C117.74 55.2014 117.73 66.5648 117.776 77.9307C117.783 79.8634 117.001 81.2269 115.49 82.278C113.363 83.7553 110.949 84.5279 108.447 84.9977C106.219 85.4191 103.969 85.6734 101.61 86.0173ZM73.3199 58.7567C72.6733 59.1103 72.1598 59.4155 71.6246 59.6746C71.0821 59.9362 70.5299 60.188 69.9632 60.3866C63.8044 62.5203 57.4833 62.7189 51.0847 61.9488C50.4114 61.8688 49.9052 61.5104 49.9706 60.7741C50.0384 59.9943 50.5833 59.723 51.3293 59.803C51.54 59.8248 51.7507 59.832 51.9614 59.8563C56.4322 60.4181 60.8884 60.297 65.3108 59.4348C67.6576 58.9771 69.9511 58.3256 71.9588 56.9379C72.8937 56.2913 73.3853 55.4775 73.3441 54.2763C73.2739 52.1934 73.3248 50.1058 73.3248 48.0205C73.3248 47.7105 73.3248 47.4005 73.3248 47.0324C68.2509 49.958 62.8187 50.5902 57.2798 50.5926C51.7144 50.595 46.2627 49.9435 41.2301 47.0397C41.2301 49.418 41.3221 51.7115 41.1986 53.9953C41.109 55.6349 41.8331 56.6206 43.1579 57.3423C43.3952 57.4731 43.6398 57.5942 43.8699 57.7395C44.4269 58.0907 44.6812 58.5799 44.3519 59.1975C44.0055 59.8466 43.4485 59.9531 42.814 59.6165C42.3175 59.3525 41.8331 59.0619 41.2301 58.7204C41.2301 60.9727 41.3875 63.1209 41.1865 65.2377C40.9758 67.4537 42.0632 68.6138 43.8505 69.442C44.2598 69.6334 44.6667 69.8416 45.093 69.987C52.3344 72.4766 59.6775 72.4984 67.0473 70.7377C68.6917 70.3454 70.2562 69.5389 71.7893 68.7857C72.5861 68.3934 73.3151 67.7419 73.3199 66.6956C73.3296 64.0945 73.3199 61.4959 73.3199 58.7567ZM41.2276 70.5319C41.2276 73.116 41.2615 75.596 41.2107 78.0712C41.1913 79.0205 41.5037 79.7834 42.2642 80.2363C43.4485 80.9387 44.657 81.6967 45.9576 82.0988C52.9955 84.276 60.1231 84.3075 67.2313 82.5032C68.9242 82.0721 70.5202 81.1906 72.0896 80.3841C72.9881 79.9215 73.378 79.0569 73.3441 77.9549C73.2739 75.751 73.3247 73.5423 73.3223 71.3359C73.3223 71.0816 73.2981 70.8298 73.2836 70.5295C66.4612 75.0681 48.9897 75.4604 41.2276 70.5319ZM83.4773 70.481C83.4773 73.0797 83.516 75.55 83.4579 78.0203C83.4337 79.0448 83.7921 79.8319 84.6155 80.3187C85.7514 80.9871 86.9115 81.704 88.1563 82.0891C95.2258 84.2688 102.38 84.322 109.517 82.4887C111.208 82.0552 112.816 81.1905 114.356 80.3356C114.918 80.0232 115.482 79.1755 115.514 78.5459C115.642 75.952 115.565 73.3509 115.557 70.7523C115.557 70.6869 115.477 70.6215 115.434 70.5537C108.44 75.1795 91.065 75.3635 83.4773 70.481ZM115.56 47.0373C110.486 49.9605 105.054 50.5902 99.5149 50.5902C93.9519 50.5926 88.5026 49.9387 83.4748 47.0373C83.4748 49.5415 83.5281 51.9561 83.4506 54.3683C83.4143 55.5138 83.8308 56.376 84.756 56.8628C86.214 57.6306 87.7034 58.4346 89.2752 58.873C95.4098 60.5755 101.629 60.5755 107.853 59.3743C110.111 58.9384 112.341 58.3159 114.216 56.9064C114.78 56.4826 115.468 55.7778 115.499 55.1699C115.64 52.4962 115.56 49.8103 115.56 47.0373ZM83.4773 58.7446C83.4773 61.3118 83.5184 63.753 83.4579 66.1919C83.4337 67.2163 83.7897 68.0059 84.6107 68.4902C85.7732 69.1732 86.9599 69.8901 88.2314 70.2945C94.3079 72.232 100.515 72.3216 106.761 71.319C109.212 70.9266 111.598 70.28 113.76 68.9964C114.979 68.2723 115.715 67.3495 115.606 65.768C115.468 63.7555 115.572 61.7235 115.572 59.7013C115.572 59.4155 115.572 59.1321 115.572 58.7785C107.882 63.6901 90.4426 63.3655 83.4773 58.7446ZM98.6939 38.2289C94.7705 38.3645 90.8616 38.7278 87.19 40.273C86.0493 40.7525 84.9885 41.5081 84.0319 42.3049C83.2908 42.9225 83.3126 43.6927 84.0101 44.3684C84.6688 45.0077 85.439 45.5914 86.26 45.9959C89.2825 47.4877 92.5569 48.0545 95.8797 48.287C101.031 48.6478 106.153 48.471 111.082 46.7273C112.365 46.272 113.613 45.5745 114.71 44.7655C115.945 43.8525 115.901 42.8014 114.673 41.852C113.826 41.1981 112.862 40.6387 111.869 40.2391C107.648 38.5413 103.201 38.2289 98.6939 38.2289ZM56.3716 38.2289C52.4482 38.3621 48.5417 38.7351 44.8653 40.2705C43.773 40.7259 42.7365 41.4064 41.821 42.1645C40.9467 42.8886 40.9758 43.7387 41.8113 44.5113C42.4652 45.1143 43.2305 45.6447 44.0297 46.037C47.0038 47.4902 50.2152 48.0448 53.4799 48.2821C58.6627 48.6599 63.8165 48.4928 68.7692 46.7273C70.1303 46.2405 71.4284 45.4461 72.5958 44.5791C73.5669 43.8573 73.5476 42.8838 72.6079 42.1136C71.69 41.3628 70.6413 40.6944 69.5466 40.2488C65.3277 38.5316 60.8763 38.2265 56.3716 38.2289ZM118.309 121.963C118.323 120.304 117.013 118.962 115.361 118.943C113.688 118.923 112.336 120.212 112.302 121.859C112.269 123.561 113.603 124.93 115.296 124.93C116.957 124.927 118.294 123.612 118.309 121.963ZM38.4909 121.922C38.4885 123.588 39.806 124.918 41.4626 124.922C43.0949 124.927 44.4608 123.571 44.4729 121.936C44.4826 120.309 43.1143 118.94 41.4795 118.94C39.8133 118.943 38.4958 120.258 38.4909 121.922ZM63.0124 121.914C63.01 120.253 61.6804 118.928 60.0214 118.94C58.3721 118.952 57.0231 120.306 57.0328 121.941C57.0425 123.573 58.4108 124.925 60.048 124.92C61.7022 124.915 63.0148 123.585 63.0124 121.914ZM93.7896 121.75C93.7896 123.409 95.1192 124.743 96.7661 124.738C98.3936 124.736 99.7692 123.358 99.7619 121.738C99.7547 120.108 98.3984 118.764 96.754 118.759C95.0998 118.756 93.7872 120.079 93.7896 121.75ZM78.3937 118.943C76.742 118.948 75.4221 120.277 75.4221 121.936C75.4221 123.585 76.7614 124.925 78.4058 124.922C80.0479 124.92 81.3799 123.576 81.3775 121.924C81.3726 120.27 80.0406 118.938 78.3937 118.943Z" fill="#1EC1CB"/>
<path d="M73.3195 58.7567C73.3195 61.4959 73.3292 64.0945 73.3146 66.6908C73.3098 67.737 72.5808 68.3909 71.784 68.7809C70.251 69.5341 68.6864 70.3406 67.042 70.7329C59.6722 72.4936 52.3267 72.4718 45.0877 69.9821C44.6614 69.8368 44.257 69.6261 43.8453 69.4372C42.0603 68.6065 40.9705 67.4488 41.1812 65.2328C41.3822 63.1185 41.2248 60.9703 41.2248 58.7156C41.8278 59.0595 42.3122 59.3501 42.8087 59.6116C43.4432 59.9483 44.0027 59.8417 44.3466 59.1927C44.676 58.5751 44.4217 58.0859 43.8646 57.7347C43.6346 57.5894 43.3924 57.4683 43.1526 57.3375C41.8303 56.6134 41.1037 55.6277 41.1933 53.9905C41.3168 51.7066 41.2248 49.4131 41.2248 47.0348C46.2599 49.9387 51.7115 50.5902 57.2746 50.5853C62.8134 50.5829 68.2432 49.9532 73.3195 47.0252C73.3195 47.3933 73.3195 47.7033 73.3195 48.0133C73.3195 50.0985 73.2686 52.1862 73.3389 54.269C73.38 55.4702 72.8884 56.2864 71.9536 56.9306C69.9458 58.3184 67.6523 58.9698 65.3055 59.4276C60.8832 60.2898 56.4293 60.4109 51.9561 59.849C51.7454 59.8223 51.5347 59.8175 51.324 59.7957C50.5805 59.7158 50.0356 59.987 49.9653 60.7669C49.9 61.5031 50.4061 61.8616 51.0794 61.9415C57.478 62.7116 63.7991 62.5131 69.9579 60.3794C70.5271 60.1832 71.0768 59.9313 71.6193 59.6673C72.1594 59.4155 72.6728 59.1103 73.3195 58.7567ZM57.0929 56.5359C58.7204 56.4341 60.285 56.3542 61.8471 56.2283C62.7722 56.1532 63.2857 55.6374 63.1379 54.9689C62.9587 54.1576 62.3629 54.0292 61.6146 54.0631C59.51 54.1527 57.4005 54.2351 55.2935 54.223C54.0026 54.2157 52.7118 54.0316 51.4209 53.9251C50.7597 53.8718 50.2608 54.1285 50.1446 54.7921C50.0186 55.5066 50.4158 55.928 51.1157 56.0612C51.3216 56.0999 51.5299 56.1459 51.7406 56.1605C53.5449 56.2913 55.3468 56.4148 57.0929 56.5359ZM56.9549 68.1027C58.8512 67.9889 60.4448 67.9041 62.0384 67.7903C62.7383 67.7419 63.1936 67.3495 63.1403 66.6254C63.0871 65.9061 62.5954 65.5937 61.8858 65.6276C61.7357 65.6348 61.5855 65.6542 61.4353 65.6518C58.1561 65.6009 54.8769 65.5646 51.5977 65.4847C50.7597 65.4653 50.1591 65.7705 50.13 66.451C50.0961 67.2333 50.5587 67.5893 51.2998 67.6499C53.2809 67.8048 55.2644 67.9671 56.9549 68.1027ZM67.0589 68.2069C68.5411 68.265 69.7496 67.1558 69.8126 65.6809C69.8732 64.2568 68.6864 62.9902 67.2406 62.9393C65.8407 62.8884 64.6153 64.034 64.5499 65.4508C64.4796 66.9378 65.5816 68.1488 67.0589 68.2069ZM69.8078 54.1406C69.8828 52.7335 68.7785 51.5056 67.3496 51.4112C65.865 51.3119 64.6274 52.3969 64.5499 53.867C64.4724 55.3467 65.5453 56.5552 67.0347 56.6618C68.4564 56.7611 69.7303 55.6034 69.8078 54.1406Z" fill="#00494D"/>
<path d="M41.2273 70.5319C48.9894 75.4604 66.4632 75.068 73.2808 70.5294C73.2953 70.8298 73.3195 71.0816 73.3195 71.3359C73.3219 73.5423 73.2711 75.751 73.3413 77.9549C73.3776 79.0569 72.9877 79.9215 72.0868 80.3841C70.515 81.193 68.919 82.0745 67.2285 82.5032C60.1203 84.3099 52.9951 84.276 45.9548 82.0988C44.6542 81.6967 43.4481 80.9387 42.2614 80.2363C41.4985 79.7859 41.1885 79.0205 41.2079 78.0712C41.2587 75.5936 41.2273 73.116 41.2273 70.5319ZM56.9016 79.672C58.7398 79.5679 60.2753 79.4807 61.8083 79.3911C62.5494 79.3475 63.121 79.069 63.1452 78.231C63.1646 77.5602 62.6076 77.146 61.7357 77.2211C58.3305 77.5117 54.9326 77.5117 51.542 77.0588C50.8227 76.9644 50.2754 77.1993 50.1325 77.9767C50.0114 78.6427 50.4934 79.1465 51.3458 79.2216C53.2906 79.3959 55.2426 79.5388 56.9016 79.672ZM67.1558 79.781C68.6235 79.7883 69.832 78.5919 69.8151 77.1484C69.7957 75.6953 68.5848 74.5037 67.1389 74.5159C65.7221 74.528 64.5669 75.688 64.5451 77.1194C64.5209 78.5919 65.6809 79.7737 67.1558 79.781Z" fill="#00494D"/>
<path d="M83.4771 70.481C91.0672 75.3635 108.439 75.177 115.436 70.5513C115.48 70.6166 115.56 70.6845 115.56 70.7498C115.567 73.3485 115.644 75.952 115.516 78.5434C115.485 79.1731 114.92 80.0208 114.358 80.3332C112.818 81.1881 111.21 82.0527 109.52 82.4863C102.382 84.3172 95.228 84.2663 88.1586 82.0866C86.9137 81.7016 85.7536 80.9847 84.6178 80.3163C83.7943 79.8319 83.4359 79.0423 83.4601 78.0179C83.5158 75.5524 83.4771 73.0797 83.4771 70.481ZM99.2435 79.672C101.091 79.5655 102.658 79.4928 104.22 79.379C105.095 79.316 105.548 78.8462 105.456 78.1511C105.347 77.3398 104.79 77.1509 104.073 77.2138C100.668 77.5214 97.2672 77.5045 93.8694 77.0685C93.0047 76.9571 92.4332 77.3713 92.438 78.0591C92.4429 78.8316 92.9224 79.1755 93.6562 79.2313C95.6083 79.3814 97.5603 79.5388 99.2435 79.672ZM109.454 74.5159C107.991 74.5352 106.831 75.7389 106.86 77.209C106.892 78.6766 108.088 79.8125 109.568 79.7786C110.99 79.7471 112.13 78.5701 112.123 77.1412C112.118 75.6832 110.912 74.4989 109.454 74.5159Z" fill="#00494D"/>
<path d="M115.56 47.0373C115.56 49.8079 115.64 52.4938 115.499 55.1675C115.468 55.7754 114.78 56.4802 114.215 56.904C112.341 58.3159 110.11 58.9359 107.853 59.3719C101.629 60.5731 95.4096 60.5731 89.275 58.8706C87.7008 58.4346 86.2138 57.6281 84.7558 56.8604C83.8307 56.3736 83.4141 55.5114 83.4504 54.3659C83.5279 51.9561 83.4746 49.5415 83.4746 47.0349C88.5025 49.9363 93.9541 50.5902 99.5147 50.5877C105.056 50.5902 110.488 49.9605 115.56 47.0373ZM99.4614 56.5407C101.14 56.4293 102.765 56.33 104.388 56.2113C105.104 56.1581 105.511 55.7512 105.443 55.0222C105.373 54.2787 104.855 54.0171 104.165 54.0559C103.654 54.0849 103.143 54.1988 102.634 54.1866C99.7157 54.1213 96.795 54.0462 93.879 53.9324C93.1428 53.9033 92.5785 54.0656 92.4646 54.8357C92.3508 55.6083 92.8255 55.9934 93.5642 56.0854C93.7143 56.1048 93.8621 56.1435 94.0098 56.1556C95.8407 56.2864 97.6741 56.4148 99.4614 56.5407ZM112.123 53.9929C112.106 52.5325 110.902 51.3724 109.432 51.4015C107.994 51.4281 106.863 52.5785 106.86 54.0123C106.858 55.4751 108.042 56.6666 109.5 56.6715C110.934 56.6763 112.142 55.4436 112.123 53.9929Z" fill="#00494D"/>
<path d="M83.4776 58.7446C90.4453 63.3656 107.883 63.6901 115.572 58.7785C115.572 59.1321 115.572 59.4155 115.572 59.7013C115.572 61.7235 115.468 63.7555 115.606 65.7681C115.715 67.3495 114.979 68.2723 113.761 68.9964C111.598 70.28 109.215 70.9242 106.761 71.319C100.513 72.3216 94.3082 72.2296 88.2317 70.2945C86.9602 69.8901 85.7711 69.1732 84.611 68.4902C83.79 68.0083 83.434 67.2163 83.4582 66.1919C83.5163 63.7531 83.4776 61.3118 83.4776 58.7446ZM99.2779 68.1027C101.14 67.9913 102.702 67.8993 104.265 67.8024C105.001 67.7564 105.497 67.4125 105.442 66.623C105.386 65.8262 104.831 65.5816 104.102 65.6324C104.013 65.6397 103.921 65.6494 103.831 65.647C100.525 65.5985 97.2193 65.5622 93.9134 65.4871C93.0851 65.4677 92.4748 65.785 92.453 66.4583C92.4264 67.2333 92.8793 67.5941 93.6252 67.6523C95.6063 67.8048 97.585 67.9671 99.2779 68.1027ZM109.442 68.2093C110.913 68.2384 112.114 67.0759 112.123 65.6131C112.136 64.1623 110.934 62.9417 109.491 62.9393C108.079 62.9345 106.887 64.1018 106.861 65.5162C106.832 66.9959 107.965 68.1802 109.442 68.2093Z" fill="#00494D"/>
<path d="M98.6938 38.2289C103.198 38.2289 107.647 38.5413 111.869 40.2439C112.862 40.6435 113.826 41.203 114.673 41.8569C115.901 42.8063 115.945 43.8574 114.71 44.7704C113.613 45.5817 112.365 46.2792 111.082 46.7321C106.153 48.4759 101.033 48.6527 95.8796 48.2918C92.5543 48.0593 89.2824 47.4902 86.2599 46.0007C85.4389 45.5963 84.6687 45.0126 84.01 44.3732C83.3125 43.6951 83.2882 42.9274 84.0317 42.3098C84.9908 41.513 86.0516 40.7574 87.1899 40.2778C90.8614 38.7278 94.7703 38.3645 98.6938 38.2289Z" fill="#00494D"/>
<path d="M56.3714 38.2289C60.8761 38.2265 65.3275 38.5316 69.5416 40.2463C70.6387 40.692 71.685 41.3604 72.6028 42.1112C73.5425 42.8813 73.5619 43.8549 72.5907 44.5766C71.4234 45.4437 70.1277 46.2381 68.7642 46.7248C63.8114 48.4904 58.6577 48.6575 53.4749 48.2797C50.2102 48.0423 46.9988 47.4877 44.0247 46.0346C43.2255 45.6447 42.4602 45.1143 41.8063 44.5088C40.9707 43.7363 40.9417 42.8862 41.816 42.162C42.7314 41.404 43.768 40.7234 44.8603 40.2681C48.5415 38.7375 52.448 38.3645 56.3714 38.2289Z" fill="#00494D"/>
<path d="M118.309 121.963C118.294 123.612 116.96 124.927 115.296 124.927C113.603 124.93 112.266 123.559 112.302 121.856C112.336 120.209 113.688 118.921 115.361 118.94C117.013 118.962 118.323 120.304 118.309 121.963Z" fill="#00494D"/>
<path d="M38.4912 121.922C38.4936 120.258 39.8136 118.94 41.4774 118.94C43.1122 118.938 44.4805 120.309 44.4708 121.936C44.4611 123.571 43.0952 124.927 41.4604 124.922C39.8063 124.917 38.4888 123.588 38.4912 121.922Z" fill="#00494D"/>
<path d="M63.0124 121.914C63.0148 123.583 61.7022 124.915 60.0504 124.92C58.4133 124.927 57.0449 123.573 57.0352 121.941C57.0255 120.306 58.3745 118.952 60.0238 118.94C61.6804 118.931 63.0124 120.255 63.0124 121.914Z" fill="#00494D"/>
<path d="M93.79 121.75C93.79 120.079 95.1027 118.756 96.7568 118.761C98.4013 118.766 99.7575 120.11 99.7648 121.74C99.7721 123.358 98.3964 124.736 96.7689 124.741C95.1196 124.741 93.79 123.406 93.79 121.75Z" fill="#00494D"/>
<path d="M78.3935 118.943C80.0404 118.938 81.3724 120.27 81.3773 121.924C81.3797 123.576 80.0501 124.918 78.4056 124.922C76.7636 124.925 75.4243 123.585 75.4219 121.936C75.4195 120.28 76.7418 118.948 78.3935 118.943Z" fill="#00494D"/>
<path d="M57.0936 56.5359C55.3474 56.4148 53.5431 56.2888 51.7412 56.158C51.5305 56.1435 51.3247 56.0975 51.1164 56.0587C50.4165 55.9231 50.0193 55.5017 50.1452 54.7897C50.2615 54.1261 50.7604 53.8694 51.4215 53.9227C52.7124 54.0292 54.0033 54.2133 55.2941 54.2205C57.4011 54.2327 59.5082 54.1503 61.6152 54.0607C62.3636 54.0292 62.9594 54.1552 63.1386 54.9665C63.2863 55.6349 62.7729 56.1508 61.8477 56.2259C60.288 56.3566 58.7211 56.4341 57.0936 56.5359Z" fill="#1EC1CB"/>
<path d="M56.9555 68.1027C55.2626 67.9671 53.2815 67.8073 51.3004 67.6499C50.5593 67.5917 50.0967 67.2333 50.1307 66.451C50.1597 65.7705 50.7603 65.4653 51.5983 65.4847C54.8775 65.5622 58.1567 65.6009 61.436 65.6518C61.5861 65.6542 61.7363 65.6348 61.8864 65.6276C62.596 65.5937 63.0901 65.9061 63.141 66.6254C63.1942 67.3495 62.7389 67.7419 62.039 67.7903C60.4454 67.9017 58.8518 67.9865 56.9555 68.1027Z" fill="#1EC1CB"/>
<path d="M67.0591 68.2069C65.5818 68.1488 64.4798 66.9378 64.5501 65.4484C64.6154 64.0316 65.8409 62.8884 67.2408 62.9369C68.6866 62.9877 69.8733 64.2544 69.8128 65.6784C69.7474 67.1558 68.5389 68.265 67.0591 68.2069Z" fill="#1EC1CB"/>
<path d="M69.808 54.1406C69.7305 55.6034 68.4566 56.7611 67.0349 56.6594C65.5455 56.5528 64.4702 55.3467 64.5501 53.8645C64.6276 52.3945 65.8652 51.3095 67.3498 51.4088C68.7787 51.5056 69.883 52.7335 69.808 54.1406Z" fill="#1EC1CB"/>
<path d="M56.9023 79.672C55.2458 79.5388 53.2938 79.3959 51.3441 79.224C50.4916 79.1489 50.0097 78.6452 50.1308 77.9791C50.2737 77.2017 50.821 76.9668 51.5403 77.0612C54.9334 77.5117 58.3312 77.5117 61.734 77.2235C62.6059 77.1484 63.1629 77.5626 63.1435 78.2334C63.1193 79.0714 62.5477 79.3499 61.8066 79.3935C60.2736 79.4807 58.7405 79.5655 56.9023 79.672Z" fill="#1EC1CB"/>
<path d="M67.1564 79.781C65.6815 79.7737 64.5238 78.5919 64.5432 77.1194C64.5626 75.688 65.7202 74.528 67.137 74.5159C68.5853 74.5037 69.7963 75.6929 69.8132 77.1484C69.8326 78.5919 68.6241 79.7883 67.1564 79.781Z" fill="#1EC1CB"/>
<path d="M99.244 79.672C97.5632 79.5388 95.6112 79.3814 93.6567 79.2288C92.9229 79.1731 92.4434 78.8268 92.4385 78.0566C92.4337 77.3713 93.0052 76.9571 93.8698 77.0661C97.2677 77.502 100.668 77.519 104.073 77.2114C104.79 77.146 105.347 77.3373 105.456 78.1487C105.548 78.8438 105.095 79.3136 104.221 79.3766C102.656 79.4928 101.089 79.5655 99.244 79.672Z" fill="#1EC1CB"/>
<path d="M109.454 74.5159C110.915 74.4965 112.118 75.6808 112.126 77.1412C112.133 78.5725 110.992 79.7495 109.571 79.7786C108.091 79.8101 106.892 78.6742 106.863 77.209C106.831 75.7389 107.992 74.5352 109.454 74.5159Z" fill="#1EC1CB"/>
<path d="M99.4614 56.5407C97.674 56.4148 95.8407 56.2864 94.0073 56.1556C93.8571 56.1459 93.7094 56.1048 93.5617 56.0854C92.823 55.9934 92.3483 55.6083 92.4621 54.8357C92.576 54.0655 93.1403 53.9033 93.8765 53.9323C96.7949 54.0462 99.7132 54.1213 102.632 54.1866C103.14 54.1988 103.651 54.0849 104.162 54.0559C104.852 54.0171 105.371 54.2811 105.441 55.0222C105.509 55.7512 105.104 56.158 104.385 56.2113C102.762 56.33 101.14 56.4293 99.4614 56.5407Z" fill="#1EC1CB"/>
<path d="M112.123 53.9929C112.14 55.4436 110.934 56.6763 109.5 56.6715C108.042 56.6666 106.858 55.4751 106.86 54.0123C106.863 52.5761 107.994 51.4281 109.432 51.4015C110.902 51.3748 112.106 52.5325 112.123 53.9929Z" fill="#1EC1CB"/>
<path d="M99.2771 68.1027C97.5842 67.9671 95.6056 67.8049 93.6245 67.6523C92.8785 67.5942 92.4256 67.2333 92.4523 66.4583C92.4741 65.7826 93.0844 65.4677 93.9127 65.4871C97.2185 65.5622 100.524 65.5985 103.83 65.647C103.92 65.6494 104.012 65.6373 104.102 65.6324C104.83 65.584 105.383 65.8262 105.441 66.623C105.497 67.4125 105 67.7564 104.264 67.8024C102.702 67.8993 101.14 67.9889 99.2771 68.1027Z" fill="#1EC1CB"/>
<path d="M109.442 68.2093C107.964 68.1802 106.829 66.9959 106.86 65.5138C106.889 64.0994 108.081 62.932 109.49 62.9369C110.934 62.9417 112.135 64.1599 112.123 65.6106C112.113 67.0759 110.912 68.2384 109.442 68.2093Z" fill="#1EC1CB"/>
<defs>
<filter id="filter0_f" x="-4" y="-0.997025" width="165" height="165" filterUnits="userSpaceOnUse" color-interpolation-filters="sRGB">
<feFlood flood-opacity="0" result="BackgroundImageFix"/>
<feBlend mode="normal" in="SourceGraphic" in2="BackgroundImageFix" result="shape"/>
<feGaussianBlur stdDeviation="18" result="effect1_foregroundBlur"/>
</filter>
</defs>
</svg>
