<svg width="141" height="142" viewBox="0 0 141 142" fill="none" xmlns="http://www.w3.org/2000/svg">
<g filter="url(#filter0_f)">
<path d="M27.0816 70.1646C27.9009 70.7109 28.5898 71.2174 29.3231 71.654C33.2345 73.9818 37.5687 75.1968 42.0595 75.9278C51.5733 77.4747 61.0219 77.2676 70.34 74.7028C72.0831 74.2238 73.7636 73.5102 75.4414 72.8341C76.433 72.4349 76.7435 71.5742 76.3338 70.7708C75.945 70.0099 75.0813 69.713 74.1706 70.1147C67.0339 73.2458 59.4615 74.9893 51.7351 74.8446C45.8301 74.7348 40.0216 73.9838 34.5392 71.7783C32.6422 71.0149 30.86 69.9196 29.1691 68.7819C27.6243 67.744 26.9276 65.1947 27.0059 63.3135C27.092 61.2278 27.0242 59.1345 27.0268 57.0463C27.0268 56.7469 27.0581 56.4475 27.0633 56.3527C29.3857 57.4854 31.6376 58.8102 34.0643 59.7208C40.246 62.0361 46.7486 62.7422 53.3425 62.7546C60.033 62.7671 66.6112 62.0286 72.9312 59.7757C75.4205 58.8875 77.7455 57.7124 79.9034 56.0034C79.94 56.3228 79.9896 56.5448 79.9896 56.7693C79.9922 63.8474 79.9843 70.928 80 78.0061C80.0026 79.4581 79.3294 80.5808 78.2935 81.5489C76.1381 83.5623 73.4609 84.7024 70.661 85.5831C63.9131 87.7063 56.9643 88.2702 49.9059 87.8959C44.7367 87.624 39.6406 86.9229 34.8393 85.0068C32.9057 84.2359 31.0714 83.173 29.3361 82.0404C27.6896 80.965 26.9146 79.3583 27.0085 77.3624C27.1051 75.3091 27.0268 73.2458 27.032 71.19C27.0294 70.8856 27.0581 70.5862 27.0816 70.1646Z" fill="#00494C"/>
<path d="M27.0784 41.4921C27.8668 42.0897 28.5297 42.6436 29.2353 43.1212C32.9991 45.6671 37.1698 46.9961 41.4911 47.7956C50.6459 49.4875 59.7379 49.261 68.7044 46.4558C70.3817 45.9318 71.9988 45.1514 73.6133 44.4119C74.5674 43.9753 74.8662 43.0338 74.472 42.1552C74.0979 41.3229 72.8762 42.6818 71.9999 43.1212C65.1325 46.5458 58.4348 47.9539 51 47.7956C45.3178 47.6755 38.7754 46.8242 33.5 44.4119C31.6745 43.5769 29.1271 42.2476 27.5 41.0033C26.0135 39.8681 26.9302 36.0562 27.0056 33.9987C27.0884 31.7174 27.4973 35.2873 27.4999 33.0033C27.4798 39.8581 27.4446 41.6121 27.4999 33.9987C29.7346 35.2376 27.4998 32.5012 27.0784 32.0012C27.4801 32.0012 32.4998 28.0012 38.9998 26.5012C45.4998 25.0012 42.4998 28.0033 49.0414 27.1439C51.4368 26.1725 62.9232 29.0132 64.9998 27.1439C65.0349 27.4932 66.9998 30.0033 71.9999 31.0033C79.4998 33.9987 77.9848 42.3271 77.9999 50.0687C78.0024 51.6569 77.3546 52.8849 76.3577 53.9436C74.2837 56.1458 71.7075 57.3929 69.0133 58.3561C62.52 60.6784 55.8334 61.2951 49.0414 60.8857C44.0673 60.5883 39.1634 59.8215 34.5433 57.7258C32.6828 56.8826 30.9176 55.7201 29.2478 54.4812C27.6634 53.3051 26.9177 51.5477 27.0081 49.3647C27.101 47.1189 27.0256 44.8621 27.0307 42.6136C27.0282 42.2807 27.0558 41.9532 27.0784 41.4921Z" fill="#00494C"/>
<path d="M55.2096 24.9958C56.8544 25.1794 58.504 25.3219 60.144 25.5513C65.0712 26.2397 69.8848 27.3483 74.1961 29.9592C75.3675 30.6693 76.4375 31.5968 77.4181 32.5629C78.8576 33.9831 79.4518 35.7873 79.4348 37.821C79.4035 41.2917 79.4276 44.7649 79.4252 48.2357C79.4252 48.4772 79.43 48.7211 79.3986 48.9578C79.2875 49.7669 78.6934 50.3249 77.9615 50.3225C77.1838 50.3225 76.5631 49.738 76.5413 48.8636C76.5027 47.2333 76.5268 45.603 76.5172 43.9727C76.5148 43.7094 76.4858 43.4486 76.4737 43.2553C74.8362 44.1828 73.2783 45.2117 71.6021 45.9846C66.8802 48.1608 61.8274 49.0279 56.6901 49.395C50.024 49.8732 43.4206 49.4457 36.9524 47.6367C33.588 46.6971 30.407 45.3591 27.6125 43.0718C27.5618 43.2288 27.5014 43.3278 27.5014 43.4292C27.4966 45.9653 27.4821 48.5013 27.5039 51.0374C27.5159 52.3634 28.214 53.385 29.1342 54.2594C31.0616 56.0902 33.4334 57.136 35.9042 57.9668C41.725 59.9256 47.7319 60.5367 53.8401 60.358C55.1975 60.3193 56.5501 60.1913 57.9074 60.1333C58.876 60.0923 59.4919 60.5947 59.5643 61.4158C59.6416 62.2829 59.074 62.9399 58.0958 63.0172C50.1761 63.6331 42.3554 63.237 34.757 60.6816C32.1702 59.8121 29.7622 58.5876 27.5546 56.7374C27.528 57.107 27.4966 57.3582 27.4942 57.6094C27.4894 59.7517 27.5401 61.8965 27.4773 64.0388C27.429 65.645 28.0473 66.901 29.1777 67.9661C30.8828 69.5698 32.9431 70.5722 35.1096 71.3499C41.5705 73.6686 48.2608 74.3038 55.0743 73.9898C55.9776 73.9487 56.8809 73.8546 57.7818 73.7821C58.7552 73.7048 59.4653 74.2072 59.5595 75.0453C59.6585 75.9124 59.1199 76.5524 58.1248 76.6587C53.6928 77.1321 49.2559 77.0693 44.8408 76.5138C42.481 76.2167 40.1237 75.8085 37.8123 75.2554C34.1193 74.3714 30.6292 72.973 27.6077 70.4514C27.5594 70.6012 27.4966 70.7026 27.4966 70.8016C27.4918 73.3063 27.4797 75.8133 27.4966 78.318C27.5063 79.7164 28.2381 80.7792 29.2187 81.6849C31.2645 83.5712 33.7667 84.6315 36.3631 85.4552C42.9544 87.5444 49.722 88.0637 56.5839 87.5468C58.1465 87.4284 59.6947 87.1386 61.255 87.0106C62.0158 86.9478 62.168 86.6266 62.1656 85.9261C62.1438 79.1633 62.2356 72.4006 62.1221 65.6402C62.069 62.4593 63.3708 60.1333 65.7813 58.2712C68.7062 56.0129 72.0924 54.7279 75.6211 53.8729C85.4634 51.489 95.2936 51.6171 105.063 54.3222C107.868 55.0975 110.539 56.2085 112.923 57.9137C114.862 59.3001 116.425 60.9763 116.872 63.4302C116.956 63.9012 116.98 64.3891 116.98 64.8697C116.988 78.2431 116.973 91.6165 117 104.99C117.005 107.144 116.251 108.934 114.778 110.446C112.461 112.828 109.527 114.154 106.45 115.197C102.339 116.591 98.0929 117.284 93.772 117.574C93.4169 117.598 93.0643 117.682 92.7092 117.738C90.5355 117.738 88.3617 117.738 86.188 117.738C85.9247 117.69 85.6614 117.61 85.3958 117.593C81.6473 117.378 77.9591 116.798 74.3579 115.733C70.9838 114.733 67.7449 113.443 65.0543 111.072C63.1196 109.364 62.0062 107.282 62.1511 104.635C62.1704 104.265 62.1535 103.896 62.1535 103.505C61.8854 103.529 61.796 103.534 61.7067 103.548C53.5865 104.785 45.5219 104.562 37.5514 102.502C34.0589 101.599 30.7041 100.336 27.8565 98.0195C25.6803 96.2466 24.55 94.0463 24.5596 91.1262C24.62 73.4705 24.5886 55.8124 24.591 38.1543C24.591 37.792 24.579 37.4297 24.6007 37.0674C24.7577 34.5603 26.103 32.7271 28.0014 31.2441C28.6342 30.749 29.3443 30.8891 29.866 31.4905C30.3901 32.0919 30.366 32.7634 29.8588 33.3817C29.6704 33.6135 29.424 33.7995 29.2066 34.0096C26.9121 36.222 26.8228 38.5866 29.2694 40.5985C30.779 41.84 32.5615 42.8496 34.3705 43.6104C38.974 45.5499 43.8602 46.3083 48.8236 46.615C55.3013 47.0159 61.6656 46.4483 67.8415 44.3543C70.3896 43.4896 72.8749 42.4511 74.8796 40.5695C77.0558 38.5238 77.1307 36.2534 74.9762 34.2101C74.0053 33.2899 72.8605 32.4904 71.6697 31.8769C66.274 29.1018 60.4145 28.1961 54.4415 27.9135C49.6278 27.6864 44.8553 28.0729 40.143 29.1332C38.9716 29.3965 38.1915 28.952 38.0248 28.0318C37.8678 27.1696 38.4354 26.5078 39.5634 26.2807C40.5971 26.073 41.6308 25.8508 42.6767 25.7131C44.6765 25.4451 46.6836 25.2301 48.6859 24.9934C50.8596 24.9958 53.0358 24.9958 55.2096 24.9958ZM65.0639 70.2002C65.0639 72.6276 65.1509 74.8279 65.0398 77.0186C64.9311 79.173 65.832 80.726 67.4599 81.9868C69.9935 83.9456 72.9232 85.0397 75.9689 85.8416C82.1931 87.4792 88.5284 87.8221 94.9168 87.2666C99.1967 86.8923 103.399 86.0976 107.389 84.4287C109.264 83.6461 111.044 82.7041 112.512 81.2598C113.572 80.2164 114.162 79.0039 114.101 77.4678C114.036 75.8109 114.087 74.1492 114.087 72.4875C114.087 71.7822 114.087 71.077 114.087 70.1978C111.604 72.2725 108.916 73.5309 106.054 74.4366C100.093 76.3278 93.9579 76.8978 87.7386 76.794C86.2604 76.7698 85.5987 76.3012 85.6107 75.2941C85.6228 74.2869 86.2725 73.8594 87.7845 73.8932C93.1826 74.0164 98.518 73.5526 103.73 72.0793C106.819 71.2074 109.831 70.1157 112.268 67.9081C114.751 65.6595 114.72 63.2539 112.232 61.0294C111.896 60.7275 111.553 60.4111 111.162 60.1985C109.73 59.4305 108.322 58.59 106.819 57.9886C102.117 56.1071 97.1703 55.3921 92.1392 55.1917C85.5455 54.9284 79.0556 55.5274 72.8049 57.7929C70.4983 58.6286 68.2714 59.6575 66.5228 61.4497C64.6243 63.3964 64.5954 65.6112 66.5155 67.5193C67.3609 68.3574 68.3415 69.1399 69.3994 69.6665C71.1432 70.536 73.0174 71.147 74.8023 71.9392C75.2781 72.1518 75.8071 72.5624 75.9907 73.0116C76.138 73.3763 75.952 74.142 75.6477 74.3618C75.2323 74.6613 74.5053 74.8134 74.0125 74.6757C70.834 73.7797 67.8318 72.473 65.0639 70.2002ZM65.1146 97.563C65.0929 97.9712 65.0663 98.261 65.0663 98.5532C65.0615 100.546 65.134 102.541 65.0446 104.529C64.9576 106.461 65.675 108.016 67.199 109.057C68.8052 110.154 70.5031 111.183 72.2929 111.929C76.7394 113.784 81.4564 114.46 86.2387 114.726C92.772 115.086 99.2039 114.542 105.45 112.487C108.041 111.634 110.522 110.528 112.515 108.581C113.473 107.644 114.099 106.56 114.094 105.152C114.08 98.2996 114.087 91.4451 114.084 84.5929C114.084 84.3755 114.039 84.1581 114.005 83.8514C112.007 85.5059 109.855 86.6435 107.551 87.5033C101.701 89.6843 95.6124 90.3992 89.4196 90.3872C83.3162 90.3751 77.2973 89.6916 71.5755 87.4502C69.3317 86.571 67.2449 85.2861 65.0953 84.1895C65.0905 84.2813 65.0615 84.5712 65.0615 84.861C65.0567 86.8826 65.1219 88.909 65.0422 90.9282C64.9697 92.7493 65.6146 94.2492 67.0445 95.254C68.6096 96.3553 70.2592 97.4156 72.0151 98.1547C77.0872 100.29 82.466 101.017 87.9318 101.123C95.0835 101.263 102.093 100.543 108.698 97.5122C109.544 97.1234 110.341 97.4108 110.701 98.1475C111.08 98.9228 110.79 99.7585 109.875 100.145C108.322 100.799 106.769 101.49 105.153 101.954C96.5302 104.437 87.7821 104.637 78.9759 103.14C74.8192 102.432 70.8075 101.256 67.187 99.0025C66.5107 98.5798 65.873 98.0919 65.1146 97.563ZM27.4918 84.0712C27.4918 86.5783 27.5498 88.9283 27.4725 91.2736C27.4145 93.0247 28.1004 94.3603 29.3612 95.481C30.9408 96.8867 32.7933 97.8214 34.7545 98.5412C42.0849 101.232 49.6689 101.809 57.3882 101.154C58.9677 101.022 60.5353 100.761 62.0883 100.563C62.0883 96.9012 62.0883 93.3894 62.0883 89.8655C61.8999 89.8655 61.7791 89.8486 61.6632 89.8679C56.0283 90.7712 50.3693 90.8606 44.7103 90.1891C38.5803 89.4621 32.6508 88.1047 27.4918 84.0712Z" fill="#1EC1CB"/>
<path d="M65.0643 70.2002C67.8322 72.4729 70.8344 73.7796 74.0177 74.6757C74.5104 74.8158 75.2374 74.6612 75.6529 74.3617C75.9572 74.1443 76.1432 73.3763 75.9958 73.0115C75.8123 72.5623 75.2833 72.1517 74.8075 71.9392C73.0226 71.1445 71.1508 70.5359 69.4045 69.6664C68.3466 69.1398 67.366 68.3573 66.5207 67.5192C64.5981 65.6087 64.6295 63.3963 66.5279 61.4496C68.2766 59.655 70.5035 58.6285 72.8101 57.7929C79.0608 55.5249 85.5507 54.9283 92.1444 55.1916C97.1755 55.3921 102.122 56.1094 106.825 57.9885C108.327 58.5899 109.735 59.4328 111.167 60.1985C111.561 60.4086 111.901 60.7274 112.237 61.0293C114.725 63.2514 114.754 65.6594 112.273 67.9081C109.836 70.1132 106.827 71.2049 103.735 72.0793C98.5232 73.5502 93.1902 74.0163 87.7897 73.8931C86.2777 73.8593 85.628 74.2868 85.6159 75.294C85.6038 76.3012 86.2656 76.7697 87.7438 76.7939C93.9631 76.8977 100.098 76.3277 106.059 74.4366C108.921 73.5284 111.609 72.2725 114.092 70.1977C114.092 71.0745 114.092 71.7798 114.092 72.4874C114.092 74.1467 114.041 75.8084 114.107 77.4677C114.167 79.0063 113.575 80.2188 112.517 81.2597C111.049 82.7041 109.269 83.646 107.395 84.4286C103.402 86.0976 99.2019 86.8922 94.922 87.2665C88.5336 87.8245 82.1983 87.4815 75.9741 85.8415C72.9284 85.0397 69.9963 83.9455 67.4651 81.9867C65.8372 80.726 64.9363 79.1729 65.045 77.0185C65.1512 74.8278 65.0643 72.6275 65.0643 70.2002ZM81.2129 76.2335C82.0196 76.207 82.6306 75.579 82.6234 74.7795C82.6186 73.939 81.9688 73.3304 81.1042 73.3521C80.2878 73.3738 79.6719 73.9922 79.6792 74.7868C79.684 75.5935 80.3917 76.2601 81.2129 76.2335Z" fill="#00494C"/>
<path d="M65.1146 97.5629C65.873 98.0918 66.5106 98.5821 67.1893 99.0048C70.8098 101.258 74.8216 102.435 78.9783 103.142C87.7844 104.64 96.5302 104.439 105.155 101.956C106.769 101.493 108.324 100.802 109.877 100.147C110.795 99.7608 111.082 98.9275 110.703 98.1498C110.343 97.4131 109.544 97.1257 108.701 97.5146C102.095 100.546 95.0858 101.266 87.9342 101.125C82.4684 101.019 77.092 100.292 72.0175 98.157C70.2616 97.418 68.6119 96.3577 67.0468 95.2563C65.617 94.2515 64.9721 92.7516 65.0445 90.9305C65.1242 88.9113 65.0615 86.8849 65.0639 84.8633C65.0639 84.5735 65.0928 84.2837 65.0977 84.1919C67.2473 85.2884 69.3317 86.5709 71.5779 87.4525C77.2997 89.6939 83.3186 90.3774 89.422 90.3895C95.6148 90.4016 101.704 89.6866 107.554 87.5057C109.858 86.6458 112.01 85.5082 114.007 83.8537C114.041 84.1629 114.087 84.3779 114.087 84.5952C114.089 91.4474 114.082 98.302 114.097 105.154C114.099 106.56 113.476 107.647 112.517 108.584C110.522 110.533 108.044 111.637 105.452 112.489C99.2063 114.545 92.7744 115.091 86.2411 114.728C81.4564 114.465 76.7393 113.786 72.2952 111.931C70.5055 111.185 68.8076 110.156 67.2014 109.06C65.6773 108.019 64.96 106.463 65.047 104.531C65.1363 102.543 65.0639 100.546 65.0687 98.5556C65.0663 98.2609 65.0929 97.9711 65.1146 97.5629Z" fill="#00494C"/>
<path d="M27.4917 84.0713C32.6531 88.1048 38.5802 89.4622 44.7078 90.1892C50.3668 90.8631 56.0234 90.7737 61.6607 89.868C61.7766 89.8486 61.8998 89.8655 62.0858 89.8655C62.0858 93.3894 62.0858 96.9013 62.0858 100.563C60.5327 100.761 58.9652 101.022 57.3856 101.155C49.6688 101.809 42.0848 101.229 34.752 98.5412C32.7908 97.8215 30.9359 96.8868 29.3587 95.4811C28.1003 94.3604 27.4144 93.0223 27.4699 91.2736C27.5472 88.9284 27.4917 86.5808 27.4917 84.0713Z" fill="#00494C"/>
<path d="M35.9647 29.2419C35.9864 30.0172 35.2981 30.7248 34.4841 30.7611C33.6895 30.7973 32.9721 30.1089 32.9697 29.3047C32.9673 28.5221 33.6653 27.8603 34.4962 27.8531C35.3005 27.8458 35.9429 28.4545 35.9647 29.2419Z" fill="#1EC1CB"/>
<path d="M81.2124 76.2337C80.3937 76.2602 79.686 75.5912 79.6787 74.7869C79.6739 73.9923 80.2874 73.374 81.1038 73.3522C81.9684 73.3281 82.6181 73.9391 82.623 74.7797C82.6278 75.5791 82.0191 76.2095 81.2124 76.2337Z" fill="#1EC1CB"/>
</g>
<path d="M27.0816 70.1646C27.9009 70.7109 28.5898 71.2174 29.3231 71.654C33.2345 73.9818 37.5687 75.1968 42.0595 75.9278C51.5733 77.4747 61.0219 77.2676 70.34 74.7028C72.0831 74.2238 73.7636 73.5102 75.4414 72.8341C76.433 72.4349 76.7435 71.5742 76.3338 70.7708C75.945 70.0099 75.0813 69.713 74.1706 70.1147C67.0339 73.2458 59.4615 74.9893 51.7351 74.8446C45.8301 74.7348 40.0216 73.9838 34.5392 71.7783C32.6422 71.0149 30.86 69.9196 29.1691 68.7819C27.6243 67.744 26.9276 65.1947 27.0059 63.3135C27.092 61.2278 27.0242 59.1345 27.0268 57.0463C27.0268 56.7469 27.0581 56.4475 27.0633 56.3527C29.3857 57.4854 31.6376 58.8102 34.0643 59.7208C40.246 62.0361 46.7486 62.7422 53.3425 62.7546C60.033 62.7671 66.6112 62.0286 72.9312 59.7757C75.4205 58.8875 77.7455 57.7124 79.9034 56.0034C79.94 56.3228 79.9896 56.5448 79.9896 56.7693C79.9922 63.8474 79.9843 70.928 80 78.0061C80.0026 79.4581 79.3294 80.5808 78.2935 81.5489C76.1381 83.5623 73.4609 84.7024 70.661 85.5831C63.9131 87.7063 56.9643 88.2702 49.9059 87.8959C44.7367 87.624 39.6406 86.9229 34.8393 85.0068C32.9057 84.2359 31.0714 83.173 29.3361 82.0404C27.6896 80.965 26.9146 79.3583 27.0085 77.3624C27.1051 75.3091 27.0268 73.2458 27.032 71.19C27.0294 70.8856 27.0581 70.5862 27.0816 70.1646Z" fill="#00494C"/>
<path d="M27.0784 41.4921C27.8668 42.0897 28.5297 42.6436 29.2353 43.1212C32.9991 45.6671 37.1698 46.9961 41.4911 47.7956C50.6459 49.4875 59.7379 49.261 68.7044 46.4558C70.3817 45.9318 71.9988 45.1514 73.6133 44.4119C74.5674 43.9753 74.8662 43.0338 74.472 42.1552C74.0979 41.3229 72.8762 42.6818 71.9999 43.1212C65.1325 46.5458 58.4348 47.9539 51 47.7956C45.3178 47.6755 38.7754 46.8242 33.5 44.4119C31.6745 43.5769 29.1271 42.2476 27.5 41.0033C26.0135 39.8681 26.9302 36.0562 27.0056 33.9987C27.0884 31.7174 27.4973 35.2873 27.4999 33.0033C27.4798 39.8581 27.4446 41.6121 27.4999 33.9987C29.7346 35.2376 27.4998 32.5012 27.0784 32.0012C27.4801 32.0012 32.4998 28.0012 38.9998 26.5012C45.4998 25.0012 42.4998 28.0033 49.0414 27.1439C51.4368 26.1725 62.9232 29.0132 64.9998 27.1439C65.0349 27.4932 66.9998 30.0033 71.9999 31.0033C79.4998 33.9987 77.9848 42.3271 77.9999 50.0687C78.0024 51.6569 77.3546 52.8849 76.3577 53.9436C74.2837 56.1458 71.7075 57.3929 69.0133 58.3561C62.52 60.6784 55.8334 61.2951 49.0414 60.8857C44.0673 60.5883 39.1634 59.8215 34.5433 57.7258C32.6828 56.8826 30.9176 55.7201 29.2478 54.4812C27.6634 53.3051 26.9177 51.5477 27.0081 49.3647C27.101 47.1189 27.0256 44.8621 27.0307 42.6136C27.0282 42.2807 27.0558 41.9532 27.0784 41.4921Z" fill="#00494C"/>
<path d="M55.2096 24.9958C56.8544 25.1794 58.504 25.3219 60.144 25.5513C65.0712 26.2397 69.8848 27.3483 74.1961 29.9592C75.3675 30.6693 76.4375 31.5968 77.4181 32.5629C78.8576 33.9831 79.4518 35.7873 79.4348 37.821C79.4035 41.2917 79.4276 44.7649 79.4252 48.2357C79.4252 48.4772 79.43 48.7211 79.3986 48.9578C79.2875 49.7669 78.6934 50.3249 77.9615 50.3225C77.1838 50.3225 76.5631 49.738 76.5413 48.8636C76.5027 47.2333 76.5268 45.603 76.5172 43.9727C76.5148 43.7094 76.4858 43.4486 76.4737 43.2553C74.8362 44.1828 73.2783 45.2117 71.6021 45.9846C66.8802 48.1608 61.8274 49.0279 56.6901 49.395C50.024 49.8732 43.4206 49.4457 36.9524 47.6367C33.588 46.6971 30.407 45.3591 27.6125 43.0718C27.5618 43.2288 27.5014 43.3278 27.5014 43.4292C27.4966 45.9653 27.4821 48.5013 27.5039 51.0374C27.5159 52.3634 28.214 53.385 29.1342 54.2594C31.0616 56.0902 33.4334 57.136 35.9042 57.9668C41.725 59.9256 47.7319 60.5367 53.8401 60.358C55.1975 60.3193 56.5501 60.1913 57.9074 60.1333C58.876 60.0923 59.4919 60.5947 59.5643 61.4158C59.6416 62.2829 59.074 62.9399 58.0958 63.0172C50.1761 63.6331 42.3554 63.237 34.757 60.6816C32.1702 59.8121 29.7622 58.5876 27.5546 56.7374C27.528 57.107 27.4966 57.3582 27.4942 57.6094C27.4894 59.7517 27.5401 61.8965 27.4773 64.0388C27.429 65.645 28.0473 66.901 29.1777 67.9661C30.8828 69.5698 32.9431 70.5722 35.1096 71.3499C41.5705 73.6686 48.2608 74.3038 55.0743 73.9898C55.9776 73.9487 56.8809 73.8546 57.7818 73.7821C58.7552 73.7048 59.4653 74.2072 59.5595 75.0453C59.6585 75.9124 59.1199 76.5524 58.1248 76.6587C53.6928 77.1321 49.2559 77.0693 44.8408 76.5138C42.481 76.2167 40.1237 75.8085 37.8123 75.2554C34.1193 74.3714 30.6292 72.973 27.6077 70.4514C27.5594 70.6012 27.4966 70.7026 27.4966 70.8016C27.4918 73.3063 27.4797 75.8133 27.4966 78.318C27.5063 79.7164 28.2381 80.7792 29.2187 81.6849C31.2645 83.5712 33.7667 84.6315 36.3631 85.4552C42.9544 87.5444 49.722 88.0637 56.5839 87.5468C58.1465 87.4284 59.6947 87.1386 61.255 87.0106C62.0158 86.9478 62.168 86.6266 62.1656 85.9261C62.1438 79.1633 62.2356 72.4006 62.1221 65.6402C62.069 62.4593 63.3708 60.1333 65.7813 58.2712C68.7062 56.0129 72.0924 54.7279 75.6211 53.8729C85.4634 51.489 95.2936 51.6171 105.063 54.3222C107.868 55.0975 110.539 56.2085 112.923 57.9137C114.862 59.3001 116.425 60.9763 116.872 63.4302C116.956 63.9012 116.98 64.3891 116.98 64.8697C116.988 78.2431 116.973 91.6165 117 104.99C117.005 107.144 116.251 108.934 114.778 110.446C112.461 112.828 109.527 114.154 106.45 115.197C102.339 116.591 98.0929 117.284 93.772 117.574C93.4169 117.598 93.0643 117.682 92.7092 117.738C90.5355 117.738 88.3617 117.738 86.188 117.738C85.9247 117.69 85.6614 117.61 85.3958 117.593C81.6473 117.378 77.9591 116.798 74.3579 115.733C70.9838 114.733 67.7449 113.443 65.0543 111.072C63.1196 109.364 62.0062 107.282 62.1511 104.635C62.1704 104.265 62.1535 103.896 62.1535 103.505C61.8854 103.529 61.796 103.534 61.7067 103.548C53.5865 104.785 45.5219 104.562 37.5514 102.502C34.0589 101.599 30.7041 100.336 27.8565 98.0195C25.6803 96.2466 24.55 94.0463 24.5596 91.1262C24.62 73.4705 24.5886 55.8124 24.591 38.1543C24.591 37.792 24.579 37.4297 24.6007 37.0674C24.7577 34.5603 26.103 32.7271 28.0014 31.2441C28.6342 30.749 29.3443 30.8891 29.866 31.4905C30.3901 32.0919 30.366 32.7634 29.8588 33.3817C29.6704 33.6135 29.424 33.7995 29.2066 34.0096C26.9121 36.222 26.8228 38.5866 29.2694 40.5985C30.779 41.84 32.5615 42.8496 34.3705 43.6104C38.974 45.5499 43.8602 46.3083 48.8236 46.615C55.3013 47.0159 61.6656 46.4483 67.8415 44.3543C70.3896 43.4896 72.8749 42.4511 74.8796 40.5695C77.0558 38.5238 77.1307 36.2534 74.9762 34.2101C74.0053 33.2899 72.8605 32.4904 71.6697 31.8769C66.274 29.1018 60.4145 28.1961 54.4415 27.9135C49.6278 27.6864 44.8553 28.0729 40.143 29.1332C38.9716 29.3965 38.1915 28.952 38.0248 28.0318C37.8678 27.1696 38.4354 26.5078 39.5634 26.2807C40.5971 26.073 41.6308 25.8508 42.6767 25.7131C44.6765 25.4451 46.6836 25.2301 48.6859 24.9934C50.8596 24.9958 53.0358 24.9958 55.2096 24.9958ZM65.0639 70.2002C65.0639 72.6276 65.1509 74.8279 65.0398 77.0186C64.9311 79.173 65.832 80.726 67.4599 81.9868C69.9935 83.9456 72.9232 85.0397 75.9689 85.8416C82.1931 87.4792 88.5284 87.8221 94.9168 87.2666C99.1967 86.8923 103.399 86.0976 107.389 84.4287C109.264 83.6461 111.044 82.7041 112.512 81.2598C113.572 80.2164 114.162 79.0039 114.101 77.4678C114.036 75.8109 114.087 74.1492 114.087 72.4875C114.087 71.7822 114.087 71.077 114.087 70.1978C111.604 72.2725 108.916 73.5309 106.054 74.4366C100.093 76.3278 93.9579 76.8978 87.7386 76.794C86.2604 76.7698 85.5987 76.3012 85.6107 75.2941C85.6228 74.2869 86.2725 73.8594 87.7845 73.8932C93.1826 74.0164 98.518 73.5526 103.73 72.0793C106.819 71.2074 109.831 70.1157 112.268 67.9081C114.751 65.6595 114.72 63.2539 112.232 61.0294C111.896 60.7275 111.553 60.4111 111.162 60.1985C109.73 59.4305 108.322 58.59 106.819 57.9886C102.117 56.1071 97.1703 55.3921 92.1392 55.1917C85.5455 54.9284 79.0556 55.5274 72.8049 57.7929C70.4983 58.6286 68.2714 59.6575 66.5228 61.4497C64.6243 63.3964 64.5954 65.6112 66.5155 67.5193C67.3609 68.3574 68.3415 69.1399 69.3994 69.6665C71.1432 70.536 73.0174 71.147 74.8023 71.9392C75.2781 72.1518 75.8071 72.5624 75.9907 73.0116C76.138 73.3763 75.952 74.142 75.6477 74.3618C75.2323 74.6613 74.5053 74.8134 74.0125 74.6757C70.834 73.7797 67.8318 72.473 65.0639 70.2002ZM65.1146 97.563C65.0929 97.9712 65.0663 98.261 65.0663 98.5532C65.0615 100.546 65.134 102.541 65.0446 104.529C64.9576 106.461 65.675 108.016 67.199 109.057C68.8052 110.154 70.5031 111.183 72.2929 111.929C76.7394 113.784 81.4564 114.46 86.2387 114.726C92.772 115.086 99.2039 114.542 105.45 112.487C108.041 111.634 110.522 110.528 112.515 108.581C113.473 107.644 114.099 106.56 114.094 105.152C114.08 98.2996 114.087 91.4451 114.084 84.5929C114.084 84.3755 114.039 84.1581 114.005 83.8514C112.007 85.5059 109.855 86.6435 107.551 87.5033C101.701 89.6843 95.6124 90.3992 89.4196 90.3872C83.3162 90.3751 77.2973 89.6916 71.5755 87.4502C69.3317 86.571 67.2449 85.2861 65.0953 84.1895C65.0905 84.2813 65.0615 84.5712 65.0615 84.861C65.0567 86.8826 65.1219 88.909 65.0422 90.9282C64.9697 92.7493 65.6146 94.2492 67.0445 95.254C68.6096 96.3553 70.2592 97.4156 72.0151 98.1547C77.0872 100.29 82.466 101.017 87.9318 101.123C95.0835 101.263 102.093 100.543 108.698 97.5122C109.544 97.1234 110.341 97.4108 110.701 98.1475C111.08 98.9228 110.79 99.7585 109.875 100.145C108.322 100.799 106.769 101.49 105.153 101.954C96.5302 104.437 87.7821 104.637 78.9759 103.14C74.8192 102.432 70.8075 101.256 67.187 99.0025C66.5107 98.5798 65.873 98.0919 65.1146 97.563ZM27.4918 84.0712C27.4918 86.5783 27.5498 88.9283 27.4725 91.2736C27.4145 93.0247 28.1004 94.3603 29.3612 95.481C30.9408 96.8867 32.7933 97.8214 34.7545 98.5412C42.0849 101.232 49.6689 101.809 57.3882 101.154C58.9677 101.022 60.5353 100.761 62.0883 100.563C62.0883 96.9012 62.0883 93.3894 62.0883 89.8655C61.8999 89.8655 61.7791 89.8486 61.6632 89.8679C56.0283 90.7712 50.3693 90.8606 44.7103 90.1891C38.5803 89.4621 32.6508 88.1047 27.4918 84.0712Z" fill="#1EC1CB"/>
<path d="M65.0643 70.2002C67.8322 72.4729 70.8344 73.7796 74.0177 74.6757C74.5104 74.8158 75.2374 74.6612 75.6529 74.3617C75.9572 74.1443 76.1432 73.3763 75.9958 73.0115C75.8123 72.5623 75.2833 72.1517 74.8075 71.9392C73.0226 71.1445 71.1508 70.5359 69.4045 69.6664C68.3466 69.1398 67.366 68.3573 66.5207 67.5192C64.5981 65.6087 64.6295 63.3963 66.5279 61.4496C68.2766 59.655 70.5035 58.6285 72.8101 57.7929C79.0608 55.5249 85.5507 54.9283 92.1444 55.1916C97.1755 55.3921 102.122 56.1094 106.825 57.9885C108.327 58.5899 109.735 59.4328 111.167 60.1985C111.561 60.4086 111.901 60.7274 112.237 61.0293C114.725 63.2514 114.754 65.6594 112.273 67.9081C109.836 70.1132 106.827 71.2049 103.735 72.0793C98.5232 73.5502 93.1902 74.0163 87.7897 73.8931C86.2777 73.8593 85.628 74.2868 85.6159 75.294C85.6038 76.3012 86.2656 76.7697 87.7438 76.7939C93.9631 76.8977 100.098 76.3277 106.059 74.4366C108.921 73.5284 111.609 72.2725 114.092 70.1977C114.092 71.0745 114.092 71.7798 114.092 72.4874C114.092 74.1467 114.041 75.8084 114.107 77.4677C114.167 79.0063 113.575 80.2188 112.517 81.2597C111.049 82.7041 109.269 83.646 107.395 84.4286C103.402 86.0976 99.2019 86.8922 94.922 87.2665C88.5336 87.8245 82.1983 87.4815 75.9741 85.8415C72.9284 85.0397 69.9963 83.9455 67.4651 81.9867C65.8372 80.726 64.9363 79.1729 65.045 77.0185C65.1512 74.8278 65.0643 72.6275 65.0643 70.2002ZM81.2129 76.2335C82.0196 76.207 82.6306 75.579 82.6234 74.7795C82.6186 73.939 81.9688 73.3304 81.1042 73.3521C80.2878 73.3738 79.6719 73.9922 79.6792 74.7868C79.684 75.5935 80.3917 76.2601 81.2129 76.2335Z" fill="#00494C"/>
<path d="M65.1146 97.5629C65.873 98.0918 66.5106 98.5821 67.1893 99.0048C70.8098 101.258 74.8216 102.435 78.9783 103.142C87.7844 104.64 96.5302 104.439 105.155 101.956C106.769 101.493 108.324 100.802 109.877 100.147C110.795 99.7608 111.082 98.9275 110.703 98.1498C110.343 97.4131 109.544 97.1257 108.701 97.5146C102.095 100.546 95.0858 101.266 87.9342 101.125C82.4684 101.019 77.092 100.292 72.0175 98.157C70.2616 97.418 68.6119 96.3577 67.0468 95.2563C65.617 94.2515 64.9721 92.7516 65.0445 90.9305C65.1242 88.9113 65.0615 86.8849 65.0639 84.8633C65.0639 84.5735 65.0928 84.2837 65.0977 84.1919C67.2473 85.2884 69.3317 86.5709 71.5779 87.4525C77.2997 89.6939 83.3186 90.3774 89.422 90.3895C95.6148 90.4016 101.704 89.6866 107.554 87.5057C109.858 86.6458 112.01 85.5082 114.007 83.8537C114.041 84.1629 114.087 84.3779 114.087 84.5952C114.089 91.4474 114.082 98.302 114.097 105.154C114.099 106.56 113.476 107.647 112.517 108.584C110.522 110.533 108.044 111.637 105.452 112.489C99.2063 114.545 92.7744 115.091 86.2411 114.728C81.4564 114.465 76.7393 113.786 72.2952 111.931C70.5055 111.185 68.8076 110.156 67.2014 109.06C65.6773 108.019 64.96 106.463 65.047 104.531C65.1363 102.543 65.0639 100.546 65.0687 98.5556C65.0663 98.2609 65.0929 97.9711 65.1146 97.5629Z" fill="#00494C"/>
<path d="M27.4917 84.0713C32.6531 88.1048 38.5802 89.4622 44.7078 90.1892C50.3668 90.8631 56.0234 90.7737 61.6607 89.868C61.7766 89.8486 61.8998 89.8655 62.0858 89.8655C62.0858 93.3894 62.0858 96.9013 62.0858 100.563C60.5327 100.761 58.9652 101.022 57.3856 101.155C49.6688 101.809 42.0848 101.229 34.752 98.5412C32.7908 97.8215 30.9359 96.8868 29.3587 95.4811C28.1003 94.3604 27.4144 93.0223 27.4699 91.2736C27.5472 88.9284 27.4917 86.5808 27.4917 84.0713Z" fill="#00494C"/>
<path d="M35.9647 29.2419C35.9864 30.0172 35.2981 30.7248 34.4841 30.7611C33.6895 30.7973 32.9721 30.1089 32.9697 29.3047C32.9673 28.5221 33.6653 27.8603 34.4962 27.8531C35.3005 27.8458 35.9429 28.4545 35.9647 29.2419Z" fill="#1EC1CB"/>
<path d="M81.2124 76.2337C80.3937 76.2602 79.686 75.5912 79.6787 74.7869C79.6739 73.9923 80.2874 73.374 81.1038 73.3522C81.9684 73.3281 82.6181 73.9391 82.623 74.7797C82.6278 75.5791 82.0191 76.2095 81.2124 76.2337Z" fill="#1EC1CB"/>
<defs>
<filter id="filter0_f" x="0.55957" y="0.993393" width="140.44" height="140.744" filterUnits="userSpaceOnUse" color-interpolation-filters="sRGB">
<feFlood flood-opacity="0" result="BackgroundImageFix"/>
<feBlend mode="normal" in="SourceGraphic" in2="BackgroundImageFix" result="shape"/>
<feGaussianBlur stdDeviation="12" result="effect1_foregroundBlur"/>
</filter>
</defs>
</svg>
