<svg width="137" height="139" viewBox="0 0 137 139" fill="none" xmlns="http://www.w3.org/2000/svg">
<g clip-path="url(#clip0)" filter="url(#filter0_f)">
<g clip-path="url(#clip1)">
<rect x="61" y="77.0033" width="14" height="34" fill="#00494C"/>
<rect x="33" y="92.0033" width="14" height="19" fill="#00494C"/>
<rect x="89" y="53.0033" width="14" height="58" fill="#00494C"/>
<path d="M108.851 110.488H104.996V54.5077C104.996 51.9021 102.876 49.7823 100.27 49.7823H91.653C89.0473 49.7823 86.9276 51.9022 86.9276 54.5077V110.488H77.138V79.871C77.138 77.2654 75.0182 75.1456 72.4126 75.1456H63.7951C61.1895 75.1456 59.0698 77.2655 59.0698 79.871V110.488H49.2802V94.6315C49.2802 92.0259 47.1603 89.9061 44.5548 89.9061H35.9372C33.3315 89.9061 31.2118 92.0261 31.2118 94.6315V110.488H27.1484C26.1776 110.488 25.3906 111.275 25.3906 112.245C25.3906 113.216 26.1776 114.003 27.1484 114.003H108.851C109.822 114.003 110.609 113.216 110.609 112.245C110.609 111.275 109.822 110.488 108.851 110.488ZM45.7642 110.488H34.7272V94.6315C34.7272 93.9644 35.2699 93.4218 35.937 93.4218H44.5545C45.2216 93.4218 45.7642 93.9644 45.7642 94.6315V110.488ZM73.6222 110.488H62.5852V79.871C62.5852 79.2039 63.1279 78.6612 63.795 78.6612H72.4125C73.0794 78.6612 73.6222 79.2039 73.6222 79.871V110.488ZM101.48 110.488H90.4432V54.5077C90.4432 53.8406 90.9859 53.2979 91.653 53.2979H100.27C100.938 53.2979 101.48 53.8406 101.48 54.5077V110.488Z" fill="#1EC1CB"/>
<path d="M104.991 25.8518C105.016 25.3721 104.847 24.8843 104.481 24.518C104.115 24.1516 103.627 23.9827 103.147 24.0075C103.119 24.0063 103.091 24.0033 103.062 24.0033H92.4273C91.4565 24.0033 90.6695 24.7903 90.6695 25.7611C90.6695 26.7319 91.4565 27.5189 92.4273 27.5189H98.994L81.6168 44.8963L75.0636 38.3432C74.734 38.0136 74.2868 37.8283 73.8207 37.8283C73.3545 37.8283 72.9073 38.0136 72.5777 38.3432L40.9777 69.9434C40.2913 70.6298 40.2913 71.7428 40.9777 72.4294C41.321 72.7724 41.7708 72.9439 42.2207 72.9439C42.6705 72.9439 43.1205 72.7724 43.4636 72.4291L73.8207 42.0718L80.3738 48.625C81.0602 49.3114 82.1733 49.3114 82.8599 48.625L101.48 30.005V35.9481C101.48 36.919 102.267 37.706 103.238 37.706C104.209 37.706 104.996 36.919 104.996 35.9481V25.9369C104.996 25.9082 104.993 25.8803 104.991 25.8518Z" fill="#1EC1CB"/>
<path d="M36.2959 79.0773C37.2667 79.0773 38.0537 78.2903 38.0537 77.3195C38.0537 76.3487 37.2667 75.5617 36.2959 75.5617C35.3251 75.5617 34.5381 76.3487 34.5381 77.3195C34.5381 78.2903 35.3251 79.0773 36.2959 79.0773Z" fill="#1EC1CB"/>
</g>
</g>
<g clip-path="url(#clip2)">
<g clip-path="url(#clip3)">
<rect x="61" y="77.0033" width="14" height="34" fill="#00494C"/>
<rect x="33" y="92.0033" width="14" height="19" fill="#00494C"/>
<rect x="89" y="53.0033" width="14" height="58" fill="#00494C"/>
<path d="M108.851 110.488H104.996V54.5077C104.996 51.9021 102.876 49.7823 100.27 49.7823H91.653C89.0473 49.7823 86.9276 51.9022 86.9276 54.5077V110.488H77.138V79.871C77.138 77.2654 75.0182 75.1456 72.4126 75.1456H63.7951C61.1895 75.1456 59.0698 77.2655 59.0698 79.871V110.488H49.2802V94.6315C49.2802 92.0259 47.1603 89.9061 44.5548 89.9061H35.9372C33.3315 89.9061 31.2118 92.0261 31.2118 94.6315V110.488H27.1484C26.1776 110.488 25.3906 111.275 25.3906 112.245C25.3906 113.216 26.1776 114.003 27.1484 114.003H108.851C109.822 114.003 110.609 113.216 110.609 112.245C110.609 111.275 109.822 110.488 108.851 110.488ZM45.7642 110.488H34.7272V94.6315C34.7272 93.9644 35.2699 93.4218 35.937 93.4218H44.5545C45.2216 93.4218 45.7642 93.9644 45.7642 94.6315V110.488ZM73.6222 110.488H62.5852V79.871C62.5852 79.2039 63.1279 78.6612 63.795 78.6612H72.4125C73.0794 78.6612 73.6222 79.2039 73.6222 79.871V110.488ZM101.48 110.488H90.4432V54.5077C90.4432 53.8406 90.9859 53.2979 91.653 53.2979H100.27C100.938 53.2979 101.48 53.8406 101.48 54.5077V110.488Z" fill="#1EC1CB"/>
<path d="M104.991 25.8518C105.016 25.3721 104.847 24.8843 104.481 24.518C104.115 24.1516 103.627 23.9827 103.147 24.0075C103.119 24.0063 103.091 24.0033 103.062 24.0033H92.4273C91.4565 24.0033 90.6695 24.7903 90.6695 25.7611C90.6695 26.7319 91.4565 27.5189 92.4273 27.5189H98.994L81.6168 44.8963L75.0636 38.3432C74.734 38.0136 74.2868 37.8283 73.8207 37.8283C73.3545 37.8283 72.9073 38.0136 72.5777 38.3432L40.9777 69.9434C40.2913 70.6298 40.2913 71.7428 40.9777 72.4294C41.321 72.7724 41.7708 72.9439 42.2207 72.9439C42.6705 72.9439 43.1205 72.7724 43.4636 72.4291L73.8207 42.0718L80.3738 48.625C81.0602 49.3114 82.1733 49.3114 82.8599 48.625L101.48 30.005V35.9481C101.48 36.919 102.267 37.706 103.238 37.706C104.209 37.706 104.996 36.919 104.996 35.9481V25.9369C104.996 25.9082 104.993 25.8803 104.991 25.8518Z" fill="#1EC1CB"/>
<path d="M36.2959 79.0773C37.2667 79.0773 38.0537 78.2903 38.0537 77.3195C38.0537 76.3487 37.2667 75.5617 36.2959 75.5617C35.3251 75.5617 34.5381 76.3487 34.5381 77.3195C34.5381 78.2903 35.3251 79.0773 36.2959 79.0773Z" fill="#1EC1CB"/>
</g>
</g>
<defs>
<filter id="filter0_f" x="0" y="-0.996719" width="141" height="141" filterUnits="userSpaceOnUse" color-interpolation-filters="sRGB">
<feFlood flood-opacity="0" result="BackgroundImageFix"/>
<feBlend mode="normal" in="SourceGraphic" in2="BackgroundImageFix" result="shape"/>
<feGaussianBlur stdDeviation="12" result="effect1_foregroundBlur"/>
</filter>
<clipPath id="clip0">
<rect width="93" height="93" fill="white" transform="translate(24 23.0033)"/>
</clipPath>
<clipPath id="clip1">
<rect width="90" height="90" fill="white" transform="translate(23 24.0033)"/>
</clipPath>
<clipPath id="clip2">
<rect width="93" height="93" fill="white" transform="translate(24 23.0033)"/>
</clipPath>
<clipPath id="clip3">
<rect width="90" height="90" fill="white" transform="translate(23 24.0033)"/>
</clipPath>
</defs>
</svg>
